{"glyphs":{"0":{"ha":1553,"x_min":0,"x_max":0,"o":"m 1494 477 b 1482 365 1494 438 1490 401 b 1426 243 1474 328 1455 287 b 1311 126 1397 198 1358 159 b 1109 43 1263 94 1196 66 b 806 9 1022 21 922 9 l 746 9 b 444 43 631 9 530 21 b 243 126 358 66 291 93 b 128 242 196 158 157 197 b 71 365 99 287 80 328 b 58 477 63 401 58 438 l 58 515 b 71 627 58 553 63 591 b 128 748 80 664 99 704 b 243 863 157 793 196 831 b 444 944 291 895 358 922 b 746 977 530 966 631 977 l 806 977 b 1109 944 922 977 1022 966 b 1311 863 1196 922 1263 895 b 1426 748 1358 831 1397 793 b 1482 627 1455 704 1474 664 b 1494 515 1490 591 1494 553 m 1160 506 b 1143 589 1160 535 1154 563 b 1086 667 1131 616 1112 642 b 967 727 1059 692 1020 712 b 776 750 914 742 850 750 b 615 734 715 750 661 744 b 504 694 568 724 531 710 b 436 637 476 679 454 659 b 402 573 419 615 407 593 b 393 506 396 552 393 529 l 393 491 b 410 406 393 462 398 433 b 467 326 421 379 440 352 b 586 262 493 299 533 278 b 776 238 639 246 702 238 b 967 261 850 238 914 246 b 1086 324 1020 277 1059 298 b 1143 403 1112 350 1131 376 b 1160 488 1154 430 1160 458 l 1160 506 "},"1":{"ha":697,"x_min":0,"x_max":0,"o":"m 39 602 l 39 785 b 355 971 194 793 300 855 l 614 971 l 614 0 l 285 0 l 285 602 "},"2":{"ha":1403,"x_min":0,"x_max":0,"o":"m 62 0 l 62 108 b 65 173 62 132 63 153 b 79 242 67 192 72 215 b 111 314 87 269 97 293 b 170 384 124 336 144 359 b 260 450 195 408 225 431 b 393 507 295 470 339 489 b 573 554 446 526 506 541 l 817 600 b 942 635 881 612 923 623 b 970 680 961 647 970 662 b 954 716 970 695 965 707 b 877 741 944 725 918 734 b 709 752 837 748 781 752 b 555 738 647 752 596 747 b 467 701 514 729 485 717 b 431 659 449 685 437 671 b 421 617 425 646 422 633 l 81 617 l 81 627 b 89 706 81 655 83 681 b 133 794 95 730 109 760 b 228 882 157 828 189 858 b 402 945 268 906 326 927 b 670 971 478 963 567 971 l 726 971 b 975 955 821 971 904 966 b 1145 912 1045 943 1102 929 b 1247 846 1187 894 1221 872 b 1301 767 1274 820 1291 794 b 1315 677 1310 740 1315 710 l 1315 675 b 1299 575 1315 636 1309 602 b 1242 498 1289 549 1270 523 b 1119 434 1214 473 1173 452 b 913 389 1066 417 997 402 l 628 345 b 353 226 445 314 353 275 l 1012 226 l 1012 349 l 1333 349 l 1333 0 "},"3":{"ha":1408,"x_min":0,"x_max":0,"o":"m 668 0 b 459 15 591 0 522 5 b 303 52 396 24 344 37 b 194 108 262 68 226 86 b 122 172 163 129 139 151 b 82 239 105 193 92 215 b 62 300 72 263 65 283 b 58 349 60 316 58 333 l 58 359 l 395 359 b 696 217 412 264 512 217 b 840 225 752 217 800 219 b 931 243 880 230 910 236 b 980 269 951 250 968 259 b 1001 296 992 280 999 289 b 1004 322 1003 303 1004 312 b 861 395 1004 370 957 395 l 500 395 l 500 613 l 845 613 b 978 675 934 613 978 634 b 974 697 978 683 977 691 b 952 718 971 703 964 710 b 903 738 940 726 924 733 b 815 751 883 743 853 747 b 676 757 776 755 730 757 b 542 747 624 757 580 753 b 460 726 505 740 477 733 b 417 695 442 719 428 708 b 399 670 406 682 400 673 b 395 650 398 666 397 660 l 61 650 l 61 662 b 64 707 61 677 62 692 b 82 761 67 722 73 740 b 120 820 92 783 105 802 b 188 877 136 839 158 857 b 292 926 218 896 253 912 b 443 959 332 939 382 950 b 645 971 504 967 571 971 l 703 971 b 976 955 808 971 899 966 b 1156 916 1054 945 1113 932 b 1256 857 1198 900 1231 880 b 1303 793 1281 834 1297 813 b 1314 729 1310 774 1314 753 l 1314 721 b 1263 613 1314 677 1297 641 b 1150 559 1229 585 1191 567 b 1215 534 1173 553 1195 545 b 1277 492 1236 524 1257 510 b 1327 423 1298 474 1314 451 b 1345 329 1339 395 1345 364 l 1345 320 b 732 0 1345 107 1141 0 l 668 0 "},"4":{"ha":1403,"x_min":0,"x_max":0,"o":"m 787 975 l 1145 975 l 1145 427 l 1359 427 l 1359 201 l 1145 201 l 1145 0 l 817 0 l 817 201 l 42 201 l 42 385 m 817 732 l 429 427 l 817 427 "},"5":{"ha":1363,"x_min":0,"x_max":0,"o":"m 660 0 b 463 12 588 0 522 4 b 314 44 403 20 353 31 b 208 92 274 57 239 73 b 137 147 177 110 153 128 b 95 205 120 165 106 185 b 74 260 85 226 78 244 b 69 307 71 276 69 291 l 69 316 l 414 316 b 692 221 432 252 525 221 b 907 253 799 221 871 231 b 961 337 943 275 961 303 l 961 345 b 907 429 961 379 943 407 b 692 462 871 451 799 462 b 567 454 645 462 604 459 b 485 437 531 449 504 443 b 438 416 466 431 451 424 b 415 396 425 407 418 401 b 409 385 412 392 410 388 l 92 385 l 92 971 l 1229 971 l 1229 749 l 412 749 l 412 579 b 783 667 494 638 618 667 l 795 667 b 1048 643 895 667 979 659 b 1205 572 1117 626 1169 603 b 1280 471 1241 540 1266 507 b 1302 346 1295 435 1302 393 l 1302 339 b 1288 243 1302 304 1297 273 b 1235 153 1279 214 1261 183 b 1135 74 1210 122 1176 95 b 968 20 1093 52 1037 34 b 726 0 898 7 817 0 "},"6":{"ha":1422,"x_min":0,"x_max":0,"o":"m 697 0 b 428 29 595 0 506 10 b 243 104 351 49 289 74 b 132 215 198 135 160 172 b 74 342 103 258 84 300 b 60 475 65 383 60 428 l 60 506 b 76 639 60 552 65 597 b 137 767 87 681 108 724 b 249 877 167 810 204 846 b 429 952 295 907 355 932 b 684 981 503 971 588 981 l 740 981 b 1025 953 851 981 946 972 b 1205 879 1105 934 1165 910 b 1292 785 1246 849 1275 817 b 1319 685 1310 753 1319 720 l 1319 680 l 986 680 b 948 719 974 698 961 711 b 712 762 900 748 822 762 b 564 745 656 762 606 757 b 467 704 521 734 489 720 b 414 647 445 688 427 669 b 388 590 400 625 392 606 b 382 541 384 573 382 557 l 382 536 b 500 592 423 562 462 581 b 810 628 580 616 683 628 l 828 628 b 1363 335 1185 628 1363 530 l 1363 324 b 1351 236 1363 293 1359 263 b 1299 151 1342 209 1325 181 b 1196 74 1272 120 1238 95 b 1020 21 1153 52 1094 35 b 758 0 945 7 858 0 l 697 0 m 424 324 b 436 288 424 311 428 299 b 479 253 445 276 459 265 b 572 225 499 241 530 232 b 726 215 615 218 666 215 b 1025 320 925 215 1025 250 l 1025 325 b 1015 361 1025 339 1022 351 b 975 395 1008 372 995 383 b 883 421 956 406 925 415 b 726 429 841 426 789 429 b 424 328 525 429 424 396 "},"7":{"ha":1363,"x_min":0,"x_max":0,"o":"m 1326 977 l 1326 771 b 1266 710 1317 762 1297 742 b 1164 603 1234 678 1200 642 b 1061 486 1128 563 1093 525 b 918 251 986 396 939 317 b 888 12 898 184 888 105 l 888 0 l 505 0 l 505 123 b 563 329 505 201 524 269 b 745 561 601 389 636 466 b 914 757 867 668 913 752 l 391 757 l 391 556 l 53 556 l 53 977 "},"8":{"ha":1406,"x_min":0,"x_max":0,"o":"m 1316 710 b 1248 576 1316 655 1293 611 b 1106 515 1203 541 1155 521 b 1270 446 1167 506 1222 483 b 1342 304 1318 409 1342 362 l 1342 287 b 1331 216 1342 262 1338 238 b 1284 142 1325 195 1309 170 b 1184 70 1259 114 1226 90 b 1005 20 1142 50 1082 34 b 733 0 928 7 837 0 l 672 0 b 63 287 266 0 63 96 l 63 304 b 135 442 63 359 87 406 b 300 515 183 479 238 503 b 153 578 246 524 197 544 b 87 710 109 611 87 655 l 87 723 b 91 765 87 738 88 752 b 108 811 93 777 99 793 b 145 859 117 829 130 845 b 213 904 161 874 183 889 b 317 942 242 919 277 932 b 468 968 357 953 407 961 b 672 977 529 974 597 977 l 733 977 b 1002 958 837 977 927 971 b 1174 913 1078 946 1135 931 b 1267 849 1213 896 1244 875 b 1308 784 1289 824 1303 802 b 1316 723 1313 765 1316 745 l 1316 710 m 1011 309 b 1002 343 1011 322 1008 334 b 964 372 996 352 983 362 b 868 396 944 382 913 390 b 701 404 824 401 769 404 b 533 396 633 404 577 401 b 439 372 489 390 457 382 b 402 343 420 362 408 352 b 394 309 396 334 394 322 l 394 305 b 399 279 394 296 395 287 b 421 253 402 271 409 262 b 471 229 433 244 450 236 b 562 213 492 222 523 217 b 701 206 602 208 648 206 b 842 213 756 206 803 209 b 933 230 882 218 912 223 b 983 253 954 236 971 244 b 1006 278 995 262 1003 271 b 1011 305 1009 286 1011 295 m 983 700 b 980 723 983 708 982 716 b 960 746 977 730 971 737 b 915 768 948 755 934 762 b 832 782 896 773 868 778 b 701 789 796 786 752 789 b 571 782 651 789 607 786 b 488 768 535 778 507 773 b 444 746 469 762 455 755 b 425 723 433 737 427 730 b 421 700 422 717 421 709 l 421 696 b 425 672 421 687 423 679 b 445 649 428 665 435 658 b 490 627 456 640 471 632 b 573 611 510 621 537 616 b 701 605 609 607 652 605 b 830 611 751 605 794 607 b 914 627 867 616 895 621 b 960 649 933 632 948 640 b 980 672 971 658 977 665 b 983 696 982 679 983 687 "},"9":{"ha":1418,"x_min":0,"x_max":0,"o":"m 687 1 b 452 20 600 1 521 7 b 284 69 383 33 326 49 b 178 139 241 90 206 113 b 119 218 150 166 130 192 b 102 296 108 244 102 269 l 102 301 l 435 301 b 442 287 436 296 438 292 b 465 266 445 282 453 275 b 510 243 477 257 492 249 b 588 226 528 237 554 231 b 708 218 623 221 663 218 b 854 236 764 218 813 224 b 950 277 896 247 928 261 b 1003 334 972 293 990 312 b 1029 390 1017 355 1025 374 b 1034 439 1033 406 1034 422 l 1034 442 b 626 351 948 382 812 351 l 608 351 b 342 375 505 351 417 359 b 171 442 268 391 211 414 b 85 535 131 471 102 502 b 58 643 67 567 58 604 l 58 655 b 69 743 58 687 62 716 b 116 828 76 769 91 798 b 216 904 141 858 174 884 b 391 956 258 925 316 942 b 657 977 466 970 555 977 l 717 977 b 1357 504 1144 977 1357 820 l 1357 474 b 1342 339 1357 426 1352 381 b 1284 213 1332 298 1312 255 b 1174 103 1255 170 1219 134 b 997 29 1130 73 1071 48 b 742 1 924 10 839 1 l 687 1 m 993 659 b 693 762 993 728 893 762 b 396 659 495 762 396 728 l 396 655 b 693 549 396 584 495 549 b 993 655 893 549 993 584 "},"\u0000":{"ha":0,"x_min":0,"x_max":0,"o":""},"\n":{"ha":0,"x_min":0,"x_max":0,"o":""},"\r":{"ha":0,"x_min":0,"x_max":0,"o":""}," ":{"ha":744,"x_min":0,"x_max":0,"o":""},"!":{"ha":444,"x_min":0,"x_max":0,"o":"m 385 849 l 302 281 l 142 281 l 60 849 m 367 33 l 78 33 l 78 225 l 367 225 "},"\"":{"ha":579,"x_min":0,"x_max":0,"o":"m 259 728 l 42 728 l 42 998 l 259 998 m 537 728 l 320 728 l 320 998 l 537 998 "},"“":{"ha":579,"x_min":0,"x_max":0,"o":"m 259 998 l 42 998 l 42 728 l 259 728 m 537 998 l 320 998 l 320 728 l 537 728 "},"”":{"ha":579,"x_min":0,"x_max":0,"o":"m 259 728 l 42 728 l 42 998 l 259 998 m 537 728 l 320 728 l 320 998 l 537 998 "},"#":{"ha":1008,"x_min":0,"x_max":0,"o":"m 529 269 l 362 269 l 292 33 l 121 33 l 191 269 l 43 269 l 79 391 l 227 391 l 269 528 l 120 528 l 157 649 l 305 649 l 364 849 l 537 849 l 477 649 l 644 649 l 704 849 l 876 849 l 816 649 l 965 649 l 928 528 l 779 528 l 737 391 l 889 391 l 852 269 l 701 269 l 630 33 l 459 33 m 607 528 l 440 528 l 399 391 l 566 391 "},"$":{"ha":1210,"x_min":0,"x_max":0,"o":"m 537 19 b 61 310 220 25 61 122 l 61 322 l 342 322 b 385 236 342 291 356 262 b 537 186 414 209 464 193 l 537 367 l 490 368 b 73 606 212 376 73 455 l 73 616 b 84 688 73 642 77 666 b 126 753 91 710 105 732 b 207 808 146 775 173 793 b 341 844 240 823 285 835 b 537 858 397 854 463 858 l 537 924 l 648 924 l 648 858 b 843 841 721 857 786 852 b 979 801 899 831 944 817 b 1063 744 1013 785 1041 766 b 1108 677 1085 721 1100 699 b 1120 605 1116 654 1120 631 l 1120 594 l 840 594 b 648 695 834 655 770 688 l 648 545 l 700 544 b 1046 482 861 539 976 519 b 1150 307 1115 446 1150 387 l 1150 292 b 1139 210 1150 262 1146 235 b 1095 137 1132 186 1117 162 b 1009 75 1073 112 1044 92 b 863 35 973 59 924 45 b 648 19 801 24 730 19 l 648 -49 l 537 -49 m 350 623 b 362 591 350 610 354 600 b 416 566 369 582 387 574 b 537 549 445 558 485 552 l 537 697 b 449 690 502 696 473 694 b 394 678 425 687 406 683 b 365 661 382 674 372 668 b 353 643 358 655 354 648 b 350 624 351 638 350 632 l 350 623 m 868 282 b 823 340 868 308 853 328 b 648 364 793 353 735 361 l 648 184 b 765 195 695 186 734 189 b 832 219 796 201 818 209 b 860 247 846 229 856 238 b 868 277 865 255 868 266 l 868 282 "},"%":{"ha":1707,"x_min":0,"x_max":0,"o":"m 381 418 b 236 435 326 418 278 424 b 137 475 193 446 161 459 b 80 532 114 491 94 510 b 51 592 65 554 55 574 b 44 647 47 611 44 629 l 44 666 b 51 721 44 685 47 703 b 80 780 55 739 65 759 b 137 836 94 802 114 821 b 236 876 161 852 193 865 b 381 892 278 886 326 892 l 410 892 b 555 876 465 892 513 886 b 653 836 597 865 630 852 b 711 780 677 821 696 802 b 739 721 725 759 735 739 b 746 666 744 703 746 685 l 746 647 b 733 577 746 623 742 600 b 688 504 725 554 710 529 b 584 442 666 478 631 457 b 410 418 536 426 479 418 l 381 418 m 395 553 b 515 582 449 553 490 563 b 553 652 541 601 553 625 l 553 660 b 395 757 553 725 500 757 b 238 660 290 757 238 725 l 238 654 b 276 582 238 625 251 601 b 395 553 301 563 340 553 m 1450 882 l 491 66 l 256 66 l 1213 882 m 1297 58 b 1151 74 1242 58 1193 63 b 1053 115 1110 85 1077 99 b 996 173 1030 132 1011 151 b 967 233 981 195 972 215 b 960 288 962 251 960 269 l 960 306 b 967 361 960 325 962 343 b 996 420 972 379 981 399 b 1053 476 1011 442 1030 460 b 1151 516 1077 492 1110 506 b 1297 532 1193 527 1242 532 l 1326 532 b 1499 509 1394 532 1452 524 b 1603 449 1546 494 1581 474 b 1649 377 1625 424 1640 400 b 1662 306 1658 354 1662 330 l 1662 288 b 1656 233 1662 269 1660 251 b 1627 173 1651 215 1642 195 b 1570 115 1612 151 1593 132 b 1472 74 1547 99 1514 85 b 1326 58 1430 63 1381 58 m 1311 193 b 1432 223 1366 193 1406 203 b 1470 292 1457 242 1470 265 l 1470 301 b 1432 370 1470 329 1457 352 b 1311 397 1407 388 1367 397 b 1190 370 1255 397 1215 388 b 1153 301 1166 352 1153 329 l 1153 294 b 1191 223 1153 266 1166 242 b 1311 193 1216 203 1256 193 "},"&":{"ha":1289,"x_min":0,"x_max":0,"o":"m 1076 253 b 1247 234 1120 241 1178 234 l 1178 55 b 905 120 1075 55 984 77 b 555 53 808 75 691 53 b 44 301 215 53 44 135 l 44 313 b 299 511 44 419 129 485 b 189 695 226 565 189 627 l 189 704 b 197 761 189 725 192 744 b 226 814 202 778 211 796 b 285 861 241 833 260 849 b 387 892 310 874 344 884 b 538 904 430 900 480 904 l 597 904 b 937 709 824 904 937 839 l 937 704 b 936 684 937 697 937 690 l 712 684 l 712 685 b 680 745 712 711 701 731 b 563 766 658 759 619 766 b 464 749 515 766 482 760 b 436 703 445 738 436 722 b 463 648 436 684 445 665 b 893 351 481 631 893 351 b 948 564 930 409 948 480 l 1191 564 b 1076 253 1186 443 1148 340 m 547 212 b 728 232 618 212 678 219 l 396 447 b 308 342 337 425 308 390 l 308 339 b 366 249 308 304 327 274 b 547 212 405 225 466 212 "},"'":{"ha":551,"x_min":0,"x_max":0,"o":"m 211 933 l 83 1102 l 361 1102 l 468 933 "},"‘":{"ha":551,"x_min":0,"x_max":0,"o":"m 468 933 l 361 1102 l 83 1102 l 211 933 "},"’":{"ha":551,"x_min":0,"x_max":0,"o":"m 211 933 l 83 1102 l 361 1102 l 468 933 "},"(":{"ha":464,"x_min":0,"x_max":0,"o":"m 62 438 b 280 952 62 627 135 798 l 426 952 b 318 716 381 884 345 805 b 278 438 291 626 278 534 b 318 161 278 343 291 250 b 426 -77 345 71 381 -9 l 280 -77 b 63 438 135 72 63 244 "},")":{"ha":464,"x_min":0,"x_max":0,"o":"m 38 -77 b 145 161 82 -9 118 71 b 186 438 172 250 186 343 b 145 716 186 534 172 626 b 38 952 118 805 82 884 l 183 952 b 401 438 328 793 401 622 b 183 -77 401 244 328 72 "},"*":{"ha":575,"x_min":0,"x_max":0,"o":"m 459 846 l 532 723 l 376 682 l 532 641 l 459 519 l 342 608 l 376 481 l 198 481 l 234 608 l 118 519 l 43 641 l 196 682 l 43 723 l 118 846 l 234 756 l 198 882 l 376 882 l 342 756 "},"+":{"ha":740,"x_min":0,"x_max":0,"o":"m 470 195 l 269 195 l 269 388 l 43 388 l 43 539 l 269 539 l 269 732 l 470 732 l 470 539 l 697 539 l 697 388 l 470 388 "},",":{"ha":356,"x_min":0,"x_max":0,"o":"m 113 -137 b 158 -30 138 -93 153 -57 l 33 -30 l 33 162 l 321 162 l 321 3 b 304 -68 321 -17 316 -41 b 265 -137 292 -94 279 -117 l 113 -137 "},"-":{"ha":457,"x_min":0,"x_max":0,"o":"m 420 486 l 420 298 l 36 298 l 36 486 "},".":{"ha":356,"x_min":0,"x_max":0,"o":"m 321 -30 l 33 -30 l 33 162 l 321 162 "},"/":{"ha":632,"x_min":0,"x_max":0,"o":"m 196 -66 l -6 -66 l 409 963 l 612 963 "},":":{"ha":394,"x_min":0,"x_max":0,"o":"m 341 522 l 53 522 l 53 713 l 341 713 m 341 183 l 53 183 l 53 375 l 341 375 "},";":{"ha":401,"x_min":0,"x_max":0,"o":"m 344 522 l 56 522 l 56 713 l 344 713 m 136 76 b 180 183 160 120 175 155 l 56 183 l 56 375 l 344 375 l 344 216 b 326 145 344 195 338 172 b 287 76 315 119 302 95 l 136 76 "},"<":{"ha":658,"x_min":0,"x_max":0,"o":"m 46 427 l 46 602 l 603 774 l 603 607 l 225 514 l 603 423 l 603 258 "},"=":{"ha":694,"x_min":0,"x_max":0,"o":"m 649 584 l 649 443 l 44 443 l 44 584 m 649 367 l 649 227 l 44 227 l 44 367 "},">":{"ha":658,"x_min":0,"x_max":0,"o":"m 56 423 l 433 514 l 56 607 l 56 774 l 612 602 l 612 427 l 56 258 "},"?":{"ha":1050,"x_min":0,"x_max":0,"o":"m 325 359 b 363 455 325 400 338 433 b 518 517 388 478 440 498 l 618 540 b 707 571 663 550 692 560 b 729 609 722 582 729 595 b 721 637 729 620 726 630 b 665 656 715 644 697 650 b 528 666 634 663 588 666 b 423 657 488 666 453 663 b 358 640 394 652 372 646 b 325 612 344 634 333 625 b 312 587 317 600 313 592 b 309 564 311 583 310 575 l 36 564 l 36 577 b 38 623 36 595 37 611 b 49 672 39 636 43 652 b 76 723 56 692 65 709 b 128 766 88 737 105 751 b 209 804 150 782 177 794 b 329 828 240 814 280 822 b 495 838 378 835 434 838 l 562 838 b 752 824 634 838 698 833 b 881 789 807 815 850 803 b 957 736 913 775 938 757 b 996 676 976 716 989 695 b 1005 611 1002 656 1005 634 l 1005 603 b 951 468 1005 549 987 504 b 776 385 915 432 857 404 l 677 361 b 611 334 641 353 620 344 b 598 284 602 323 598 307 l 598 277 l 325 277 m 610 13 l 322 13 l 322 204 l 610 204 "},"@":{"ha":1639,"x_min":0,"x_max":0,"o":"m 833 -55 b 508 -26 710 -55 602 -45 b 284 48 415 -7 340 17 b 148 160 228 78 183 115 b 77 294 113 205 89 249 b 58 441 65 338 58 387 l 58 454 b 80 607 58 510 65 561 b 155 738 94 652 119 696 b 291 843 190 780 236 815 b 506 911 347 872 419 894 b 810 936 594 928 695 936 l 825 936 b 1045 926 905 936 978 933 b 1218 901 1112 920 1170 911 b 1348 860 1266 891 1309 877 b 1444 811 1387 844 1419 827 b 1508 753 1469 795 1490 776 b 1549 692 1526 730 1540 710 b 1570 628 1558 674 1565 653 b 1580 567 1575 603 1579 583 b 1582 511 1581 551 1582 533 l 1582 499 b 1570 405 1582 467 1578 435 b 1531 315 1563 375 1550 345 b 1460 237 1512 285 1488 259 b 1347 184 1431 215 1393 197 b 1189 163 1300 170 1248 163 l 1168 163 b 965 248 1063 163 995 191 b 705 163 904 191 817 163 l 687 163 b 536 189 629 163 578 172 b 438 257 493 206 461 229 b 392 346 416 284 401 314 b 387 444 384 378 382 410 l 395 499 b 478 652 402 559 430 610 b 683 716 526 695 595 716 l 701 716 b 991 627 822 716 919 686 l 1002 703 l 1265 703 l 1211 312 b 1219 282 1210 300 1212 290 b 1253 270 1226 274 1237 270 b 1368 333 1299 270 1338 291 b 1413 504 1398 375 1413 432 l 1413 507 b 1411 572 1413 535 1413 556 b 1398 632 1410 587 1406 608 b 1364 693 1390 657 1379 677 b 1300 743 1350 708 1328 725 b 1195 785 1271 760 1236 775 b 1040 811 1154 795 1102 804 b 825 821 977 817 906 821 l 810 821 b 569 802 717 821 637 815 b 404 752 501 790 446 773 b 303 673 362 732 329 705 b 251 572 278 641 260 607 b 238 452 242 537 238 497 l 238 438 b 263 297 238 386 246 339 b 350 179 279 255 308 216 b 534 93 391 142 453 114 b 833 63 615 73 715 63 b 1416 151 1092 63 1287 92 l 1461 33 b 833 -55 1336 -25 1126 -55 m 970 452 b 932 535 974 486 961 514 b 803 568 903 557 860 568 b 650 461 708 568 657 532 l 647 442 b 674 353 642 409 651 379 b 790 313 697 327 735 313 b 968 431 896 313 956 353 "},"A":{"ha":1521,"x_min":0,"x_max":0,"o":"m 1523 1 l 1197 1 l 1106 177 l 414 177 l 323 1 l -3 1 l 514 962 l 1006 962 m 525 394 l 995 394 l 812 747 l 708 747 l 525 394 "},"Á":{"ha":1521,"x_min":0,"x_max":0,"o":"m 1006 962 l 514 962 l -3 1 l 323 1 l 414 177 l 1106 177 l 1197 1 l 1523 1 m 525 394 l 708 747 l 812 747 l 995 394 l 525 394 "},"B":{"ha":1464,"x_min":0,"x_max":0,"o":"m 63 975 l 972 975 b 1272 913 1113 975 1213 954 b 1360 752 1331 871 1360 818 l 1360 734 b 1342 654 1360 704 1354 678 b 1294 596 1330 630 1314 610 b 1240 563 1274 581 1256 570 b 1192 544 1224 555 1208 549 b 1259 522 1214 539 1237 532 b 1332 481 1281 512 1305 499 b 1396 407 1358 463 1380 438 b 1420 299 1412 375 1420 340 l 1420 281 b 980 1 1420 94 1273 1 l 63 1 m 395 611 l 915 611 b 1030 690 992 611 1030 637 l 1030 692 b 915 769 1030 744 992 769 l 395 769 m 395 404 l 395 213 l 943 213 b 1046 242 993 213 1027 223 b 1075 308 1065 261 1075 283 l 1075 314 b 943 404 1075 374 1031 404 "},"C":{"ha":1565,"x_min":0,"x_max":0,"o":"m 753 -16 b 520 2 668 -16 590 -10 b 342 50 449 14 390 30 b 214 122 294 70 252 94 b 127 208 177 150 148 179 b 75 301 106 236 89 267 b 48 391 61 334 52 364 b 42 472 44 418 42 445 l 42 510 b 55 629 42 552 46 592 b 112 755 63 667 82 709 b 230 874 142 801 182 841 b 438 958 279 907 348 935 b 753 992 528 981 633 992 l 811 992 b 1121 963 928 992 1031 982 b 1329 891 1210 943 1280 919 b 1448 792 1378 862 1418 829 b 1508 693 1479 755 1499 722 b 1522 608 1517 664 1522 635 l 1522 594 l 1169 594 b 1159 622 1167 604 1163 614 b 1126 662 1154 630 1143 644 b 1062 708 1108 680 1087 696 b 950 741 1036 720 999 731 b 781 756 901 751 845 756 b 586 735 705 756 640 749 b 465 675 533 720 492 700 b 407 595 438 650 419 623 b 390 504 396 567 390 537 l 390 488 b 409 397 390 456 396 426 b 470 312 422 368 442 339 b 593 246 498 284 538 262 b 784 221 647 229 711 221 b 1169 390 1002 221 1130 277 b 1171 394 1170 391 1171 393 l 1523 394 l 1523 379 b 1508 290 1523 350 1518 321 b 1446 187 1498 260 1478 225 b 1325 87 1415 149 1374 116 b 1117 14 1275 58 1206 34 b 811 -16 1028 -6 926 -16 l 753 -16 "},"D":{"ha":1578,"x_min":0,"x_max":0,"o":"m 787 975 b 1055 957 886 975 975 969 b 1255 904 1135 944 1202 927 b 1392 826 1309 880 1354 855 b 1479 730 1430 798 1459 766 b 1523 625 1499 694 1514 659 b 1537 514 1532 590 1537 553 l 1537 475 b 1519 345 1537 429 1531 385 b 1452 218 1508 304 1485 262 b 1321 107 1418 175 1374 137 b 1104 31 1268 76 1195 51 b 789 1 1013 11 907 1 l 83 1 l 83 975 m 416 235 l 761 235 b 1188 487 1046 235 1188 319 l 1188 494 b 761 745 1188 661 1046 745 l 416 745 "},"E":{"ha":1281,"x_min":0,"x_max":0,"o":"m 1202 975 l 1202 754 l 412 754 l 412 610 l 1184 610 l 1184 387 l 412 387 l 412 227 l 1217 227 l 1217 1 l 83 1 l 83 975 "},"F":{"ha":1217,"x_min":0,"x_max":0,"o":"m 1175 970 l 1175 750 l 412 750 l 412 607 l 1156 607 l 1156 385 l 412 385 l 412 1 l 82 1 l 82 970 "},"G":{"ha":1592,"x_min":0,"x_max":0,"o":"m 745 -16 b 452 16 635 -16 538 -5 b 248 99 367 38 299 66 b 124 217 198 133 156 172 b 58 346 92 261 70 304 b 40 471 46 387 40 429 l 40 508 b 55 631 40 550 45 591 b 118 757 65 670 86 713 b 241 873 149 802 190 841 b 449 955 291 906 360 933 b 756 987 537 977 640 987 l 817 987 b 1116 961 930 987 1030 979 b 1318 897 1202 944 1270 922 b 1438 806 1367 871 1407 841 b 1501 709 1470 770 1490 738 b 1518 620 1511 680 1517 650 l 1518 619 l 1166 619 b 789 757 1131 711 1005 757 b 387 495 521 757 387 669 l 387 480 b 486 297 387 409 420 348 b 786 220 552 245 652 220 b 948 232 845 220 899 224 b 1066 260 997 239 1037 249 b 1141 297 1095 272 1120 284 b 1183 333 1161 311 1175 323 b 1195 358 1191 344 1195 352 l 1195 361 l 781 361 l 781 544 l 1525 544 l 1525 1 l 1287 1 b 1284 152 1287 1 1285 88 b 775 -16 1177 40 1008 -16 "},"H":{"ha":1538,"x_min":0,"x_max":0,"o":"m 82 970 l 413 970 l 413 617 l 1123 617 l 1123 970 l 1454 970 l 1454 1 l 1123 1 l 1123 383 l 413 383 l 413 1 l 82 1 "},"I":{"ha":496,"x_min":0,"x_max":0,"o":"m 413 1 l 82 1 l 82 970 l 413 970 "},"J":{"ha":1164,"x_min":0,"x_max":0,"o":"m 1099 953 l 1099 451 b 1086 327 1099 408 1095 367 b 1039 203 1078 287 1063 245 b 951 92 1016 160 987 123 b 805 16 915 62 866 36 b 597 -14 744 -4 675 -14 l 525 -14 b 320 12 449 -14 380 -5 b 173 79 259 29 210 51 b 81 176 136 107 105 139 b 31 286 57 212 40 249 b 17 399 21 323 17 360 l 17 406 l 320 406 b 325 370 321 393 323 382 b 344 324 328 359 334 344 b 381 274 354 305 366 288 b 448 238 396 261 419 249 b 552 223 478 228 512 223 l 567 223 b 740 285 644 223 702 244 b 798 459 778 327 798 384 l 798 953 "},"K":{"ha":1293,"x_min":0,"x_max":0,"o":"m 486 364 l 386 364 l 386 0 l 83 0 l 83 961 l 386 961 l 386 653 l 500 653 l 880 961 l 1264 961 l 709 522 l 1290 0 l 895 0 "},"L":{"ha":1169,"x_min":0,"x_max":0,"o":"m 415 971 l 415 241 l 1151 241 l 1151 0 l 83 0 l 83 971 "},"M":{"ha":1826,"x_min":0,"x_max":0,"o":"m 83 971 l 555 971 l 921 367 l 1288 971 l 1742 971 l 1742 0 l 1415 0 l 1415 672 l 998 0 l 820 0 l 402 672 l 402 0 l 83 0 "},"N":{"ha":1542,"x_min":0,"x_max":0,"o":"m 454 971 l 1130 360 l 1130 971 l 1458 971 l 1458 0 l 1130 0 l 411 644 l 411 0 l 83 0 l 83 971 "},"O":{"ha":1619,"x_min":0,"x_max":0,"o":"m 833 988 b 1084 971 925 988 1009 982 b 1272 924 1159 959 1221 944 b 1405 854 1323 905 1367 882 b 1494 770 1443 826 1473 798 b 1546 679 1516 742 1533 712 b 1572 590 1560 646 1568 616 b 1578 508 1576 564 1578 536 l 1578 468 b 1572 387 1578 441 1576 414 b 1546 298 1568 361 1560 332 b 1495 205 1533 264 1516 234 b 1406 120 1474 177 1445 149 b 1273 49 1368 92 1323 68 b 1084 1 1223 29 1160 13 b 833 -17 1009 -11 925 -17 l 788 -17 b 536 1 696 -17 612 -11 b 346 49 460 13 397 29 b 213 120 296 68 252 92 b 124 205 175 149 145 177 b 72 298 102 234 85 264 b 47 387 59 332 51 361 b 42 468 44 414 42 441 l 42 508 b 47 589 42 536 44 564 b 72 678 51 615 59 645 b 124 770 85 712 102 742 b 213 854 145 798 175 826 b 346 924 251 882 295 905 b 536 971 397 944 460 959 b 788 988 612 982 696 988 m 1230 499 b 1220 568 1230 523 1227 546 b 1182 636 1214 590 1201 612 b 1108 696 1163 659 1138 679 b 984 737 1077 712 1036 726 b 838 753 941 746 892 751 b 793 753 826 753 801 753 b 389 499 524 748 389 663 l 389 483 b 407 394 389 451 395 422 b 467 310 419 366 439 338 b 600 244 496 283 540 260 b 798 219 655 229 721 220 b 832 219 805 219 822 219 b 1017 243 904 221 965 229 b 1151 308 1077 259 1121 281 b 1212 391 1180 336 1201 364 b 1230 480 1224 419 1230 449 "},"P":{"ha":1401,"x_min":0,"x_max":0,"o":"m 415 323 l 415 0 l 83 0 l 83 971 l 878 971 b 1372 655 1207 971 1372 866 l 1372 642 b 878 323 1372 430 1207 323 m 415 542 l 872 542 b 1026 644 975 542 1026 576 l 1026 647 b 872 751 1026 716 975 751 l 415 751 "},"Q":{"ha":1546,"x_min":0,"x_max":0,"o":"m 1498 623 b 1504 539 1502 597 1504 569 l 1504 499 b 1498 416 1504 471 1502 443 b 1474 325 1495 390 1487 359 b 1426 230 1461 291 1445 259 b 1361 159 1410 207 1388 183 l 1447 72 l 1251 -124 l 1095 33 b 1039 21 1077 29 1059 25 b 802 3 968 9 889 3 l 744 3 b 507 21 658 3 579 9 b 329 70 436 34 376 50 b 203 143 281 90 239 114 b 119 230 167 172 139 201 b 70 325 99 259 83 291 b 47 416 58 359 51 390 b 42 499 43 443 42 471 l 42 539 b 47 623 42 569 43 597 b 70 714 51 649 58 679 b 119 808 83 748 99 779 b 203 893 139 836 167 865 b 328 965 238 922 280 946 b 507 1013 376 985 436 1001 b 744 1031 579 1025 658 1031 l 802 1031 b 1038 1013 889 1031 967 1025 b 1216 965 1109 1001 1168 985 b 1341 893 1264 946 1305 922 b 1425 808 1377 865 1405 836 b 1474 714 1445 779 1461 748 b 1498 623 1487 680 1495 650 m 1139 381 b 1159 420 1147 394 1154 407 b 1176 511 1171 449 1176 479 l 1176 530 b 1167 601 1176 555 1173 579 b 1131 670 1161 623 1149 646 b 1061 732 1113 694 1090 715 b 944 774 1032 749 993 763 b 773 790 895 785 838 790 b 369 530 503 790 369 704 l 369 514 b 386 423 369 482 374 452 b 443 338 397 395 416 366 b 567 270 469 309 511 287 b 773 244 624 253 692 244 b 878 250 810 244 845 246 l 803 325 l 999 521 "},"R":{"ha":1343,"x_min":0,"x_max":0,"o":"m 1228 405 b 1278 263 1262 369 1278 322 l 1278 0 l 976 0 l 976 171 b 931 299 976 230 961 273 b 776 339 901 326 850 339 l 384 339 l 384 0 l 83 0 l 83 956 l 858 956 b 1275 708 1136 956 1275 873 l 1275 693 b 1096 483 1275 592 1215 522 b 1228 405 1151 468 1195 442 m 961 646 b 931 713 961 674 951 696 b 840 739 911 730 881 739 l 384 739 l 384 551 l 840 551 b 931 577 881 551 911 560 b 961 645 951 594 961 617 "},"S":{"ha":1432,"x_min":0,"x_max":0,"o":"m 667 -17 b 390 7 561 -17 469 -9 b 208 67 312 24 251 44 b 106 153 165 91 131 119 b 58 244 81 187 65 217 b 47 330 51 271 47 300 l 47 344 l 393 344 b 678 190 401 242 476 190 l 755 190 b 893 199 821 190 849 193 b 989 223 937 204 969 212 b 1028 255 1008 233 1022 244 b 1038 293 1035 266 1038 279 b 1021 343 1038 314 1033 331 b 942 375 1010 355 983 366 b 761 391 900 384 839 390 l 656 394 l 578 395 b 61 680 234 404 61 499 l 61 692 b 74 779 61 723 66 752 b 126 858 83 805 100 832 b 226 926 151 885 185 907 b 393 971 267 944 323 959 b 638 988 464 982 545 988 l 736 988 b 993 970 833 988 919 982 b 1170 923 1067 958 1126 942 b 1278 853 1214 904 1250 880 b 1336 770 1306 825 1326 797 b 1352 681 1346 742 1352 713 l 1352 668 l 1007 668 b 999 695 1005 679 1003 688 b 976 724 996 703 988 712 b 927 755 963 737 947 747 b 838 775 907 762 878 769 b 717 785 799 782 769 785 l 667 785 b 494 771 587 785 537 780 b 417 742 452 762 426 752 b 403 701 408 732 403 718 b 418 660 403 684 408 671 b 489 632 428 650 452 640 b 648 617 527 623 580 618 l 726 616 l 826 615 b 1254 541 1024 611 1166 587 b 1386 326 1342 495 1386 424 l 1386 308 b 1373 212 1386 272 1382 240 b 1320 125 1364 183 1347 155 b 1214 50 1294 95 1258 70 b 1033 1 1170 30 1110 14 b 765 -17 957 -11 867 -17 l 667 -17 "},"T":{"ha":1276,"x_min":0,"x_max":0,"o":"m 470 741 l 14 741 l 14 971 l 1261 971 l 1261 741 l 804 741 l 804 0 l 470 0 "},"U":{"ha":1524,"x_min":0,"x_max":0,"o":"m 1441 978 l 1441 510 b 1426 387 1441 470 1436 429 b 1367 253 1416 346 1396 301 b 1255 127 1338 205 1300 163 b 1067 36 1209 91 1147 60 b 792 0 987 12 896 0 l 741 0 b 527 19 663 0 591 6 b 363 69 462 31 407 48 b 245 144 318 89 279 114 b 164 233 211 173 184 203 b 115 330 144 263 128 296 b 90 425 102 365 94 396 b 83 510 85 453 83 482 l 83 978 l 415 978 l 415 529 b 430 432 415 494 420 462 b 480 344 440 402 457 373 b 589 275 504 315 540 292 b 764 250 638 258 696 250 b 936 275 831 250 889 258 b 1044 344 984 292 1020 315 b 1095 432 1068 373 1085 402 b 1110 529 1105 462 1110 494 l 1110 978 "},"Ú":{"ha":1524,"x_min":0,"x_max":0,"o":"m 1110 978 l 1110 529 b 1095 432 1110 494 1105 462 b 1044 344 1085 402 1068 373 b 936 275 1020 315 984 292 b 764 250 889 258 831 250 b 589 275 696 250 638 258 b 480 344 540 292 504 315 b 430 432 457 373 440 402 b 415 529 420 462 415 494 l 415 978 l 83 978 l 83 510 b 90 425 83 482 85 453 b 115 330 94 396 102 365 b 164 233 128 296 144 263 b 245 144 184 203 211 173 b 363 69 279 114 318 89 b 527 19 407 48 462 31 b 741 0 591 6 663 0 l 792 0 b 1067 36 896 0 987 12 b 1255 127 1147 60 1209 91 b 1367 253 1300 163 1338 205 b 1426 387 1396 301 1416 346 b 1441 510 1436 429 1441 470 l 1441 978 "},"V":{"ha":1454,"x_min":0,"x_max":0,"o":"m 541 12 l -3 971 l 368 971 l 754 266 l 1115 971 l 1455 971 l 949 12 "},"W":{"ha":2038,"x_min":0,"x_max":0,"o":"m 432 12 l 1 971 l 358 971 l 628 311 l 818 811 l 1241 811 l 1449 331 l 1714 971 l 2036 971 l 1612 12 l 1282 12 l 1059 581 l 1004 581 l 793 12 "},"X":{"ha":1454,"x_min":0,"x_max":0,"o":"m 0 12 l 520 497 l 11 971 l 450 971 l 745 690 l 1040 971 l 1442 971 l 940 503 l 1454 12 l 1042 12 l 721 310 l 403 12 "},"Y":{"ha":1414,"x_min":0,"x_max":0,"o":"m 550 383 l -10 971 l 397 971 l 721 618 l 1052 971 l 1421 971 l 877 383 l 877 12 l 550 12 "},"Z":{"ha":1269,"x_min":0,"x_max":0,"o":"m 1218 971 l 1218 796 l 501 239 l 1228 239 l 1228 12 l 40 12 l 40 189 l 739 750 l 52 750 l 52 971 "},"[":{"ha":467,"x_min":0,"x_max":0,"o":"m 83 963 l 417 963 l 417 842 l 289 842 l 289 55 l 417 55 l 417 -66 l 83 -66 "},"\\":{"ha":632,"x_min":0,"x_max":0,"o":"m 19 963 l 224 963 l 637 -66 l 436 -66 "},"]":{"ha":467,"x_min":0,"x_max":0,"o":"m 49 55 l 176 55 l 176 842 l 49 842 l 49 963 l 382 963 l 382 -66 l 49 -66 "},"^":{"ha":876,"x_min":0,"x_max":0,"o":"m 439 743 l 266 535 l 22 535 l 309 882 l 567 882 l 854 535 l 612 535 "},"_":{"ha":1011,"x_min":0,"x_max":0,"o":"m 18 44 l 992 44 l 992 -99 l 18 -99 "},"`":{"ha":432,"x_min":0,"x_max":0,"o":"m 150 680 l 22 848 l 299 848 l 407 680 "},"a":{"ha":1117,"x_min":0,"x_max":0,"o":"m 1088 188 l 1088 -7 l 844 -7 b 730 92 779 -7 741 26 b 616 15 708 64 670 38 b 395 -21 562 -9 489 -21 l 378 -21 b 124 46 264 -21 180 1 b 42 215 69 91 42 147 l 42 224 b 112 374 42 290 65 340 b 346 440 159 408 237 430 l 676 471 b 722 508 707 474 722 487 b 713 536 722 520 719 529 b 660 557 708 543 690 550 b 534 567 631 564 589 567 l 42 566 l 42 733 l 565 733 b 772 718 645 733 714 728 b 904 682 829 708 873 696 b 975 627 934 668 958 649 b 1006 566 992 604 1002 583 b 1011 500 1009 548 1011 526 l 1011 224 b 1049 188 1011 200 1024 188 m 722 335 l 436 291 b 351 268 395 285 367 277 b 327 224 335 258 327 244 l 327 223 b 358 165 327 201 337 181 b 459 141 378 149 412 141 b 648 193 536 141 599 159 b 722 313 697 228 722 268 "},"b":{"ha":1333,"x_min":0,"x_max":0,"o":"m 387 981 l 387 615 b 769 730 493 692 620 730 l 795 730 b 1151 633 958 730 1076 698 b 1262 378 1225 568 1262 483 l 1262 354 b 1234 217 1262 305 1253 260 b 1151 104 1216 175 1188 138 b 1002 25 1114 71 1065 44 b 785 -5 940 5 867 -5 l 761 -5 b 521 35 666 -5 586 9 b 383 111 456 62 410 87 b 363 12 376 91 369 58 l 71 12 l 71 981 m 387 363 b 460 236 387 315 412 273 b 663 180 508 199 576 180 l 671 180 b 875 234 765 180 833 198 b 938 363 917 270 938 313 l 938 368 b 876 497 938 420 917 463 b 671 549 834 532 766 549 l 663 549 b 458 496 574 549 506 531 b 387 368 411 460 387 417 "},"c":{"ha":1290,"x_min":0,"x_max":0,"o":"m 603 -5 b 381 18 520 -5 446 3 b 227 77 316 33 265 53 b 133 162 189 101 158 129 b 84 259 109 195 92 227 b 71 356 75 290 71 322 l 71 382 b 84 479 71 416 75 448 b 133 574 92 510 108 542 b 226 656 157 606 188 633 b 380 713 265 679 316 698 b 602 735 445 728 519 735 l 683 735 b 921 712 774 735 853 727 b 1078 655 989 696 1042 677 b 1167 577 1115 633 1144 607 b 1210 497 1190 547 1204 520 b 1219 429 1216 474 1219 452 l 1219 425 l 894 425 b 642 551 873 509 788 551 l 637 551 b 452 503 552 551 490 535 b 395 378 414 470 395 429 l 395 369 b 453 236 395 316 414 272 b 637 182 492 200 553 182 l 642 182 b 894 311 787 182 872 225 l 1219 311 l 1219 308 b 1211 237 1219 284 1217 260 b 1170 156 1205 214 1191 187 b 1082 77 1148 125 1119 99 b 924 20 1046 55 993 36 b 681 -5 855 3 774 -5 l 603 -5 "},"d":{"ha":1335,"x_min":0,"x_max":0,"o":"m 1263 981 l 1263 12 l 948 12 l 948 119 b 913 87 941 110 929 99 b 845 48 897 76 874 62 b 728 10 815 33 776 20 b 571 -5 680 0 627 -5 l 552 -5 b 191 96 391 -5 271 29 b 71 356 111 164 71 250 l 71 381 b 184 632 71 483 109 567 b 539 730 260 697 378 730 l 562 730 b 945 619 726 730 854 693 l 945 981 m 945 367 b 867 493 945 415 919 457 b 656 546 815 529 745 546 l 649 546 b 453 496 557 546 492 529 b 395 367 414 462 395 419 l 395 361 b 458 234 395 313 416 270 b 652 180 501 198 565 180 l 659 180 b 869 234 748 180 818 198 b 945 361 920 270 945 313 l 945 367 "},"e":{"ha":1289,"x_min":0,"x_max":0,"o":"m 1214 259 b 1204 195 1214 237 1210 216 b 1160 125 1197 173 1183 150 b 1072 59 1137 100 1108 78 b 919 12 1036 41 985 25 b 690 -7 853 0 777 -7 l 609 -7 b 353 23 510 -7 425 3 b 186 104 281 42 226 69 b 99 217 146 139 117 177 b 71 352 80 258 71 303 l 71 380 b 96 512 71 428 79 472 b 179 623 113 552 141 589 b 344 704 218 657 273 684 b 600 733 416 723 501 733 l 687 733 b 1218 356 1041 733 1218 607 l 1218 307 l 382 307 b 652 171 403 216 492 171 l 653 171 b 759 178 693 171 728 173 b 830 197 789 184 813 190 b 872 222 847 205 861 213 b 894 244 883 231 891 239 b 901 260 898 250 900 255 l 1214 260 l 1214 259 m 642 570 b 387 452 498 570 413 531 l 899 452 b 643 570 876 531 791 570 "},"f":{"ha":783,"x_min":0,"x_max":0,"o":"m 589 801 b 541 788 565 801 550 797 b 529 744 533 779 529 764 l 529 705 l 713 705 l 713 512 l 529 512 l 529 4 l 217 4 l 217 512 l 71 512 l 71 705 l 217 705 l 217 788 b 483 973 217 911 306 973 l 713 973 l 713 801 "},"g":{"ha":1303,"x_min":0,"x_max":0,"o":"m 1231 738 l 1231 111 b 1221 15 1231 79 1228 47 b 1176 -94 1214 -18 1200 -54 b 1085 -199 1153 -134 1122 -170 b 928 -275 1048 -229 996 -254 b 691 -306 859 -295 781 -306 l 19 -306 l 19 -98 l 677 -98 b 913 121 834 -88 913 -15 b 538 6 826 45 701 6 l 521 6 b 143 109 351 6 225 40 b 19 372 60 177 19 265 l 19 400 b 131 655 19 503 57 588 b 481 756 205 722 322 756 l 511 756 b 911 635 691 756 824 716 l 911 738 m 905 383 b 831 507 905 433 881 474 b 615 557 782 540 709 557 l 607 557 b 404 509 512 557 445 541 b 344 386 364 476 344 435 l 344 379 b 407 253 344 330 365 288 b 607 201 450 219 516 201 l 615 201 b 831 253 709 201 782 219 b 905 377 881 288 905 329 "},"h":{"ha":1217,"x_min":0,"x_max":0,"o":"m 71 973 l 387 973 l 387 587 b 764 720 484 676 609 720 l 774 720 b 1052 640 897 720 989 693 b 1146 447 1114 587 1146 522 l 1146 4 l 826 4 l 826 350 b 775 479 826 406 809 449 b 622 525 741 510 690 525 b 451 473 551 525 494 507 b 387 335 409 438 387 392 l 387 4 l 71 4 "},"i":{"ha":458,"x_min":0,"x_max":0,"o":"m 387 772 l 71 772 l 71 973 l 387 973 m 387 4 l 71 4 l 71 705 l 387 705 "},"j":{"ha":456,"x_min":0,"x_max":0,"o":"m 53 681 l 383 681 l 383 -195 b 342 -350 383 -265 370 -316 b 232 -400 314 -383 278 -400 l -324 -400 l -324 -168 l 6 -169 b 43 -157 24 -169 36 -165 b 53 -113 50 -150 53 -135 m 53 757 l 53 984 l 383 984 l 383 757 "},"k":{"ha":1088,"x_min":0,"x_max":0,"o":"m 71 973 l 387 973 l 387 425 l 697 705 l 1048 705 l 687 388 l 1092 4 l 720 4 l 387 326 l 387 4 l 71 4 "},"l":{"ha":458,"x_min":0,"x_max":0,"o":"m 387 4 l 71 4 l 71 973 l 387 973 "},"m":{"ha":1882,"x_min":0,"x_max":0,"o":"m 71 708 l 385 708 l 385 587 b 748 723 484 678 605 723 l 758 723 b 1063 584 906 723 1007 677 b 1448 723 1165 677 1293 723 l 1459 723 b 1723 643 1577 723 1665 696 b 1811 450 1782 589 1811 525 l 1811 7 l 1492 7 l 1492 354 b 1319 528 1492 470 1434 528 b 1159 475 1252 528 1198 510 b 1100 338 1120 439 1100 394 l 1100 7 l 781 7 l 781 354 b 606 528 781 470 722 528 b 446 475 539 528 486 510 b 387 338 407 439 387 394 l 387 7 l 71 7 "},"n":{"ha":1217,"x_min":0,"x_max":0,"o":"m 385 708 l 385 588 b 764 723 483 678 609 723 l 774 723 b 1053 643 898 723 991 697 b 1146 450 1115 590 1146 525 l 1146 7 l 826 7 l 826 354 b 775 482 826 409 809 452 b 622 528 741 513 690 528 b 451 476 551 528 494 511 b 387 338 409 441 387 395 l 387 7 l 71 7 l 71 708 "},"o":{"ha":1282,"x_min":0,"x_max":0,"o":"m 591 -3 b 365 20 506 -3 430 4 b 206 78 299 35 246 54 b 108 162 167 101 134 129 b 56 259 83 195 65 228 b 42 359 46 291 42 324 l 42 382 b 56 481 42 417 46 450 b 108 576 65 513 83 544 b 205 659 133 608 165 636 b 363 715 245 682 297 701 b 590 736 429 729 504 736 l 690 736 b 1237 382 1055 736 1237 618 l 1237 359 b 690 -3 1237 117 1055 -3 m 641 186 b 852 239 739 186 810 203 b 916 367 895 275 916 317 l 916 373 b 852 499 916 424 895 466 b 642 550 810 533 740 550 l 641 550 b 429 500 541 550 471 534 b 365 373 386 467 365 424 l 365 367 b 429 239 365 317 387 275 b 641 186 472 203 542 186 "},"p":{"ha":1333,"x_min":0,"x_max":0,"o":"m 387 718 l 387 618 b 775 735 485 696 614 735 l 801 735 b 1019 708 885 735 957 726 b 1162 631 1080 690 1127 664 b 1238 520 1196 598 1222 561 b 1262 384 1254 479 1262 434 l 1262 359 b 1237 225 1262 310 1254 265 b 1159 111 1221 184 1195 146 b 1012 30 1124 77 1075 49 b 791 1 950 10 876 1 l 768 1 b 522 41 670 1 588 14 b 387 117 455 68 410 93 l 387 -227 l 71 -227 l 71 718 m 387 368 b 461 240 387 319 412 277 b 670 186 510 204 580 186 l 677 186 b 877 239 770 186 837 203 b 938 368 918 275 938 318 l 938 373 b 878 503 938 425 918 468 b 677 554 838 537 771 554 l 670 554 b 459 501 577 554 507 536 b 387 373 411 465 387 423 "},"q":{"ha":1333,"x_min":0,"x_max":0,"o":"m 1262 718 l 1262 -227 l 945 -227 l 945 114 b 889 69 930 98 911 83 b 768 24 866 55 826 40 b 572 1 710 8 645 1 l 561 1 b 190 101 393 1 270 34 b 71 361 111 168 71 255 l 71 386 b 186 637 71 489 109 572 b 544 735 262 703 382 735 l 563 735 b 948 623 720 735 848 698 b 975 718 961 644 970 676 m 945 373 b 868 499 945 422 920 464 b 656 552 816 534 746 552 l 649 552 b 453 501 557 552 492 535 b 395 372 414 467 395 424 l 395 367 b 456 238 395 317 415 274 b 652 184 497 202 563 184 l 659 184 b 869 240 748 184 818 203 b 945 368 920 277 945 319 l 945 373 "},"r":{"ha":1015,"x_min":0,"x_max":0,"o":"m 988 740 l 988 574 b 530 570 988 574 566 575 b 411 501 493 566 439 534 b 369 378 383 468 369 426 l 369 7 l 71 7 l 71 724 l 367 724 l 367 598 b 414 654 379 616 395 635 b 509 711 432 672 464 691 b 659 740 554 730 604 740 "},"s":{"ha":1131,"x_min":0,"x_max":0,"o":"m 530 -16 b 39 232 203 -16 39 67 l 39 240 l 365 240 b 561 145 365 177 431 145 l 564 145 b 693 156 619 145 662 149 b 750 179 723 163 743 170 b 762 212 758 188 762 199 l 762 214 b 730 259 762 234 751 249 b 594 275 708 268 663 274 l 458 278 b 254 300 378 280 310 287 b 126 352 198 313 155 331 b 64 420 97 374 77 397 b 46 497 52 443 46 469 l 46 505 b 55 570 46 529 49 551 b 95 628 61 589 75 608 b 177 678 115 648 143 665 b 317 710 211 691 258 702 b 529 723 377 719 447 723 l 585 723 b 1064 503 904 723 1064 650 l 1064 494 l 742 494 b 733 517 740 503 737 510 b 710 539 729 524 722 531 b 653 559 699 547 680 554 b 553 566 626 563 593 566 l 551 566 b 407 554 479 566 431 562 b 370 514 382 546 370 533 l 370 511 b 404 471 370 494 381 481 b 530 455 426 462 469 457 l 666 453 b 933 423 781 451 870 441 b 1060 352 997 404 1039 381 b 1092 232 1082 323 1092 283 l 1092 225 b 1072 132 1092 189 1085 158 b 999 57 1058 105 1034 80 b 844 3 965 33 913 15 b 588 -16 775 -10 690 -16 l 530 -16 "},"t":{"ha":754,"x_min":0,"x_max":0,"o":"m 409 7 b 220 206 283 7 220 74 l 220 515 l 71 515 l 71 708 l 220 708 l 220 912 l 532 912 l 532 708 l 683 708 l 683 515 l 532 515 l 532 261 b 545 215 532 240 537 225 b 596 200 554 205 571 200 l 683 200 l 683 7 l 409 7 "},"u":{"ha":1201,"x_min":0,"x_max":0,"o":"m 816 11 l 816 132 b 784 104 800 118 789 109 b 735 71 778 99 762 88 b 659 33 708 54 683 41 b 566 8 636 24 605 16 b 446 -5 528 0 487 -5 l 434 -5 b 162 79 313 -5 222 23 b 71 275 101 135 71 201 l 71 712 l 390 712 l 390 365 b 439 238 390 311 407 269 b 586 191 472 206 521 191 b 752 243 655 191 710 208 b 813 381 793 278 813 324 l 813 712 l 1130 712 l 1130 11 "},"v":{"ha":1190,"x_min":0,"x_max":0,"o":"m 14 704 l 355 704 l 600 225 l 839 704 l 1157 704 l 783 3 l 403 3 "},"w":{"ha":1710,"x_min":0,"x_max":0,"o":"m 1690 710 l 1391 3 l 1051 3 l 894 389 l 828 389 l 671 3 l 339 3 l 18 710 l 352 710 l 529 258 l 624 505 l 652 577 l 1093 577 l 1110 534 l 1220 258 l 1391 710 "},"x":{"ha":1210,"x_min":0,"x_max":0,"o":"m 427 359 l 41 704 l 414 704 l 614 520 l 814 704 l 1169 704 l 786 364 l 1182 3 l 824 3 l 600 204 l 380 3 l 28 3 "},"y":{"ha":1131,"x_min":0,"x_max":0,"o":"m 1125 684 l 733 -110 b 616 -271 696 -184 657 -238 b 457 -321 575 -304 522 -321 l 6 -321 l 6 -99 l 361 -99 b 398 -76 386 -99 398 -91 b 363 3 398 -68 386 -41 l 6 684 l 339 684 l 580 180 l 813 684 "},"z":{"ha":1101,"x_min":0,"x_max":0,"o":"m 71 3 l 71 173 l 589 515 l 71 515 l 71 704 l 1028 704 l 1028 541 l 485 197 l 1031 197 l 1031 3 "},"{":{"ha":508,"x_min":0,"x_max":0,"o":"m 302 -77 b 143 -47 231 -77 178 -67 b 91 48 109 -27 91 5 b 142 201 91 81 108 132 b 193 328 176 270 193 312 b 139 379 193 362 175 379 l 64 379 l 64 501 l 139 501 b 193 543 175 501 193 515 b 142 670 193 561 176 603 b 91 819 108 737 91 787 b 302 952 91 908 161 952 l 451 952 l 451 831 l 359 831 b 306 789 324 831 306 817 b 345 676 306 773 319 735 b 384 554 371 617 384 577 b 358 481 384 523 376 498 b 271 441 341 463 312 450 b 358 406 312 433 341 421 b 384 343 376 390 384 369 b 345 212 384 318 371 274 b 306 96 319 150 306 111 b 369 44 306 62 327 44 l 451 44 l 451 -77 l 302 -77 "},"|":{"ha":360,"x_min":0,"x_max":0,"o":"m 276 -67 l 83 -67 l 83 962 l 276 962 "},"}":{"ha":508,"x_min":0,"x_max":0,"o":"m 139 55 b 202 107 181 55 202 72 b 163 223 202 122 189 161 b 125 353 138 285 125 328 b 150 416 125 380 133 401 b 237 452 167 432 196 444 b 151 491 197 461 168 474 b 125 565 134 509 125 533 b 163 687 125 587 138 628 b 202 799 189 746 202 783 b 149 842 202 828 184 842 l 57 842 l 57 963 l 206 963 b 417 830 346 963 417 918 b 366 681 417 798 400 748 b 315 554 332 614 315 571 b 369 512 315 526 333 512 l 444 512 l 444 389 l 369 389 b 315 339 333 389 315 373 b 366 211 315 323 332 280 b 417 59 400 142 417 91 b 365 -36 417 15 399 -16 b 206 -66 330 -56 277 -66 l 57 -66 l 57 55 "},"~":{"ha":831,"x_min":0,"x_max":0,"o":"m 616 316 b 510 330 574 316 539 320 b 383 386 481 339 439 358 b 290 423 333 410 302 422 b 278 424 286 424 282 424 b 245 388 256 424 245 412 l 245 294 l 46 294 l 46 436 b 86 560 46 484 59 526 b 219 610 113 593 157 610 b 302 600 247 610 275 607 b 364 580 330 593 350 587 b 446 541 378 574 405 561 b 555 499 506 513 542 499 b 585 534 575 499 585 510 l 585 635 l 784 635 l 784 467 b 744 360 784 425 771 390 b 616 316 717 330 675 316 "}," ":{"ha":744,"x_min":0,"x_max":0,"o":""},"¡":{"ha":468,"x_min":0,"x_max":0,"o":"m 100 627 l 100 820 l 368 820 l 368 627 m 384 0 l 83 0 l 160 571 l 308 571 "},"¢":{"ha":1069,"x_min":0,"x_max":0,"o":"m 660 594 b 587 612 640 603 615 609 l 587 306 b 734 412 670 316 719 351 l 986 412 l 986 410 b 983 370 986 396 985 383 b 970 323 981 357 977 341 b 943 273 963 305 954 288 b 896 226 932 258 916 242 b 825 185 876 210 852 197 b 723 157 797 174 763 165 b 587 145 682 150 637 146 l 587 77 l 476 77 l 476 145 b 280 178 399 147 334 158 b 158 254 225 197 185 222 b 100 348 131 285 112 316 b 83 450 89 380 83 414 l 83 472 b 93 552 83 500 86 527 b 129 630 99 578 111 604 b 198 700 147 657 170 681 b 312 750 226 720 264 737 b 476 771 359 763 414 770 l 476 839 l 587 839 l 587 771 b 739 756 643 770 694 765 b 848 719 783 747 820 735 b 919 670 876 704 899 687 b 961 613 938 653 952 634 b 981 559 970 593 977 575 b 986 512 984 543 986 527 l 986 509 l 734 509 b 724 533 731 518 728 526 b 705 562 721 540 714 549 b 660 594 695 575 680 586 m 476 612 b 369 563 427 606 391 589 b 336 469 347 537 336 506 l 336 461 b 369 361 336 422 347 389 b 476 306 391 332 427 314 "},"£":{"ha":1094,"x_min":0,"x_max":0,"o":"m 1011 277 l 1011 0 l 83 0 l 83 169 l 138 169 b 222 187 175 169 203 175 b 251 247 241 198 251 219 l 251 250 b 229 342 251 271 243 302 l 83 342 l 83 457 l 187 457 b 170 558 175 496 170 530 l 170 565 b 187 652 170 596 175 625 b 244 729 198 679 218 705 b 363 788 271 754 311 774 b 554 810 416 802 480 810 l 598 810 b 739 799 650 810 697 806 b 842 772 780 792 815 783 b 912 730 869 761 892 747 b 957 683 932 714 947 698 b 981 629 967 668 975 650 b 992 578 987 609 991 592 b 993 531 993 565 993 549 l 993 522 l 744 522 b 582 641 738 601 684 641 b 415 516 471 641 415 599 b 423 457 415 503 418 483 l 799 457 l 799 342 l 448 342 b 454 290 452 319 454 302 b 379 169 454 239 429 198 l 755 169 l 755 277 "},"¤":{"ha":1047,"x_min":0,"x_max":0,"o":"m 932 376 b 882 223 932 320 916 269 l 964 160 l 808 39 l 727 101 b 524 61 667 75 599 62 b 321 101 449 62 381 75 l 240 39 l 83 160 l 165 223 b 116 376 132 268 116 320 b 165 530 116 432 133 484 l 83 592 l 240 713 l 321 651 b 524 691 381 678 449 691 b 524 691 524 691 524 691 b 726 651 599 691 667 677 l 808 713 l 964 592 l 882 529 b 932 376 915 484 932 433 m 651 279 b 702 376 685 305 702 337 b 651 473 702 415 685 447 b 524 513 616 500 574 513 b 397 474 473 513 431 500 b 346 376 363 447 346 415 b 397 278 346 337 363 305 b 524 239 431 252 473 239 b 651 279 574 239 616 252 "},"¥":{"ha":1239,"x_min":0,"x_max":0,"o":"m 823 414 l 1040 414 l 1040 319 l 752 319 l 752 260 l 1040 260 l 1040 166 l 752 166 l 752 0 l 498 0 l 498 166 l 210 166 l 210 260 l 498 260 l 498 319 l 210 319 l 210 414 l 427 414 l 83 800 l 393 800 l 631 521 l 873 800 l 1155 800 "},"§":{"ha":1136,"x_min":0,"x_max":0,"o":"m 987 716 b 1052 580 1031 682 1052 637 l 1052 569 b 902 410 1052 491 1002 439 b 987 259 959 378 987 327 l 987 248 b 597 27 987 100 857 27 l 550 27 b 119 276 263 27 119 110 l 119 279 l 372 279 b 380 246 374 266 376 256 b 404 214 384 237 391 227 b 465 186 416 202 436 193 b 572 175 494 179 530 175 l 580 175 b 734 235 683 175 734 195 l 734 237 b 728 266 734 249 732 258 b 692 289 724 273 712 281 b 607 311 673 298 644 305 l 391 344 b 152 425 278 361 199 388 b 83 564 106 463 83 509 l 83 574 b 126 673 83 614 98 647 b 236 725 155 698 192 715 b 147 880 177 757 147 809 l 147 891 b 181 999 147 935 159 970 b 307 1067 204 1027 246 1050 b 552 1093 368 1084 450 1093 l 598 1093 b 779 1078 667 1093 727 1088 b 897 1042 830 1068 869 1056 b 963 987 925 1027 947 1009 b 994 926 979 965 989 945 b 1000 863 998 907 1000 886 l 1000 859 l 748 859 b 573 948 741 918 683 948 l 565 948 b 455 940 517 948 481 945 b 407 921 429 935 413 928 b 398 892 401 914 398 904 l 398 890 b 421 850 398 873 405 860 b 528 822 437 839 473 830 l 748 791 b 987 716 863 774 943 749 m 759 464 b 801 533 787 480 801 503 b 778 586 801 555 793 572 b 694 616 762 600 734 610 b 375 671 512 643 406 661 b 334 602 348 656 334 633 b 358 549 334 580 342 563 b 444 518 374 535 403 525 b 759 464 639 486 745 468 "},"©":{"ha":1396,"x_min":0,"x_max":0,"o":"m 702 311 b 862 396 795 311 849 340 l 1075 396 l 1075 389 b 1069 342 1075 373 1073 358 b 1041 288 1065 327 1056 309 b 983 235 1027 268 1007 250 b 878 197 959 221 924 208 b 716 181 832 187 778 181 l 687 181 b 530 198 628 181 575 187 b 425 240 485 210 450 224 b 364 300 400 257 380 277 b 334 364 349 323 339 344 b 328 424 330 383 328 403 l 328 442 b 333 492 328 460 330 477 b 351 545 336 508 342 526 b 389 596 359 564 372 581 b 453 638 407 611 428 625 b 551 669 478 652 511 662 b 687 680 591 677 637 680 l 716 680 b 879 665 778 680 832 675 b 984 627 925 655 960 642 b 1042 575 1008 613 1028 595 b 1069 523 1056 555 1065 538 b 1073 479 1072 509 1073 494 l 1073 473 l 862 473 b 701 550 848 525 794 550 b 570 521 637 550 594 540 b 534 439 546 501 534 474 l 534 430 b 571 346 534 397 546 369 b 702 311 596 323 640 311 m 1296 568 b 1312 446 1307 530 1312 490 l 1312 415 b 715 7 1312 143 1113 7 l 681 7 b 83 415 282 7 83 143 l 83 446 b 99 568 83 490 89 530 b 157 678 110 605 129 642 b 264 768 185 713 220 743 b 437 828 308 793 366 813 b 682 851 508 844 590 851 l 714 851 b 959 828 806 851 888 844 b 1132 768 1030 813 1088 793 b 1239 678 1175 743 1211 713 b 1296 568 1267 642 1286 605 m 1175 423 l 1175 436 b 1153 561 1175 483 1168 525 b 1080 660 1138 597 1114 630 b 936 728 1046 690 998 712 b 712 751 874 743 799 751 l 684 751 b 459 728 596 751 521 743 b 316 660 398 712 350 690 b 243 561 282 630 257 597 b 221 436 228 525 221 483 l 221 423 b 243 304 221 379 228 340 b 316 205 258 268 283 235 b 460 133 350 174 398 151 b 684 107 522 116 597 107 l 712 107 b 936 133 799 107 873 116 b 1080 205 998 151 1046 174 b 1153 304 1113 235 1137 268 b 1175 423 1168 340 1175 379 "},"ª":{"ha":735,"x_min":0,"x_max":0,"o":"m 652 652 l 652 546 l 520 546 b 458 600 484 546 463 564 b 395 558 445 585 425 571 b 276 539 366 545 326 539 l 266 539 b 128 575 204 539 158 551 b 83 667 98 600 83 630 l 83 672 b 122 754 83 708 96 735 b 249 789 147 772 190 784 l 428 806 b 453 826 445 808 453 815 b 448 842 453 833 452 838 b 420 853 445 846 436 849 b 351 858 404 857 381 858 l 83 858 l 83 949 l 368 949 b 480 941 412 949 449 946 b 552 921 511 935 535 929 b 591 891 568 913 581 903 b 607 858 600 878 605 867 b 610 822 609 848 610 836 l 610 672 b 631 652 610 659 617 652 m 453 720 l 453 733 l 298 709 b 251 696 276 705 260 701 b 238 672 243 691 238 683 l 238 671 b 255 640 238 659 244 649 b 310 627 266 631 285 627 b 413 655 352 627 386 636 b 453 720 440 674 453 696 "},"«":{"ha":731,"x_min":0,"x_max":0,"o":"m 267 465 l 399 278 l 221 278 l 83 465 l 222 650 l 402 650 m 515 465 l 641 278 l 463 278 l 331 465 l 467 650 l 648 650 "},"­":{"ha":0,"x_min":0,"x_max":0,"o":""},"®":{"ha":846,"x_min":0,"x_max":0,"o":"m 755 809 b 763 748 760 789 763 769 l 763 733 b 745 655 763 705 757 679 b 692 585 734 630 716 607 b 592 532 668 563 635 545 b 442 512 549 519 499 512 l 406 512 b 273 525 356 512 312 517 b 180 560 234 534 203 546 b 123 611 157 574 138 592 b 92 670 107 631 97 651 b 83 733 86 690 83 711 l 83 749 b 91 809 83 770 86 789 b 121 868 96 828 106 847 b 178 920 136 888 155 905 b 271 956 201 935 232 946 b 406 969 311 965 355 969 l 444 969 b 578 956 495 969 540 965 b 670 920 617 946 648 935 b 726 868 693 905 711 888 b 755 809 740 847 750 828 m 676 698 b 681 746 679 712 681 728 b 676 791 681 763 679 778 b 656 834 673 804 667 818 b 614 872 646 849 632 862 b 540 897 597 882 572 890 b 426 907 508 903 470 907 l 424 907 b 286 893 368 907 322 902 b 207 854 250 885 223 872 b 174 803 190 837 179 820 b 165 741 168 786 165 766 b 174 682 165 719 168 699 b 207 630 180 665 191 648 b 286 589 223 612 250 599 b 424 575 323 580 369 575 l 426 575 b 540 586 470 575 508 579 b 614 613 572 593 597 602 b 656 653 632 624 646 637 b 676 698 667 669 673 684 m 535 743 b 568 724 549 739 560 732 b 580 689 576 715 580 703 l 580 624 l 506 624 l 506 666 b 495 697 506 680 502 691 b 456 707 487 704 474 707 l 360 707 l 360 624 l 286 624 l 286 859 l 477 859 b 579 798 545 859 579 839 l 579 794 b 535 743 579 769 565 752 m 502 783 b 495 799 502 790 500 795 b 472 806 490 804 482 806 l 360 806 l 360 759 l 472 759 b 495 766 482 759 490 762 b 502 783 500 770 502 776 "},"°":{"ha":600,"x_min":0,"x_max":0,"o":"m 455 992 b 517 845 496 954 517 905 b 455 697 517 785 496 735 b 300 640 414 659 362 640 b 145 697 238 640 187 659 b 83 845 104 735 83 785 b 145 992 83 905 104 954 b 300 1050 187 1031 238 1050 b 455 992 362 1050 414 1031 m 367 781 b 392 846 384 798 392 819 b 367 911 392 872 384 894 b 300 936 350 928 327 936 b 234 911 274 936 252 928 b 208 846 217 894 208 872 b 234 781 208 819 217 798 b 300 756 252 764 274 756 b 367 781 327 756 350 764 "},"²":{"ha":746,"x_min":0,"x_max":0,"o":"m 663 608 l 663 496 l 83 496 l 83 549 b 85 581 83 561 84 572 b 91 616 85 591 88 602 b 105 652 94 629 99 641 b 132 686 112 662 120 674 b 174 719 144 698 158 709 b 234 747 190 729 210 738 b 316 770 258 756 286 764 l 427 793 b 484 810 457 799 476 804 b 497 833 493 816 497 824 b 490 850 497 840 495 846 b 455 863 485 855 474 859 b 378 868 437 866 411 868 b 308 862 350 868 327 866 b 268 843 289 857 276 851 b 251 822 260 835 254 828 b 247 801 249 816 247 809 l 92 801 l 92 807 b 95 845 92 820 93 833 b 116 889 98 858 105 872 b 159 933 126 906 141 921 b 238 964 177 945 203 955 b 360 977 273 973 313 977 l 386 977 b 499 969 429 977 467 974 b 577 947 532 963 558 956 b 624 915 596 939 612 928 b 648 875 636 902 644 889 b 654 831 652 862 654 847 l 654 830 b 647 781 654 811 652 794 b 621 742 643 767 634 755 b 565 711 609 730 590 720 b 471 688 541 702 510 695 l 341 667 b 216 608 258 652 216 632 "},"³":{"ha":764,"x_min":0,"x_max":0,"o":"m 672 741 b 681 694 678 727 681 711 l 681 689 b 396 528 681 582 586 528 l 366 528 b 269 535 331 528 298 530 b 197 554 240 540 216 546 b 147 582 178 562 161 571 b 113 614 132 593 121 604 b 94 648 105 625 99 636 b 85 679 90 660 87 670 b 83 704 84 687 83 695 l 83 709 l 240 709 b 379 637 247 661 294 637 b 446 641 405 637 428 638 b 488 650 465 643 479 647 b 511 663 498 654 505 658 b 521 677 516 669 520 673 b 522 690 522 680 522 685 b 456 727 522 714 500 727 l 288 727 l 288 837 l 448 837 b 510 868 490 837 510 847 b 508 879 510 872 510 876 b 498 890 507 882 504 886 b 475 900 493 894 485 897 b 434 906 466 902 452 904 b 370 909 416 908 395 909 b 308 904 346 909 325 907 b 270 894 291 901 278 897 b 250 878 262 890 255 885 b 242 865 245 871 242 867 b 240 855 241 864 241 860 l 85 855 l 85 861 b 86 884 85 869 85 877 b 95 911 87 891 90 901 b 112 941 99 922 105 932 b 144 969 119 950 130 960 b 192 994 157 979 174 987 b 262 1011 210 1001 233 1007 b 356 1017 290 1015 321 1017 l 383 1017 b 509 1009 431 1017 473 1014 b 593 989 545 1004 573 997 b 639 960 612 981 628 971 b 661 928 651 948 658 937 b 666 895 664 918 666 907 l 666 891 b 642 837 666 869 658 851 b 590 809 627 823 609 814 b 620 797 601 806 611 802 b 649 776 630 792 639 785 b 672 741 659 767 666 755 "},"µ":{"ha":785,"x_min":0,"x_max":0,"o":"m 701 706 l 701 28 l 489 28 l 490 55 b 355 12 455 17 405 12 l 351 12 b 300 17 333 12 316 14 l 300 -202 l 83 -202 l 83 706 l 300 706 l 300 301 b 321 217 300 262 308 233 b 377 198 328 209 342 198 b 450 232 407 198 430 209 b 484 332 473 258 484 290 l 484 706 "},"¶":{"ha":997,"x_min":0,"x_max":0,"o":"m 914 858 l 914 738 l 828 738 l 828 39 l 675 39 l 675 738 l 565 738 l 565 39 l 412 39 l 412 400 l 351 400 b 148 459 258 400 190 420 b 83 619 105 498 83 552 l 83 640 b 142 802 83 710 103 764 b 353 858 181 839 251 858 "},"¹":{"ha":425,"x_min":0,"x_max":0,"o":"m 341 988 l 341 515 l 194 515 l 194 808 l 83 808 l 83 897 b 225 988 153 901 200 932 "},"º":{"ha":796,"x_min":0,"x_max":0,"o":"m 424 968 b 713 770 617 968 713 902 l 713 758 b 424 555 713 623 617 555 l 373 555 b 229 573 317 555 269 561 b 139 623 190 585 159 602 b 96 687 119 644 105 665 b 83 758 88 709 83 733 l 83 770 b 96 840 83 795 88 818 b 139 903 105 862 119 882 b 229 951 159 923 190 939 b 373 968 269 962 317 968 l 424 968 m 527 762 l 527 766 b 497 832 527 793 517 815 b 399 858 476 849 444 858 l 398 858 b 269 766 312 858 269 827 l 269 762 b 299 694 269 735 279 712 b 398 667 319 676 352 667 b 497 694 444 667 477 676 b 527 762 517 712 527 735 "},"»":{"ha":731,"x_min":0,"x_max":0,"o":"m 648 465 l 510 278 l 332 278 l 464 465 l 329 650 l 509 650 m 400 465 l 268 278 l 90 278 l 216 465 l 83 650 l 264 650 "},"¿":{"ha":1064,"x_min":0,"x_max":0,"o":"m 450 637 l 450 830 l 716 830 l 716 637 m 981 275 l 981 262 b 979 215 981 244 980 228 b 968 166 978 203 974 186 b 944 116 962 147 954 130 b 896 72 933 102 917 87 b 821 34 875 56 850 44 b 709 9 792 24 754 16 b 556 0 664 3 613 0 l 494 0 b 317 14 427 0 368 5 b 198 49 267 23 227 35 b 128 102 169 63 145 81 b 92 163 110 123 98 143 b 83 228 86 183 83 205 l 83 236 b 133 372 83 290 100 335 b 296 455 166 408 221 436 l 388 479 b 448 507 420 487 440 496 b 461 556 457 517 461 534 l 461 564 l 713 564 l 713 481 b 678 384 713 440 701 407 b 535 323 655 362 607 341 l 442 300 b 359 268 400 289 373 279 b 339 230 346 257 339 244 b 347 202 339 218 341 209 b 398 182 352 195 369 189 b 525 173 427 176 469 173 b 622 181 562 173 595 176 b 682 199 649 187 670 193 b 713 226 695 205 705 214 b 725 252 720 239 724 247 b 728 275 726 256 727 264 "},"À":{"ha":1774,"x_min":0,"x_max":0,"o":"m 716 1182 l 568 1391 l 905 1391 l 1031 1182 m 1690 5 l 1338 5 l 1240 195 l 533 195 l 435 5 l 83 5 l 641 1044 l 1132 1044 m 1120 430 l 922 811 l 852 811 l 654 430 "},"Â":{"ha":1774,"x_min":0,"x_max":0,"o":"m 793 1182 l 489 1182 l 709 1391 l 1061 1391 l 1285 1182 l 977 1182 l 884 1263 m 1690 5 l 1338 5 l 1240 195 l 533 195 l 435 5 l 83 5 l 641 1044 l 1132 1044 m 1120 430 l 922 811 l 852 811 l 654 430 "},"Ã":{"ha":1774,"x_min":0,"x_max":0,"o":"m 770 1179 l 565 1179 l 565 1292 b 596 1388 565 1329 575 1361 b 705 1429 616 1415 653 1429 l 714 1429 b 893 1388 753 1429 813 1415 b 979 1367 935 1374 964 1367 b 1004 1397 995 1367 1004 1377 l 1004 1439 l 1209 1439 l 1209 1327 b 1178 1231 1209 1290 1198 1257 b 1068 1190 1157 1204 1121 1190 l 1060 1190 b 880 1231 1023 1190 963 1204 b 795 1251 841 1244 813 1251 b 770 1222 778 1251 770 1242 m 1690 5 l 1338 5 l 1240 195 l 533 195 l 435 5 l 83 5 l 641 1044 l 1132 1044 m 1120 430 l 922 811 l 852 811 l 654 430 "},"Ä":{"ha":1774,"x_min":0,"x_max":0,"o":"m 547 1182 l 547 1391 l 859 1391 l 859 1182 m 931 1182 l 931 1391 l 1243 1391 l 1243 1182 m 1690 5 l 1338 5 l 1240 195 l 533 195 l 435 5 l 83 5 l 641 1044 l 1132 1044 m 1120 430 l 922 811 l 852 811 l 654 430 "},"Å":{"ha":1774,"x_min":0,"x_max":0,"o":"m 889 1165 b 618 1330 708 1165 618 1220 b 889 1492 618 1438 709 1492 b 1154 1330 1066 1492 1154 1438 b 889 1165 1154 1220 1066 1165 m 889 1392 b 780 1330 816 1392 780 1372 b 889 1264 780 1286 816 1264 b 994 1330 959 1264 994 1286 b 889 1392 994 1372 959 1392 m 1690 5 l 1338 5 l 1240 195 l 533 195 l 435 5 l 83 5 l 641 1044 l 1132 1044 m 1120 430 l 922 811 l 852 811 l 654 430 "},"Æ":{"ha":2219,"x_min":0,"x_max":0,"o":"m 1359 247 l 2136 247 l 2136 5 l 1037 5 l 1037 187 l 559 187 l 418 5 l 83 5 l 878 1044 l 2122 1044 l 2122 808 l 1359 808 l 1359 655 l 2104 655 l 2104 417 l 1359 417 m 1037 810 l 738 421 l 1037 421 "},"Ç":{"ha":1622,"x_min":0,"x_max":0,"o":"m 1192 424 l 1539 424 l 1539 409 b 1524 314 1539 378 1534 346 b 1463 204 1514 281 1494 245 b 1344 98 1432 164 1392 128 b 1140 19 1295 67 1227 41 b 839 -13 1052 -2 952 -13 l 797 -13 l 797 -64 b 998 -99 895 -64 962 -76 b 1052 -205 1034 -123 1052 -158 l 1052 -210 b 997 -316 1052 -254 1034 -290 b 796 -355 960 -342 893 -355 l 570 -355 l 570 -229 l 718 -229 b 775 -198 756 -229 775 -219 b 718 -166 775 -177 756 -166 l 619 -166 l 619 -3 b 553 7 596 -1 574 3 b 378 58 484 20 426 37 b 253 135 331 79 289 104 b 167 226 217 165 188 195 b 116 325 147 257 130 290 b 90 421 103 360 94 393 b 83 508 85 450 83 479 l 83 548 b 96 676 83 593 88 636 b 153 810 104 716 123 760 b 268 937 182 859 221 901 b 472 1026 316 972 384 1002 b 782 1062 561 1050 664 1062 l 839 1062 b 1143 1031 954 1062 1055 1052 b 1347 954 1231 1010 1299 984 b 1465 849 1395 924 1435 889 b 1524 743 1495 810 1515 774 b 1537 653 1533 712 1537 682 l 1537 638 l 1191 638 b 1180 668 1188 649 1185 659 b 1148 710 1176 677 1166 691 b 1085 759 1131 730 1110 746 b 976 795 1060 772 1024 784 b 810 811 928 806 872 811 b 618 788 735 811 671 803 b 499 724 565 773 526 751 b 442 639 472 697 453 669 b 425 541 431 609 425 577 l 425 525 b 444 428 425 491 432 459 b 504 337 457 397 477 366 b 625 266 531 308 571 284 b 812 240 678 249 740 240 b 1191 420 1026 240 1153 300 b 1192 424 1192 422 1192 423 "},"È":{"ha":1281,"x_min":0,"x_max":0,"o":"m 1197 247 l 1197 5 l 83 5 l 83 1044 l 1183 1044 l 1183 808 l 406 808 l 406 655 l 1164 655 l 1164 417 l 406 417 l 406 247 m 525 1182 l 378 1391 l 714 1391 l 840 1182 "},"É":{"ha":1281,"x_min":0,"x_max":0,"o":"m 1197 247 l 1197 5 l 83 5 l 83 1044 l 1183 1044 l 1183 808 l 406 808 l 406 655 l 1164 655 l 1164 417 l 406 417 l 406 247 m 787 1182 l 472 1182 l 598 1391 l 934 1391 "},"Ê":{"ha":1281,"x_min":0,"x_max":0,"o":"m 1197 247 l 1197 5 l 83 5 l 83 1044 l 1183 1044 l 1183 808 l 406 808 l 406 655 l 1164 655 l 1164 417 l 406 417 l 406 247 m 553 1182 l 249 1182 l 469 1391 l 821 1391 l 1045 1182 l 737 1182 l 644 1263 "},"Ë":{"ha":1281,"x_min":0,"x_max":0,"o":"m 1197 247 l 1197 5 l 83 5 l 83 1044 l 1183 1044 l 1183 808 l 406 808 l 406 655 l 1164 655 l 1164 417 l 406 417 l 406 247 m 299 1182 l 299 1391 l 611 1391 l 611 1182 m 683 1182 l 683 1391 l 995 1391 l 995 1182 "},"Ì":{"ha":635,"x_min":0,"x_max":0,"o":"m 231 1182 l 83 1391 l 420 1391 l 546 1182 m 225 5 l 225 1044 l 552 1044 l 552 5 "},"Í":{"ha":639,"x_min":0,"x_max":0,"o":"m 83 5 l 83 1044 l 410 1044 l 410 5 m 409 1182 l 93 1182 l 219 1391 l 556 1391 "},"Î":{"ha":963,"x_min":0,"x_max":0,"o":"m 388 1182 l 83 1182 l 303 1391 l 655 1391 l 880 1182 l 571 1182 l 479 1263 m 319 5 l 319 1044 l 646 1044 l 646 5 "},"Ï":{"ha":863,"x_min":0,"x_max":0,"o":"m 83 1182 l 83 1391 l 395 1391 l 395 1182 m 268 5 l 268 1044 l 595 1044 l 595 5 m 468 1182 l 468 1391 l 779 1391 l 779 1182 "},"Ñ":{"ha":1519,"x_min":0,"x_max":0,"o":"m 1436 1044 l 1436 5 l 1114 5 l 406 694 l 406 5 l 83 5 l 83 1044 l 448 1044 l 1114 391 l 1114 1044 m 654 1179 l 449 1179 l 449 1292 b 480 1388 449 1329 460 1361 b 589 1429 501 1415 537 1429 l 598 1429 b 777 1388 637 1429 697 1415 b 863 1367 819 1374 848 1367 b 888 1397 880 1367 888 1377 l 888 1439 l 1093 1439 l 1093 1327 b 1062 1231 1093 1290 1083 1257 b 953 1190 1041 1204 1005 1190 l 944 1190 b 765 1231 907 1190 847 1204 b 679 1251 725 1244 697 1251 b 654 1222 662 1251 654 1242 "},"Ò":{"ha":1694,"x_min":0,"x_max":0,"o":"m 1606 639 b 1612 551 1610 611 1612 582 l 1612 509 b 1606 422 1612 479 1610 450 b 1581 327 1602 395 1594 363 b 1530 228 1568 291 1551 258 b 1443 137 1510 197 1481 167 b 1312 60 1405 107 1361 81 b 1126 9 1262 39 1200 22 b 878 -10 1051 -4 969 -10 l 818 -10 b 570 9 727 -10 645 -4 b 383 60 495 22 433 39 b 252 137 334 81 290 107 b 164 228 214 167 185 197 b 113 327 143 258 126 291 b 89 422 101 363 93 395 b 83 509 85 450 83 479 l 83 551 b 89 638 83 582 85 611 b 113 733 93 666 101 697 b 164 832 126 769 143 802 b 252 921 185 861 214 891 b 383 996 289 951 333 976 b 570 1046 433 1017 495 1033 b 818 1065 645 1058 727 1065 l 878 1065 b 1125 1046 969 1065 1051 1058 b 1311 996 1199 1033 1261 1017 b 1442 921 1361 976 1405 951 b 1530 832 1479 891 1509 861 b 1581 734 1551 802 1568 769 b 1606 639 1594 698 1602 667 m 1270 541 b 1260 615 1270 567 1266 592 b 1222 688 1253 638 1241 663 b 1149 752 1203 713 1179 734 b 1027 796 1119 770 1078 784 b 847 813 976 808 916 813 b 425 541 566 813 425 723 l 425 524 b 443 429 425 491 431 459 b 503 340 455 400 475 370 b 633 269 531 310 574 287 b 847 242 692 251 763 242 b 1060 268 931 242 1001 251 b 1191 338 1118 285 1162 309 b 1252 427 1220 367 1240 397 b 1270 522 1264 456 1270 488 m 692 1184 l 545 1394 l 881 1394 l 1007 1184 "},"Ó":{"ha":1694,"x_min":0,"x_max":0,"o":"m 1606 636 b 1612 548 1610 608 1612 579 l 1612 507 b 1606 420 1612 477 1610 448 b 1581 324 1602 392 1594 360 b 1530 225 1568 289 1551 256 b 1443 135 1510 195 1481 165 b 1312 58 1405 104 1361 79 b 1126 7 1262 37 1200 20 b 878 -13 1051 -6 969 -13 l 818 -13 b 570 7 727 -13 645 -6 b 383 58 495 20 433 37 b 252 135 334 79 290 104 b 164 225 214 165 185 195 b 113 324 143 256 126 289 b 89 420 101 360 93 392 b 83 507 85 448 83 477 l 83 548 b 89 636 83 579 85 608 b 113 731 93 663 101 695 b 164 829 126 766 143 799 b 252 918 185 859 214 889 b 383 994 289 948 333 973 b 570 1043 433 1014 495 1031 b 818 1062 645 1056 727 1062 l 878 1062 b 1125 1043 969 1062 1051 1056 b 1311 994 1199 1031 1261 1014 b 1442 918 1361 973 1405 948 b 1530 829 1479 889 1509 859 b 1581 731 1551 799 1568 767 b 1606 636 1594 696 1602 664 m 1270 519 l 1270 539 b 1260 613 1270 565 1266 589 b 1222 685 1253 636 1241 660 b 1149 750 1203 710 1179 732 b 1027 793 1119 767 1078 782 b 847 811 976 805 916 811 b 425 539 566 811 425 720 l 425 522 b 443 427 425 488 431 457 b 503 338 455 397 475 367 b 633 266 531 308 574 284 b 847 240 692 249 763 240 b 1060 266 931 240 1001 249 b 1191 336 1118 283 1162 306 b 1252 424 1220 365 1240 394 b 1270 519 1264 454 1270 486 m 1010 1182 l 695 1182 l 821 1391 l 1157 1391 "},"Ô":{"ha":1694,"x_min":0,"x_max":0,"o":"m 1606 636 b 1612 548 1610 608 1612 579 l 1612 507 b 1606 420 1612 477 1610 448 b 1581 324 1602 392 1594 360 b 1530 225 1568 289 1551 256 b 1443 135 1510 195 1481 165 b 1312 58 1405 104 1361 79 b 1126 7 1262 37 1200 20 b 878 -13 1051 -6 969 -13 l 818 -13 b 570 7 727 -13 645 -6 b 383 58 495 20 433 37 b 252 135 334 79 290 104 b 164 225 214 165 185 195 b 113 324 143 256 126 289 b 89 420 101 360 93 392 b 83 507 85 448 83 477 l 83 548 b 89 636 83 579 85 608 b 113 731 93 663 101 695 b 164 829 126 766 143 799 b 252 918 185 859 214 889 b 383 994 289 948 333 973 b 570 1043 433 1014 495 1031 b 818 1062 645 1056 727 1062 l 878 1062 b 1125 1043 969 1062 1051 1056 b 1311 994 1199 1031 1261 1014 b 1442 918 1361 973 1405 948 b 1530 829 1479 889 1509 859 b 1581 731 1551 799 1568 767 b 1606 636 1594 696 1602 664 m 1270 519 l 1270 539 b 1260 613 1270 565 1266 589 b 1222 685 1253 636 1241 660 b 1149 750 1203 710 1179 732 b 1027 793 1119 767 1078 782 b 847 811 976 805 916 811 b 425 539 566 811 425 720 l 425 522 b 443 427 425 488 431 457 b 503 338 455 397 475 367 b 633 266 531 308 574 284 b 847 240 692 249 763 240 b 1060 266 931 240 1001 249 b 1191 336 1118 283 1162 306 b 1252 424 1220 365 1240 394 b 1270 519 1264 454 1270 486 m 754 1182 l 449 1182 l 669 1391 l 1021 1391 l 1246 1182 l 937 1182 l 845 1263 "},"Õ":{"ha":1694,"x_min":0,"x_max":0,"o":"m 1606 639 b 1612 551 1610 611 1612 582 l 1612 509 b 1606 422 1612 479 1610 450 b 1581 327 1602 395 1594 363 b 1530 228 1568 291 1551 258 b 1443 137 1510 197 1481 167 b 1312 60 1405 107 1361 81 b 1126 9 1262 39 1200 22 b 878 -10 1051 -4 969 -10 l 818 -10 b 570 9 727 -10 645 -4 b 383 60 495 22 433 39 b 252 137 334 81 290 107 b 164 228 214 167 185 197 b 113 327 143 258 126 291 b 89 422 101 363 93 395 b 83 509 85 450 83 479 l 83 551 b 89 638 83 582 85 611 b 113 733 93 666 101 697 b 164 832 126 769 143 802 b 252 921 185 861 214 891 b 383 996 289 951 333 976 b 570 1046 433 1017 495 1033 b 818 1065 645 1058 727 1065 l 878 1065 b 1125 1046 969 1065 1051 1058 b 1311 996 1199 1033 1261 1017 b 1442 921 1361 976 1405 951 b 1530 832 1479 891 1509 861 b 1581 734 1551 802 1568 769 b 1606 639 1594 698 1602 667 m 1270 522 l 1270 541 b 1260 615 1270 567 1266 592 b 1222 688 1253 638 1241 663 b 1149 752 1203 713 1179 734 b 1027 796 1119 770 1078 784 b 847 813 976 808 916 813 b 425 541 566 813 425 723 l 425 524 b 443 429 425 491 431 459 b 503 340 455 400 475 370 b 633 269 531 310 574 287 b 847 242 692 251 763 242 b 1060 268 931 242 1001 251 b 1191 338 1118 285 1162 309 b 1252 427 1220 367 1240 397 b 1270 522 1264 456 1270 488 m 730 1181 l 525 1181 l 525 1294 b 556 1391 525 1332 535 1364 b 665 1431 576 1418 613 1431 l 674 1431 b 853 1391 713 1431 773 1418 b 939 1370 895 1377 924 1370 b 964 1399 955 1370 964 1380 l 964 1441 l 1169 1441 l 1169 1329 b 1138 1233 1169 1292 1158 1260 b 1028 1192 1117 1206 1081 1192 l 1020 1192 b 840 1233 983 1192 923 1206 b 755 1254 801 1247 773 1254 b 730 1225 738 1254 730 1244 "},"Ö":{"ha":1694,"x_min":0,"x_max":0,"o":"m 1606 639 b 1612 551 1610 611 1612 582 l 1612 509 b 1606 422 1612 479 1610 450 b 1581 327 1602 395 1594 363 b 1530 228 1568 291 1551 258 b 1443 137 1510 197 1481 167 b 1312 60 1405 107 1361 81 b 1126 9 1262 39 1200 22 b 878 -10 1051 -4 969 -10 l 818 -10 b 570 9 727 -10 645 -4 b 383 60 495 22 433 39 b 252 137 334 81 290 107 b 164 228 214 167 185 197 b 113 327 143 258 126 291 b 89 422 101 363 93 395 b 83 509 85 450 83 479 l 83 551 b 89 638 83 582 85 611 b 113 733 93 666 101 697 b 164 832 126 769 143 802 b 252 921 185 861 214 891 b 383 996 289 951 333 976 b 570 1046 433 1017 495 1033 b 818 1065 645 1058 727 1065 l 878 1065 b 1125 1046 969 1065 1051 1058 b 1311 996 1199 1033 1261 1017 b 1442 921 1361 976 1405 951 b 1530 832 1479 891 1509 861 b 1581 734 1551 802 1568 769 b 1606 639 1594 698 1602 667 m 1270 541 b 1260 615 1270 567 1266 592 b 1222 688 1253 638 1241 663 b 1149 752 1203 713 1179 734 b 1027 796 1119 770 1078 784 b 847 813 976 808 916 813 b 425 541 566 813 425 723 l 425 524 b 443 429 425 491 431 459 b 503 340 455 400 475 370 b 633 269 531 310 574 287 b 847 242 692 251 763 242 b 1060 268 931 242 1001 251 b 1191 338 1118 285 1162 309 b 1252 427 1220 367 1240 397 b 1270 522 1264 456 1270 488 m 500 1184 l 500 1394 l 811 1394 l 811 1184 m 884 1184 l 884 1394 l 1195 1394 l 1195 1184 "},"×":{"ha":724,"x_min":0,"x_max":0,"o":"m 640 339 l 527 220 l 361 368 l 195 220 l 83 339 l 238 477 l 83 615 l 196 734 l 362 587 l 527 734 l 639 615 l 484 477 "},"Ø":{"ha":1728,"x_min":0,"x_max":0,"o":"m 1639 639 b 1645 551 1643 611 1645 582 l 1645 509 b 1639 422 1645 479 1643 450 b 1614 327 1636 395 1627 363 b 1564 228 1601 291 1584 258 b 1476 137 1543 197 1514 167 b 1345 60 1438 107 1395 81 b 1159 9 1296 39 1234 22 b 912 -10 1085 -4 1002 -10 l 852 -10 b 603 9 761 -10 678 -4 b 586 13 597 10 592 12 l 325 -247 l 83 -5 l 253 165 b 197 228 231 186 212 207 b 147 327 176 258 160 291 b 122 422 134 363 126 395 b 117 509 119 450 117 479 l 117 551 b 122 638 117 582 119 611 b 147 733 126 666 134 697 b 197 832 160 769 176 802 b 285 921 218 861 248 891 b 416 996 322 951 366 976 b 603 1046 466 1017 529 1033 b 852 1065 678 1058 761 1065 l 912 1065 b 1138 1049 994 1065 1069 1059 l 1385 1297 l 1628 1055 l 1485 913 b 1563 832 1518 886 1544 859 b 1614 734 1584 802 1601 769 b 1639 639 1627 698 1636 667 m 902 813 b 881 813 895 813 888 813 b 459 541 600 813 459 723 l 459 524 b 476 429 459 491 465 459 b 490 401 480 420 485 411 m 1303 522 l 1303 541 b 1293 615 1303 567 1300 592 b 1257 685 1287 637 1275 661 l 817 244 b 881 242 838 243 859 242 b 1093 268 964 242 1035 251 b 1224 338 1152 285 1196 309 b 1285 427 1253 367 1274 397 b 1303 522 1297 456 1303 488 "},"Ù":{"ha":1508,"x_min":0,"x_max":0,"o":"m 1425 1047 l 1425 543 b 1410 410 1425 499 1420 455 b 1352 265 1401 365 1381 317 b 1241 129 1323 214 1286 168 b 1056 32 1197 90 1135 58 b 784 -8 977 5 886 -8 l 734 -8 b 521 13 656 -8 586 -1 b 360 66 457 26 403 44 b 243 147 316 89 277 116 b 163 244 209 179 183 211 b 115 348 144 276 127 311 b 90 450 102 386 94 420 b 83 543 85 481 83 512 l 83 1047 l 411 1047 l 411 562 b 426 458 411 525 416 490 b 476 363 436 426 453 394 b 583 289 499 332 535 307 b 756 262 631 271 689 262 b 927 289 823 262 879 271 b 1033 363 974 307 1009 332 b 1084 458 1057 394 1074 426 b 1098 562 1094 490 1098 525 l 1098 1047 m 619 1181 l 472 1391 l 808 1391 l 934 1181 "},"Û":{"ha":1508,"x_min":0,"x_max":0,"o":"m 1425 1047 l 1425 543 b 1410 410 1425 499 1420 455 b 1352 265 1401 365 1381 317 b 1241 129 1323 214 1286 168 b 1056 32 1197 90 1135 58 b 784 -8 977 5 886 -8 l 734 -8 b 521 13 656 -8 586 -1 b 360 66 457 26 403 44 b 243 147 316 89 277 116 b 163 244 210 179 183 211 b 115 348 144 276 127 311 b 90 450 102 386 94 420 b 83 543 85 481 83 512 l 83 1047 l 411 1047 l 411 562 b 426 458 411 525 416 490 b 476 363 436 426 453 394 b 583 289 499 332 535 307 b 756 262 631 271 689 262 b 927 289 823 262 879 271 b 1033 363 974 307 1009 332 b 1084 458 1057 394 1074 426 b 1098 562 1094 490 1098 525 l 1098 1047 m 660 1184 l 355 1184 l 575 1394 l 927 1394 l 1152 1184 l 843 1184 l 751 1265 "},"Ü":{"ha":1508,"x_min":0,"x_max":0,"o":"m 1425 1047 l 1425 543 b 1410 410 1425 499 1420 455 b 1352 265 1401 365 1381 317 b 1241 129 1323 214 1286 168 b 1056 32 1197 90 1135 58 b 784 -8 977 5 886 -8 l 734 -8 b 522 13 656 -8 586 -1 b 360 66 457 26 403 44 b 243 147 316 89 277 116 b 163 244 210 179 183 211 b 115 348 144 276 128 311 b 90 450 102 386 94 420 b 83 543 85 481 83 512 l 83 1047 l 411 1047 l 411 562 b 426 458 411 525 416 490 b 476 363 436 426 453 394 b 583 289 499 332 535 307 b 756 262 631 271 689 262 b 927 289 823 262 880 271 b 1033 363 974 307 1009 332 b 1084 458 1057 394 1074 426 b 1098 562 1094 490 1098 525 l 1098 1047 m 406 1184 l 406 1394 l 717 1394 l 717 1184 m 790 1184 l 790 1394 l 1101 1394 l 1101 1184 "},"Ý":{"ha":1594,"x_min":0,"x_max":0,"o":"m 1511 1047 l 968 410 l 968 8 l 641 8 l 641 410 l 83 1047 l 489 1047 l 812 664 l 1142 1047 m 962 1184 l 647 1184 l 773 1394 l 1110 1394 "},"ß":{"ha":1294,"x_min":0,"x_max":0,"o":"m 957 623 b 1211 355 1126 587 1211 497 l 1211 338 b 747 21 1211 127 1056 21 l 490 21 l 490 242 l 686 242 b 836 269 759 242 809 251 b 877 349 863 287 877 314 l 877 351 b 836 429 877 385 863 411 b 686 457 809 448 759 457 l 490 457 l 490 677 l 667 677 b 785 700 725 677 764 685 b 817 762 806 716 817 736 l 817 764 b 811 797 817 777 815 788 b 787 825 807 806 799 815 b 724 846 774 834 753 842 b 612 853 695 851 658 853 l 594 853 b 439 823 520 853 468 843 b 396 725 411 802 396 769 l 396 21 l 83 21 l 83 750 b 91 832 83 780 86 807 b 127 913 96 856 108 883 b 204 988 147 943 172 968 b 340 1039 236 1008 281 1025 b 547 1060 399 1053 468 1060 l 632 1060 b 857 1044 718 1060 794 1054 b 1004 1005 921 1033 970 1020 b 1084 947 1038 990 1065 971 b 1121 883 1104 924 1116 902 b 1128 816 1126 863 1128 841 l 1128 807 b 1079 686 1128 760 1112 719 b 957 623 1046 652 1005 631 "},"à":{"ha":1111,"x_min":0,"x_max":0,"o":"m 451 864 l 307 1070 l 618 1070 l 739 864 m 1038 208 l 1077 208 l 1077 13 l 834 13 b 720 112 769 13 731 46 b 606 35 698 85 660 59 b 386 0 553 12 479 0 l 369 0 b 116 67 255 0 171 22 b 33 235 61 111 33 167 l 33 244 b 104 394 33 310 57 360 b 337 460 151 428 228 450 l 667 490 b 712 528 697 494 712 506 b 704 556 712 539 709 549 b 651 577 698 563 680 570 b 524 587 621 583 579 587 l 33 586 l 33 752 l 555 752 b 762 738 636 752 705 747 b 893 701 819 728 863 716 b 965 646 924 687 948 669 b 995 585 982 623 992 603 b 1001 520 999 567 1001 546 l 1001 244 b 1038 208 1001 220 1013 208 m 712 355 l 427 311 b 342 288 386 305 358 297 b 318 244 326 279 318 264 l 318 243 b 349 186 318 221 328 202 b 449 162 369 170 403 162 b 639 214 526 162 589 179 b 712 333 688 249 712 288 "},"á":{"ha":1111,"x_min":0,"x_max":0,"o":"m 663 864 l 377 864 l 498 1070 l 806 1070 m 1038 208 l 1077 208 l 1077 13 l 834 13 b 720 112 769 13 731 46 b 606 35 698 85 660 59 b 386 0 553 12 479 0 l 369 0 b 116 67 255 0 171 22 b 33 235 61 111 33 167 l 33 244 b 104 394 33 310 57 360 b 337 460 151 428 228 450 l 667 490 b 712 528 697 494 712 506 b 704 556 712 539 709 549 b 651 577 698 563 680 570 b 524 587 621 583 579 587 l 33 586 l 33 752 l 555 752 b 762 738 636 752 705 747 b 893 701 819 728 863 716 b 965 646 924 687 948 669 b 995 585 982 623 992 603 b 1001 520 999 567 1001 546 l 1001 244 b 1038 208 1001 220 1013 208 m 712 333 l 712 355 l 427 311 b 342 288 386 305 358 297 b 318 244 326 279 318 264 l 318 243 b 349 186 318 221 328 202 b 449 162 369 170 403 162 b 639 214 526 162 589 179 b 712 333 688 249 712 288 "},"â":{"ha":1111,"x_min":0,"x_max":0,"o":"m 471 864 l 187 864 l 388 1071 l 720 1071 l 924 864 l 635 864 l 553 949 m 1038 208 l 1077 208 l 1077 13 l 834 13 b 720 112 769 13 731 46 b 606 35 698 85 660 59 b 386 0 553 12 479 0 l 369 0 b 116 67 255 0 171 22 b 33 235 61 111 33 167 l 33 244 b 104 394 33 310 57 360 b 337 460 151 428 228 450 l 667 490 b 712 528 697 494 712 506 b 704 556 712 539 709 549 b 651 577 698 563 680 570 b 524 587 621 583 579 587 l 33 586 l 33 752 l 555 752 b 762 738 636 752 705 747 b 893 701 819 728 863 716 b 965 646 924 687 948 669 b 995 585 982 623 992 603 b 1001 520 999 567 1001 546 l 1001 244 b 1038 208 1001 220 1013 208 m 712 355 l 427 311 b 342 288 386 305 358 297 b 318 244 326 279 318 264 l 318 243 b 349 186 318 221 328 202 b 449 162 369 170 403 162 b 639 214 526 162 589 179 b 712 333 688 249 712 288 "},"ã":{"ha":1111,"x_min":0,"x_max":0,"o":"m 451 860 l 258 860 l 258 961 b 287 1052 258 996 268 1026 b 388 1091 306 1078 340 1091 l 395 1091 b 447 1086 413 1091 430 1089 b 489 1076 463 1083 477 1080 b 561 1054 501 1073 525 1065 b 638 1034 602 1040 627 1034 b 659 1063 652 1034 659 1043 l 659 1102 l 853 1102 l 853 1000 b 724 869 853 913 810 869 l 716 869 b 549 907 681 869 625 882 b 473 927 509 920 484 927 b 451 899 458 927 451 917 m 1038 208 l 1077 208 l 1077 13 l 834 13 b 720 112 769 13 731 46 b 606 35 698 85 660 59 b 386 0 553 12 479 0 l 369 0 b 116 67 255 0 171 22 b 33 235 61 111 33 167 l 33 244 b 104 394 33 310 57 360 b 337 460 151 428 228 450 l 667 490 b 712 528 697 494 712 506 b 704 556 712 539 709 549 b 651 577 698 563 680 570 b 524 587 621 583 579 587 l 33 586 l 33 752 l 555 752 b 762 738 636 752 705 747 b 893 701 819 728 863 716 b 965 646 924 687 948 669 b 995 585 982 623 992 603 b 1001 520 999 567 1001 546 l 1001 244 b 1038 208 1001 220 1013 208 m 712 355 l 427 311 b 342 288 386 305 358 297 b 318 244 326 279 318 264 l 318 243 b 349 186 318 221 328 202 b 449 162 369 170 403 162 b 639 214 526 162 589 179 b 712 333 688 249 712 288 "},"ä":{"ha":1111,"x_min":0,"x_max":0,"o":"m 555 864 l 555 1070 l 845 1070 l 845 864 m 200 864 l 200 1070 l 488 1070 l 488 864 m 1038 208 l 1077 208 l 1077 13 l 834 13 b 720 112 769 13 731 46 b 606 35 698 85 660 59 b 386 0 553 12 479 0 l 369 0 b 116 67 255 0 171 22 b 33 235 61 111 33 167 l 33 244 b 104 394 33 310 57 360 b 337 460 151 428 228 450 l 667 490 b 712 528 697 494 712 506 b 704 556 712 539 709 549 b 651 577 698 563 680 570 b 524 587 621 583 579 587 l 33 586 l 33 752 l 555 752 b 762 738 636 752 705 747 b 893 701 819 728 863 716 b 965 646 924 687 948 669 b 995 585 982 623 992 603 b 1001 520 999 567 1001 546 l 1001 244 b 1038 208 1001 220 1013 208 m 712 355 l 427 311 b 342 288 386 305 358 297 b 318 244 326 279 318 264 l 318 243 b 349 186 318 221 328 202 b 449 162 369 170 403 162 b 639 214 526 162 589 179 b 712 333 688 249 712 288 "},"å":{"ha":1111,"x_min":0,"x_max":0,"o":"m 534 852 b 278 1010 363 852 278 904 b 534 1165 278 1113 363 1165 b 785 1010 702 1165 785 1113 b 534 852 785 904 702 852 m 534 1070 b 432 1010 466 1070 432 1050 b 534 947 432 968 466 947 b 632 1010 600 947 632 968 b 534 1070 632 1050 600 1070 m 1038 208 l 1077 208 l 1077 13 l 834 13 b 720 112 769 13 731 46 b 606 35 698 85 660 59 b 386 0 553 12 479 0 l 369 0 b 116 67 255 0 171 22 b 33 235 61 111 33 167 l 33 244 b 104 394 33 310 57 360 b 337 460 151 428 228 450 l 667 490 b 712 528 697 494 712 506 b 704 556 712 539 709 549 b 651 577 698 563 680 570 b 524 587 621 583 579 587 l 33 586 l 33 752 l 555 752 b 762 738 636 752 705 747 b 893 701 819 728 863 716 b 965 646 924 687 948 669 b 995 585 982 623 992 603 b 1001 520 999 567 1001 546 l 1001 245 b 1038 208 1001 220 1013 208 m 712 355 l 427 311 b 342 288 386 305 358 297 b 318 244 326 279 318 264 l 318 243 b 349 186 318 221 328 202 b 449 162 369 170 403 162 b 639 214 526 162 589 179 b 712 333 688 249 712 288 "},"æ":{"ha":1831,"x_min":0,"x_max":0,"o":"m 1797 368 l 1797 319 l 1006 319 b 1261 178 1026 225 1111 178 l 1262 178 b 1362 187 1300 178 1333 181 b 1430 206 1392 192 1414 198 b 1470 231 1446 213 1459 222 b 1490 254 1480 241 1487 248 b 1497 271 1494 260 1496 265 l 1793 271 l 1793 269 b 1783 203 1793 247 1789 225 b 1742 132 1777 181 1763 157 b 1658 64 1720 106 1692 83 b 1514 16 1624 45 1576 29 b 1297 -3 1452 3 1380 -3 l 1221 -3 b 1033 13 1151 -3 1088 2 b 979 27 1014 17 996 22 b 821 110 911 47 858 75 b 751 200 792 138 768 168 b 720 112 747 172 738 138 b 712 103 718 109 715 106 b 606 35 689 79 654 56 b 386 0 553 12 479 0 l 369 0 b 116 67 255 0 171 22 b 33 235 61 111 33 168 l 33 245 b 104 394 33 310 57 360 b 337 460 151 428 228 450 l 667 490 b 712 528 697 494 712 507 b 704 556 712 540 709 549 b 650 576 698 563 680 570 b 524 586 621 583 579 586 l 33 586 l 33 752 l 555 752 b 762 737 636 752 705 747 b 893 701 819 728 863 716 b 899 699 895 700 897 700 b 971 726 921 709 944 718 b 1213 755 1038 746 1119 755 l 1295 755 b 1797 368 1629 755 1797 627 m 712 356 l 426 311 b 342 288 386 305 358 297 b 318 245 326 278 318 264 l 318 243 b 349 186 318 221 328 202 b 449 162 369 170 403 162 b 638 214 526 162 589 179 b 712 333 688 249 712 288 m 1494 467 b 1253 589 1473 548 1393 589 l 1252 589 b 1012 467 1116 589 1035 548 "},"ç":{"ha":1301,"x_min":0,"x_max":0,"o":"m 460 546 b 403 412 422 511 403 466 l 403 402 b 460 259 403 346 422 298 b 643 201 499 221 560 201 l 647 201 b 897 340 791 201 874 247 l 1218 340 l 1218 337 b 1209 261 1218 311 1215 285 b 1169 174 1204 236 1190 207 b 1082 89 1147 141 1118 113 b 926 28 1046 65 994 45 b 686 2 858 10 778 2 l 634 2 l 634 -47 b 836 -82 733 -47 800 -59 b 890 -188 872 -105 890 -141 l 890 -192 b 834 -298 890 -237 871 -272 b 633 -338 797 -324 730 -338 l 407 -338 l 407 -212 l 556 -212 b 612 -181 593 -212 612 -202 b 556 -149 612 -160 593 -149 l 456 -149 l 456 13 b 390 26 433 16 411 21 b 238 89 326 42 275 63 b 145 180 200 115 169 145 b 96 284 121 216 104 250 b 83 388 88 317 83 352 l 83 416 b 96 520 83 453 88 487 b 144 622 104 553 120 587 b 237 710 168 656 199 686 b 389 771 275 735 325 755 b 608 795 453 787 525 795 l 688 795 b 923 770 777 795 856 786 b 1078 709 990 753 1042 733 b 1166 625 1114 685 1143 657 b 1209 540 1188 593 1202 565 b 1218 467 1215 515 1218 491 l 1218 463 l 897 463 b 647 598 875 553 792 598 l 643 598 b 460 546 559 598 498 580 "},"è":{"ha":1300,"x_min":0,"x_max":0,"o":"m 494 908 l 344 1123 l 669 1123 l 796 908 m 1216 386 l 1216 335 l 390 335 b 657 188 411 237 500 188 l 658 188 b 763 196 697 188 732 191 b 833 217 793 202 817 209 b 875 243 850 225 864 233 b 897 267 886 253 893 261 b 904 284 900 273 903 279 l 1212 284 l 1212 283 b 1202 214 1212 260 1209 237 b 1159 139 1196 191 1181 166 b 1072 69 1136 112 1107 89 b 921 18 1036 49 986 32 b 695 -2 856 5 781 -2 l 615 -2 b 362 30 518 -2 433 9 b 197 117 291 51 236 80 b 111 238 158 154 129 195 b 83 382 92 282 83 330 l 83 413 b 109 554 83 464 92 511 b 191 673 125 597 153 637 b 353 760 228 710 283 739 b 606 791 424 781 508 791 l 692 791 b 1216 386 1041 791 1216 656 m 901 490 b 648 617 878 574 794 617 l 647 617 b 396 490 505 617 421 574 "},"é":{"ha":1300,"x_min":0,"x_max":0,"o":"m 1216 386 l 1216 335 l 390 335 b 657 188 411 237 500 188 l 658 188 b 763 196 697 188 732 191 b 833 217 793 202 817 209 b 875 243 850 225 864 233 b 897 267 886 253 893 261 b 904 284 900 273 903 279 l 1212 284 l 1212 283 b 1202 214 1212 260 1209 237 b 1159 139 1196 191 1181 166 b 1072 69 1136 112 1107 89 b 921 18 1036 49 986 32 b 695 -2 856 5 781 -2 l 615 -2 b 362 30 518 -2 433 9 b 197 117 291 51 236 80 b 111 238 158 154 129 195 b 83 382 92 282 83 330 l 83 413 b 109 554 83 464 92 511 b 191 673 125 597 153 637 b 353 760 228 710 283 739 b 606 791 424 781 508 791 l 692 791 b 1216 386 1041 791 1216 656 m 901 490 b 648 617 878 574 794 617 l 647 617 b 396 490 505 617 421 574 m 800 908 l 501 908 l 627 1123 l 950 1123 "},"ê":{"ha":1300,"x_min":0,"x_max":0,"o":"m 563 908 l 266 908 l 476 1124 l 822 1124 l 1035 908 l 734 908 l 648 997 m 1216 335 l 390 335 b 657 188 411 237 500 188 l 658 188 b 763 196 697 188 732 191 b 833 217 793 202 817 209 b 875 243 850 225 864 233 b 897 267 886 253 893 261 b 904 284 900 273 903 279 l 1212 284 l 1212 283 b 1202 214 1212 260 1209 237 b 1159 139 1196 191 1181 166 b 1072 69 1136 112 1107 89 b 921 18 1036 49 986 32 b 695 -2 856 5 781 -2 l 615 -2 b 362 30 518 -2 433 9 b 197 117 291 51 236 80 b 111 238 158 154 129 195 b 83 382 92 282 83 330 l 83 413 b 109 554 83 464 92 511 b 191 673 125 597 153 637 b 353 760 228 710 283 739 b 606 791 424 781 508 791 l 692 791 b 1216 386 1041 791 1216 656 m 901 490 b 648 617 878 574 794 617 l 647 617 b 396 490 505 617 421 574 "},"ë":{"ha":1300,"x_min":0,"x_max":0,"o":"m 313 908 l 313 1123 l 615 1123 l 615 908 m 1216 386 l 1216 335 l 390 335 b 657 188 411 237 500 188 l 658 188 b 763 196 697 188 732 191 b 833 217 793 202 817 209 b 875 243 850 225 864 233 b 897 267 886 253 893 261 b 904 284 900 273 903 279 l 1212 284 l 1212 283 b 1202 214 1212 260 1209 237 b 1159 139 1196 191 1181 166 b 1072 69 1136 112 1107 89 b 921 18 1036 49 986 32 b 695 -2 856 5 781 -2 l 615 -2 b 362 30 518 -2 433 9 b 197 117 291 51 236 80 b 111 238 158 154 129 195 b 83 382 92 282 83 330 l 83 413 b 109 554 83 464 92 511 b 191 673 125 597 153 637 b 353 760 228 710 283 739 b 606 791 424 781 508 791 l 692 791 b 1216 386 1041 791 1216 656 m 901 490 b 648 617 878 574 794 617 l 647 617 b 396 490 505 617 421 574 m 685 908 l 685 1123 l 988 1123 l 988 908 "},"ì":{"ha":625,"x_min":0,"x_max":0,"o":"m 233 908 l 83 1123 l 409 1123 l 535 908 m 229 19 l 229 770 l 542 770 l 542 19 "},"í":{"ha":625,"x_min":0,"x_max":0,"o":"m 83 19 l 83 770 l 396 770 l 396 19 m 392 908 l 93 908 l 219 1123 l 542 1123 "},"î":{"ha":785,"x_min":0,"x_max":0,"o":"m 327 908 l 83 908 l 232 1123 l 550 1123 l 702 908 l 453 908 l 390 997 m 236 19 l 236 770 l 549 770 l 549 19 "},"ï":{"ha":715,"x_min":0,"x_max":0,"o":"m 83 908 l 83 1123 l 327 1123 l 327 908 m 201 19 l 201 770 l 514 770 l 514 19 m 386 908 l 386 1123 l 632 1123 l 632 908 "},"ñ":{"ha":1228,"x_min":0,"x_max":0,"o":"m 1053 701 b 1145 494 1114 644 1145 575 l 1145 19 l 829 19 l 829 391 b 779 529 829 450 812 496 b 627 578 745 561 695 578 b 459 522 557 578 501 559 b 396 374 417 485 396 435 l 396 19 l 83 19 l 83 770 l 393 770 l 393 642 b 768 787 490 739 615 787 l 777 787 b 1053 701 900 787 992 758 m 504 944 l 504 904 l 302 904 l 302 1010 b 332 1105 302 1046 312 1078 b 438 1145 352 1132 388 1145 l 445 1145 b 499 1140 464 1145 482 1144 b 543 1130 516 1137 531 1134 b 619 1106 555 1126 581 1118 b 699 1085 661 1092 688 1085 b 721 1116 714 1085 721 1095 l 721 1156 l 923 1156 l 923 1050 b 789 913 923 959 878 913 l 780 913 b 606 953 744 913 686 926 b 526 973 564 966 538 973 b 504 944 511 973 504 964 "},"ò":{"ha":1347,"x_min":0,"x_max":0,"o":"m 524 908 l 374 1123 l 699 1123 l 825 908 m 724 791 b 1264 412 1084 791 1264 665 l 1264 386 b 724 -2 1264 128 1084 -2 l 626 -2 b 402 23 542 -2 467 6 b 246 85 337 39 285 60 b 149 176 207 110 174 140 b 97 280 124 211 107 246 b 83 386 88 314 83 349 l 83 412 b 97 518 83 449 88 484 b 149 620 107 551 124 585 b 245 708 173 654 205 684 b 401 768 284 733 336 753 b 625 791 466 784 540 791 l 724 791 m 947 402 b 884 537 947 456 926 501 b 676 592 842 573 773 592 l 675 592 b 465 538 577 592 507 574 b 403 402 424 502 403 457 l 403 395 b 466 258 403 342 424 296 b 675 201 508 220 578 201 b 884 258 772 201 842 220 b 947 395 926 296 947 342 "},"ó":{"ha":1347,"x_min":0,"x_max":0,"o":"m 724 791 b 1264 412 1084 791 1264 665 l 1264 386 b 724 -2 1264 128 1084 -2 l 626 -2 b 402 23 542 -2 467 6 b 246 85 337 39 285 60 b 149 176 207 110 174 140 b 97 280 124 211 107 246 b 83 386 88 314 83 349 l 83 412 b 97 518 83 449 88 484 b 149 620 107 551 124 585 b 245 708 173 654 205 684 b 401 768 284 733 336 753 b 625 791 466 784 540 791 l 724 791 m 947 402 b 884 537 947 456 926 501 b 676 592 842 573 773 592 l 675 592 b 465 538 577 592 507 574 b 403 402 424 502 403 457 l 403 395 b 466 258 403 342 424 296 b 675 201 508 220 578 201 b 884 258 772 201 842 220 b 947 395 926 296 947 342 m 824 908 l 525 908 l 651 1123 l 974 1123 "},"ô":{"ha":1347,"x_min":0,"x_max":0,"o":"m 587 908 l 289 908 l 500 1124 l 846 1124 l 1059 908 l 758 908 l 672 997 m 724 791 b 1264 412 1084 791 1264 665 l 1264 386 b 724 -2 1264 128 1084 -2 l 626 -2 b 402 23 542 -2 467 6 b 246 85 337 39 285 60 b 149 176 207 110 174 140 b 97 280 124 211 107 246 b 83 386 88 314 83 349 l 83 412 b 97 518 83 449 88 484 b 149 620 107 551 124 585 b 245 708 173 654 205 684 b 401 768 284 733 336 753 b 625 791 466 784 540 791 l 724 791 m 947 402 b 884 537 947 456 926 501 b 676 592 842 573 773 592 l 675 592 b 465 538 577 592 507 574 b 403 402 424 502 403 457 l 403 395 b 466 258 403 342 424 296 b 675 201 508 220 578 201 b 884 258 772 201 842 220 b 947 395 926 296 947 342 "},"õ":{"ha":1347,"x_min":0,"x_max":0,"o":"m 564 944 l 564 904 l 362 904 l 362 1010 b 392 1105 362 1046 372 1078 b 498 1145 413 1132 448 1145 l 505 1145 b 559 1140 524 1145 542 1144 b 604 1130 577 1137 591 1134 b 679 1106 616 1126 641 1118 b 759 1085 721 1092 748 1085 b 782 1116 774 1085 782 1095 l 782 1156 l 983 1156 l 983 1050 b 849 913 983 959 939 913 l 840 913 b 667 953 804 913 746 926 b 587 973 625 966 598 973 b 564 944 572 973 564 964 m 724 791 b 1264 412 1084 791 1264 665 l 1264 386 b 724 -2 1264 128 1084 -2 l 626 -2 b 402 23 542 -2 467 6 b 246 85 337 39 285 60 b 149 176 207 110 174 140 b 97 280 124 211 107 246 b 83 386 88 314 83 349 l 83 412 b 97 518 83 449 88 484 b 149 620 107 551 124 585 b 245 708 173 654 205 684 b 401 768 284 733 336 753 b 625 791 466 784 540 791 l 724 791 m 947 402 b 884 537 947 456 926 501 b 676 592 842 573 773 592 l 675 592 b 465 538 577 592 507 574 b 403 402 424 502 403 457 l 403 395 b 466 258 403 342 424 296 b 675 201 508 220 578 201 b 884 258 772 201 842 220 b 947 395 926 296 947 342 "},"ö":{"ha":1347,"x_min":0,"x_max":0,"o":"m 337 908 l 337 1123 l 639 1123 l 639 908 m 724 791 b 1264 412 1084 791 1264 665 l 1264 386 b 724 -2 1264 128 1084 -2 l 626 -2 b 402 23 542 -2 467 6 b 246 85 337 39 285 60 b 149 176 207 110 174 140 b 97 280 124 211 107 246 b 83 386 88 314 83 349 l 83 412 b 97 518 83 449 88 484 b 149 620 107 551 124 585 b 245 708 173 654 205 684 b 401 768 284 733 336 753 b 625 791 466 784 540 791 l 724 791 m 947 402 b 884 537 947 456 926 501 b 676 592 842 573 773 592 l 675 592 b 465 538 577 592 507 574 b 403 402 424 502 403 457 l 403 395 b 466 258 403 342 424 296 b 675 201 508 220 578 201 b 884 258 772 201 842 220 b 947 395 926 296 947 342 m 709 908 l 709 1123 l 1012 1123 l 1012 908 "},"÷":{"ha":803,"x_min":0,"x_max":0,"o":"m 290 685 l 290 860 l 512 860 l 512 685 m 290 219 l 290 395 l 512 395 l 512 219 m 83 461 l 83 620 l 719 620 l 719 461 "},"ø":{"ha":1347,"x_min":0,"x_max":0,"o":"m 1138 689 b 1264 412 1222 626 1264 534 l 1264 386 b 724 -2 1264 128 1084 -2 l 626 -2 b 460 11 566 -2 510 3 l 271 -178 l 103 -9 l 217 105 b 149 176 191 126 168 149 b 97 280 124 211 107 246 b 83 386 88 314 83 349 l 83 411 b 97 518 83 449 88 484 b 149 620 107 551 124 585 b 245 708 173 654 205 684 b 401 768 284 733 336 753 b 625 791 466 784 540 791 l 724 791 b 892 780 785 791 841 787 l 1079 967 l 1247 798 l 1138 689 m 703 591 b 676 592 694 591 685 592 l 675 592 b 465 538 577 592 507 574 b 403 402 424 502 403 457 l 403 395 b 423 312 403 365 410 337 m 947 402 b 929 480 947 430 941 456 l 650 201 b 675 201 658 201 666 201 b 884 258 772 201 842 220 b 947 395 926 296 947 342 "},"ù":{"ha":1213,"x_min":0,"x_max":0,"o":"m 1129 772 l 1129 21 l 819 21 l 819 151 b 787 121 804 136 793 126 b 739 85 782 116 765 104 b 665 44 712 67 687 53 b 573 18 642 35 611 26 b 453 4 534 9 495 4 l 442 4 b 173 94 323 4 233 34 b 83 305 113 154 83 224 l 83 772 l 399 772 l 399 401 b 447 264 399 343 415 298 b 592 214 479 231 528 214 b 756 270 661 214 715 232 b 817 418 796 307 817 356 l 817 772 m 459 910 l 309 1125 l 634 1125 l 761 910 "},"ú":{"ha":1213,"x_min":0,"x_max":0,"o":"m 1129 772 l 1129 21 l 819 21 l 819 151 b 787 121 804 136 793 126 b 739 85 782 116 765 104 b 665 44 712 67 687 53 b 573 18 642 35 611 26 b 453 4 534 9 495 4 l 442 4 b 173 94 323 4 233 34 b 83 305 113 154 83 224 l 83 772 l 399 772 l 399 401 b 447 264 399 343 415 298 b 592 214 479 231 528 214 b 756 270 661 214 715 232 b 817 418 796 307 817 356 l 817 772 m 749 910 l 451 910 l 577 1125 l 899 1125 "},"û":{"ha":1213,"x_min":0,"x_max":0,"o":"m 1129 772 l 1129 21 l 819 21 l 819 151 b 787 121 804 136 793 126 b 739 85 782 116 765 104 b 665 44 712 67 687 53 b 573 18 642 35 611 26 b 453 4 534 9 495 4 l 442 4 b 173 94 323 4 233 34 b 83 305 113 154 83 224 l 83 772 l 399 772 l 399 401 b 447 264 399 343 415 298 b 592 214 479 231 528 214 b 756 270 661 214 715 232 b 817 418 796 307 817 356 l 817 772 m 519 910 l 222 910 l 432 1126 l 779 1126 l 992 910 l 690 910 l 605 999 "},"ü":{"ha":1213,"x_min":0,"x_max":0,"o":"m 1129 772 l 1129 21 l 819 21 l 819 151 b 787 121 804 136 793 126 b 739 85 782 116 765 104 b 665 44 712 67 687 53 b 573 18 642 35 611 26 b 453 4 534 9 495 4 l 442 4 b 173 94 323 4 233 34 b 83 305 113 154 83 224 l 83 772 l 399 772 l 399 401 b 447 264 399 343 415 298 b 592 214 479 231 528 214 b 756 270 661 214 715 232 b 817 418 796 307 817 356 l 817 772 m 270 910 l 270 1125 l 571 1125 l 571 910 m 641 910 l 641 1125 l 944 1125 l 944 910 "},"ý":{"ha":1296,"x_min":0,"x_max":0,"o":"m 1212 772 l 817 -29 b 699 -191 779 -104 740 -158 b 539 -241 658 -225 604 -241 l 83 -241 l 83 -18 l 442 -18 b 479 6 467 -18 479 -10 b 444 85 479 14 467 41 l 83 772 l 420 772 l 662 264 l 898 772 m 794 910 l 496 910 l 622 1125 l 944 1125 "},"ÿ":{"ha":1296,"x_min":0,"x_max":0,"o":"m 1212 772 l 817 -29 b 699 -191 779 -104 740 -158 b 539 -241 658 -225 604 -241 l 83 -241 l 83 -18 l 442 -18 b 479 6 467 -18 479 -10 b 444 85 479 14 467 41 l 83 772 l 420 772 l 662 264 l 898 772 m 313 910 l 313 1125 l 615 1125 l 615 910 m 685 910 l 685 1125 l 988 1125 l 988 910 "},"ı":{"ha":479,"x_min":0,"x_max":0,"o":"m 83 19 l 83 770 l 396 770 l 396 19 "},"Œ":{"ha":2440,"x_min":0,"x_max":0,"o":"m 1581 249 l 2358 249 l 2358 8 l 1288 8 l 1288 111 b 1116 27 1252 80 1195 52 b 835 -10 1037 2 943 -10 l 780 -10 b 473 27 663 -10 561 2 b 269 118 385 51 317 82 b 153 247 221 154 182 197 b 96 383 123 297 104 342 b 83 509 88 423 83 465 l 83 551 b 96 678 83 596 88 638 b 152 812 104 718 123 763 b 268 939 181 861 220 904 b 472 1028 316 974 384 1004 b 780 1065 560 1053 662 1065 l 835 1065 b 1288 960 1028 1065 1179 1030 l 1288 1047 l 2344 1047 l 2344 811 l 1581 811 l 1581 657 l 2325 657 l 2325 420 l 1581 420 m 1258 522 l 1258 541 b 1249 617 1258 568 1255 593 b 1211 689 1242 640 1230 664 b 1139 753 1193 714 1169 735 b 1018 795 1109 770 1069 784 b 842 812 967 806 908 812 b 425 541 564 812 425 722 l 425 524 b 435 448 425 497 429 472 b 472 373 442 423 454 398 b 545 307 491 347 515 325 b 666 261 575 288 615 273 b 842 244 717 250 776 244 b 1051 269 923 244 993 252 b 1180 337 1109 286 1152 308 b 1241 425 1209 366 1229 395 b 1258 522 1252 455 1258 487 "},"œ":{"ha":2163,"x_min":0,"x_max":0,"o":"m 2079 335 l 1263 335 b 1526 188 1283 237 1371 188 l 1527 188 b 1632 196 1567 188 1602 191 b 1702 217 1662 202 1686 209 b 1743 243 1718 225 1732 233 b 1764 267 1753 253 1761 261 b 1771 284 1768 273 1771 279 l 2076 284 l 2076 283 b 2067 214 2076 259 2073 236 b 2026 140 2061 192 2047 167 b 1942 69 2005 113 1977 89 b 1792 18 1907 49 1857 32 b 1567 -2 1728 5 1653 -2 l 1515 -2 b 1112 122 1328 -2 1194 40 b 689 -2 1034 40 893 -2 l 620 -2 b 398 23 537 -2 463 6 b 242 85 333 39 281 60 b 147 176 204 110 172 140 b 97 280 122 211 106 246 b 83 386 88 314 83 349 l 83 412 b 97 518 83 449 88 484 b 147 620 106 551 122 585 b 242 708 172 654 204 684 b 397 768 281 733 333 753 b 619 791 462 784 536 791 l 689 791 b 1108 670 887 791 1027 751 b 1506 791 1188 751 1320 791 l 1565 791 b 2079 386 1907 791 2079 656 m 940 395 l 940 402 b 879 537 940 456 920 501 b 674 592 838 573 770 592 l 671 592 b 464 538 574 592 505 574 b 403 402 423 502 403 457 l 403 395 b 465 258 403 342 424 296 b 671 201 507 220 575 201 b 878 258 768 201 837 220 b 940 395 919 296 940 342 m 1769 490 b 1519 617 1746 574 1663 617 l 1518 617 b 1268 490 1377 617 1293 574 "},"Š":{"ha":1485,"x_min":0,"x_max":0,"o":"m 1272 587 b 1401 357 1358 538 1401 461 l 1401 337 b 1389 235 1401 299 1397 265 b 1337 142 1380 204 1363 173 b 1232 62 1311 110 1276 84 b 1054 10 1189 41 1130 23 b 790 -10 979 -4 891 -10 l 693 -10 b 421 16 589 -10 499 -2 b 242 80 344 34 284 55 b 142 172 200 106 166 136 b 94 269 117 208 101 240 b 83 361 87 298 83 328 l 83 376 l 424 376 b 734 212 432 267 535 212 l 754 212 b 916 221 819 212 873 215 b 1010 247 959 227 991 235 b 1049 281 1030 258 1043 269 b 1059 322 1056 292 1059 306 b 1042 375 1059 344 1054 362 b 964 409 1031 388 1005 399 b 786 427 923 419 863 425 l 606 431 b 97 735 267 440 97 542 l 97 748 b 110 841 97 781 102 812 b 160 926 118 869 135 897 b 259 998 186 954 219 978 b 424 1046 300 1017 355 1033 b 665 1065 493 1058 574 1065 l 762 1065 b 1014 1045 857 1065 941 1058 b 1189 995 1087 1032 1145 1015 b 1295 919 1232 974 1268 949 b 1352 831 1323 890 1342 860 b 1368 737 1363 802 1368 770 l 1368 723 l 1028 723 b 1021 751 1026 734 1024 743 b 998 783 1017 759 1010 770 b 950 815 985 796 969 806 b 862 837 930 823 901 831 b 727 847 823 844 778 847 l 704 847 b 524 832 626 847 566 842 b 447 802 482 822 456 812 b 434 758 438 791 434 776 b 449 714 434 740 439 725 b 519 684 458 703 482 693 b 675 668 556 674 608 669 l 850 665 b 1272 587 1045 662 1185 635 m 549 1184 l 325 1394 l 633 1394 l 725 1313 l 817 1394 l 1121 1394 l 901 1184 "},"š":{"ha":1207,"x_min":0,"x_max":0,"o":"m 1092 393 b 1124 265 1113 361 1124 319 l 1124 257 b 1103 157 1124 218 1117 185 b 1032 76 1090 128 1066 102 b 878 18 998 51 947 32 b 626 -2 810 5 726 -2 l 568 -2 b 83 265 245 -2 83 87 l 83 273 l 406 273 b 599 171 406 205 470 171 l 602 171 b 729 183 656 171 699 175 b 786 208 759 190 778 198 b 797 243 793 217 797 229 l 797 245 b 765 293 797 267 786 283 b 632 311 744 303 700 309 l 497 314 b 296 337 418 316 351 324 b 170 393 240 351 198 370 b 109 466 141 417 121 441 b 90 548 96 491 90 519 l 90 557 b 99 627 90 583 93 606 b 139 689 106 647 119 668 b 219 742 159 711 186 728 b 358 777 253 756 299 768 b 567 791 417 787 487 791 l 623 791 b 1096 555 938 791 1096 713 l 1096 546 l 777 546 b 769 570 775 555 773 563 b 746 594 765 577 758 585 b 690 615 735 603 716 610 b 591 622 663 620 630 622 l 589 622 b 446 610 518 622 471 618 b 410 566 422 601 410 587 l 410 564 b 444 521 410 545 421 531 b 568 504 466 511 508 506 l 703 501 b 967 469 816 499 904 488 b 1092 393 1029 449 1071 424 m 420 908 l 207 1123 l 508 1123 l 594 1035 l 679 1123 l 976 1123 l 766 908 "},"Ÿ":{"ha":1594,"x_min":0,"x_max":0,"o":"m 1511 1047 l 968 410 l 968 8 l 641 8 l 641 410 l 83 1047 l 489 1047 l 812 664 l 1142 1047 m 463 1184 l 463 1394 l 775 1394 l 775 1184 m 847 1184 l 847 1394 l 1159 1394 l 1159 1184 "},"ž":{"ha":1114,"x_min":0,"x_max":0,"o":"m 1031 229 l 1031 21 l 83 21 l 83 203 l 595 570 l 83 570 l 83 772 l 1028 772 l 1028 598 l 493 229 m 386 910 l 173 1125 l 475 1125 l 560 1037 l 646 1125 l 943 1125 l 733 910 "},"–":{"ha":1068,"x_min":0,"x_max":0,"o":"m 83 411 l 83 554 l 985 554 l 985 411 "},"—":{"ha":1529,"x_min":0,"x_max":0,"o":"m 83 390 l 83 533 l 1445 533 l 1445 390 "},"‚":{"ha":436,"x_min":0,"x_max":0,"o":"m 352 285 l 352 140 b 299 1 352 95 335 48 l 158 1 b 199 109 181 43 195 79 l 83 109 l 83 285 "},"„":{"ha":750,"x_min":0,"x_max":0,"o":"m 666 284 l 666 140 b 613 0 666 94 649 48 l 472 0 b 513 109 495 42 509 79 l 398 109 l 398 284 m 83 284 l 352 284 l 352 140 b 299 0 352 94 335 48 l 158 0 b 199 109 181 42 195 79 l 83 109 "},"•":{"ha":576,"x_min":0,"x_max":0,"o":"m 435 678 b 493 536 473 642 493 595 b 435 393 493 477 473 429 b 288 338 397 356 348 338 b 141 393 228 338 179 356 b 83 536 102 429 83 477 b 141 678 83 595 102 642 b 288 733 179 715 228 733 b 435 678 348 733 397 715 "},"…":{"ha":1094,"x_min":0,"x_max":0,"o":"m 414 -7 l 414 186 l 681 186 l 681 -7 m 83 -7 l 83 186 l 350 186 l 350 -7 m 745 -7 l 745 186 l 1012 186 l 1012 -7 "},"‰":{"ha":2351,"x_min":0,"x_max":0,"o":"m 1384 828 l 497 9 l 279 9 l 1165 828 m 422 362 l 395 362 b 260 379 344 362 299 368 b 169 420 221 390 191 404 b 116 477 147 436 130 455 b 89 538 102 499 93 519 b 83 593 85 556 83 574 l 83 611 b 89 667 83 630 85 649 b 116 727 93 685 102 705 b 169 783 130 748 147 767 b 260 822 191 798 221 812 b 395 838 299 833 344 838 l 422 838 b 556 822 473 838 518 833 b 647 783 595 812 625 798 b 700 727 669 767 686 748 b 727 667 714 705 723 685 b 733 611 731 649 733 630 l 733 593 b 721 522 733 568 729 545 b 679 448 713 498 699 474 b 583 386 659 423 627 402 b 422 362 539 370 485 362 m 263 599 b 297 527 263 571 274 547 b 407 498 321 508 357 498 b 519 527 458 498 496 508 b 555 597 543 547 555 570 l 555 606 b 407 703 555 671 506 703 b 263 606 311 703 263 671 l 263 599 m 1527 393 b 1569 321 1547 368 1561 344 b 1581 250 1577 298 1581 274 l 1581 231 b 1575 176 1581 213 1579 195 b 1549 116 1571 158 1562 138 b 1496 58 1535 94 1518 74 b 1405 17 1475 41 1444 28 b 1270 0 1366 6 1321 0 l 1243 0 b 1108 17 1192 0 1147 6 b 1018 58 1070 28 1039 41 b 965 116 996 74 978 94 b 937 176 951 138 942 158 b 931 231 933 195 931 213 l 931 250 b 937 305 931 268 933 287 b 965 365 942 323 951 343 b 1018 421 978 386 996 405 b 1108 461 1039 437 1070 450 b 1243 477 1147 472 1192 477 l 1270 477 b 1430 454 1333 477 1386 469 b 1527 393 1474 438 1506 418 m 1403 236 l 1403 245 b 1368 314 1403 272 1392 296 b 1256 341 1345 332 1308 341 b 1144 314 1204 341 1167 332 b 1110 245 1121 296 1110 272 l 1110 238 b 1145 166 1110 209 1122 185 b 1256 137 1168 146 1205 137 b 1368 166 1307 137 1344 146 b 1403 236 1391 185 1403 209 m 2262 305 b 2268 250 2266 287 2268 268 l 2268 231 b 2262 176 2268 212 2266 194 b 2236 116 2258 158 2249 138 b 2184 58 2223 94 2206 74 b 2094 17 2163 41 2133 28 b 1959 0 2054 6 2009 0 l 1931 0 b 1796 17 1880 0 1835 6 b 1706 58 1758 28 1727 41 b 1653 116 1684 74 1666 94 b 1626 176 1639 138 1630 158 b 1619 231 1621 195 1619 213 l 1619 250 b 1626 305 1619 268 1621 287 b 1653 365 1630 323 1639 343 b 1706 421 1666 386 1684 405 b 1796 461 1727 437 1758 450 b 1931 477 1835 472 1880 477 l 1959 477 b 2093 461 2009 477 2054 472 b 2183 421 2132 450 2162 437 b 2236 364 2205 405 2222 386 b 2262 305 2249 342 2258 323 m 2091 236 l 2091 245 b 2056 314 2091 272 2080 296 b 1944 341 2033 332 1996 341 b 1832 314 1893 341 1855 332 b 1798 245 1810 296 1798 272 l 1798 238 b 1833 166 1798 209 1810 185 b 1944 137 1856 146 1893 137 b 2055 166 1994 137 2031 146 b 2091 236 2079 185 2091 209 "},"‹":{"ha":506,"x_min":0,"x_max":0,"o":"m 276 446 l 416 258 l 230 258 l 83 446 l 233 631 l 422 631 "},"›":{"ha":506,"x_min":0,"x_max":0,"o":"m 422 425 l 276 237 l 89 237 l 229 425 l 83 610 l 273 610 "},"€":{"ha":1247,"x_min":0,"x_max":0,"o":"m 946 323 l 1213 323 l 1213 311 b 1202 237 1213 287 1210 263 b 1156 153 1194 212 1179 184 b 1068 70 1133 122 1104 94 b 919 10 1032 46 982 26 b 701 -14 855 -6 783 -14 l 654 -14 b 444 12 576 -14 506 -5 b 295 82 383 29 333 53 b 204 176 256 112 226 143 b 154 282 182 208 165 244 l 33 282 l 33 375 l 139 375 l 139 434 l 33 434 l 33 529 l 155 529 b 204 632 166 566 183 601 b 294 722 226 664 256 694 b 443 790 332 751 382 774 b 654 814 505 806 575 814 l 701 814 b 918 790 782 814 854 806 b 1067 731 981 774 1031 754 b 1155 650 1103 707 1132 681 b 1201 569 1178 620 1193 593 b 1212 499 1209 544 1212 521 l 1212 487 l 945 487 b 937 510 943 493 941 501 b 913 543 933 518 925 529 b 867 581 900 557 885 570 b 789 609 849 591 823 601 b 675 621 755 617 717 621 b 431 529 552 621 471 591 l 762 529 l 762 434 l 403 434 b 401 413 402 429 401 422 l 401 400 b 403 375 401 389 402 381 l 762 375 l 762 282 l 434 282 b 677 180 477 214 558 180 b 792 193 720 180 758 184 b 870 223 826 202 852 212 b 915 264 887 234 902 248 b 938 299 927 280 935 292 b 946 322 941 307 943 315 "},"™":{"ha":1231,"x_min":0,"x_max":0,"o":"m 33 958 l 501 958 l 501 839 l 349 839 l 349 564 l 186 564 l 186 839 l 33 839 m 1197 958 l 1197 564 l 1052 564 l 1052 832 l 926 564 l 818 564 l 692 832 l 692 564 l 548 564 l 548 958 l 780 958 l 877 750 l 975 958 "},"":{"ha":3614,"x_min":0,"x_max":0,"o":"m 3611 967 l 3182 0 l 2848 0 l 2622 574 l 1016 574 l 803 0 l 437 0 l 1 967 l 363 967 l 636 302 l 828 806 l 2806 806 l 3017 321 l 3285 967 "},"":{"ha":3790,"x_min":0,"x_max":0,"o":"m 3707 0 l 3377 0 l 3285 177 l 505 177 l 413 0 l 83 0 l 606 969 l 3184 969 m 3172 396 l 2987 752 l 803 752 l 618 396 l 618 396 "},"":{"ha":5860,"x_min":0,"x_max":0,"o":"m 5777 0 l 5447 0 l 5355 177 l 505 177 l 413 0 l 83 0 l 606 969 l 5254 969 m 5242 396 l 5057 752 l 803 752 l 618 396 l 618 396 "},"":{"ha":7851,"x_min":0,"x_max":0,"o":"m 7768 0 l 7438 0 l 7346 177 l 505 177 l 413 0 l 83 0 l 606 969 l 7245 969 m 7233 396 l 7048 752 l 803 752 l 618 396 l 618 396 "},"":{"ha":3731,"x_min":0,"x_max":0,"o":"m 3662 409 b 3686 301 3678 378 3686 341 l 3686 283 b 3241 0 3686 94 3538 0 l 62 0 l 62 982 l 3232 982 b 3536 920 3375 982 3476 961 b 3625 758 3596 878 3625 824 l 3625 739 b 3607 658 3625 709 3619 682 b 3559 600 3595 634 3579 615 b 3504 566 3539 586 3520 574 b 3455 548 3488 558 3471 552 b 3523 525 3478 543 3501 535 b 3596 484 3545 516 3569 502 b 3662 409 3623 466 3645 441 m 399 615 l 3174 615 b 3291 694 3252 615 3291 642 l 3291 697 b 3174 775 3291 749 3252 775 l 399 775 m 3336 316 b 3203 407 3336 376 3292 407 l 399 407 l 399 214 l 3203 214 b 3307 243 3253 214 3288 224 b 3336 310 3327 262 3336 285 "},"":{"ha":5801,"x_min":0,"x_max":0,"o":"m 5732 409 b 5756 301 5748 378 5756 341 l 5756 283 b 5311 0 5756 94 5608 0 l 62 0 l 62 982 l 5302 982 b 5606 920 5445 982 5546 961 b 5695 758 5666 878 5695 824 l 5695 739 b 5677 658 5695 709 5689 682 b 5629 600 5665 634 5649 615 b 5574 566 5609 586 5590 574 b 5525 548 5558 558 5541 552 b 5593 525 5548 543 5571 535 b 5667 484 5615 516 5640 502 b 5732 409 5694 466 5715 441 m 399 615 l 5244 615 b 5362 694 5323 615 5362 642 l 5362 697 b 5244 775 5362 749 5323 775 l 399 775 m 5406 316 b 5273 407 5406 376 5362 407 l 399 407 l 399 214 l 5273 214 b 5377 243 5324 214 5358 224 b 5406 310 5397 262 5406 285 "},"":{"ha":7793,"x_min":0,"x_max":0,"o":"m 7723 409 b 7747 301 7739 378 7747 341 l 7747 283 b 7302 0 7747 94 7599 0 l 62 0 l 62 982 l 7293 982 b 7597 920 7436 982 7537 961 b 7687 758 7657 878 7687 824 l 7687 739 b 7668 658 7687 709 7680 682 b 7620 600 7656 634 7640 615 b 7565 566 7600 586 7581 574 b 7516 548 7549 558 7532 552 b 7584 525 7539 543 7562 535 b 7658 484 7606 516 7631 502 b 7723 409 7685 466 7706 441 m 399 615 l 7236 615 b 7353 694 7314 615 7353 642 l 7353 697 b 7236 775 7353 749 7314 775 l 399 775 m 7397 316 b 7264 407 7397 376 7353 407 l 399 407 l 399 214 l 7264 214 b 7368 243 7315 214 7349 224 b 7397 310 7388 262 7397 285 "},"":{"ha":3706,"x_min":0,"x_max":0,"o":"m 3664 413 l 3664 399 b 3648 309 3664 370 3658 340 b 3585 205 3638 278 3617 244 b 3463 104 3554 167 3513 133 b 3252 30 3412 75 3342 51 b 2942 0 3162 10 3059 0 l 762 0 l 762 0 b 526 19 676 0 597 6 b 346 67 455 31 395 47 b 217 139 297 86 254 111 b 128 226 179 168 150 197 b 76 320 107 255 90 286 b 48 411 62 353 53 383 b 42 492 44 438 42 465 l 42 531 b 55 651 42 573 46 613 b 113 778 63 689 83 731 b 232 898 144 824 183 864 b 443 982 282 931 352 959 b 762 1017 534 1005 640 1017 l 2942 1017 b 3256 987 3061 1017 3165 1007 b 3466 914 3346 967 3417 943 b 3588 815 3516 886 3556 853 b 3648 715 3619 778 3639 744 b 3662 630 3657 685 3662 657 l 3662 615 l 3305 615 b 3294 644 3302 626 3299 635 b 3261 684 3290 652 3279 665 b 3196 730 3243 702 3221 718 b 3083 764 3170 742 3133 754 b 2912 779 3033 774 2976 779 b 593 757 2835 779 648 772 b 470 697 539 743 498 723 b 412 617 443 672 423 645 b 394 524 400 588 394 558 l 394 508 b 414 417 394 477 401 446 b 475 331 427 387 447 358 b 600 264 503 303 545 281 b 2915 239 655 247 2841 239 b 3305 409 3135 239 3266 296 b 3306 413 3306 411 3306 412 "},"":{"ha":5776,"x_min":0,"x_max":0,"o":"m 5377 413 l 5734 413 l 5734 399 b 5718 309 5734 370 5729 340 b 5656 205 5708 278 5687 244 b 5533 104 5624 167 5583 133 b 5322 30 5483 75 5412 51 b 5012 0 5232 10 5129 0 l 762 0 l 762 0 b 526 19 676 0 597 6 b 346 67 455 31 395 47 b 217 139 297 87 254 111 b 128 226 179 168 150 197 b 76 320 107 255 90 286 b 48 411 62 353 53 383 b 42 492 44 438 42 465 l 42 531 b 55 651 42 573 46 613 b 113 778 63 689 83 731 b 232 898 144 824 183 864 b 443 982 282 931 352 959 b 762 1017 534 1005 640 1017 l 5012 1017 b 5326 987 5131 1017 5235 1007 b 5536 914 5417 967 5487 943 b 5658 815 5586 886 5626 853 b 5718 715 5689 778 5709 744 b 5732 630 5728 685 5732 657 l 5732 615 l 5375 615 b 5364 644 5372 626 5369 635 b 5331 684 5360 652 5349 665 b 5266 730 5313 702 5292 718 b 5153 764 5240 742 5203 754 b 4982 779 5104 774 5047 779 b 593 757 4905 779 648 772 b 470 697 539 743 498 723 b 412 617 443 672 423 645 b 394 524 400 588 394 558 l 394 508 b 414 417 394 477 401 446 b 475 331 427 387 447 358 b 600 264 503 303 545 281 b 4985 239 655 247 4911 239 b 5375 409 5206 239 5336 296 b 5377 413 5376 411 5377 412 "},"":{"ha":7767,"x_min":0,"x_max":0,"o":"m 7368 413 l 7725 413 l 7725 399 b 7709 309 7725 370 7720 340 b 7647 205 7699 278 7678 244 b 7524 104 7615 167 7574 133 b 7313 30 7474 75 7403 51 b 7003 0 7223 10 7120 0 l 762 0 l 762 0 b 526 19 676 0 597 6 b 346 67 455 31 395 47 b 217 139 297 87 254 111 b 128 226 179 168 150 197 b 76 320 107 255 90 286 b 48 411 62 353 53 383 b 42 492 44 438 42 465 l 42 531 b 55 651 42 573 46 613 b 113 778 63 689 83 731 b 232 898 144 824 183 864 b 443 982 282 931 352 959 b 762 1017 534 1005 640 1017 l 7003 1017 b 7317 987 7122 1017 7226 1007 b 7527 914 7408 967 7478 943 b 7649 815 7577 886 7617 853 b 7709 715 7680 778 7700 744 b 7723 630 7719 685 7723 657 l 7723 615 l 7366 615 b 7355 644 7363 626 7360 635 b 7322 684 7351 652 7340 665 b 7257 730 7304 702 7283 718 b 7144 764 7231 742 7194 754 b 6973 779 7095 774 7038 779 b 593 757 6896 779 648 772 b 470 697 539 743 498 723 b 412 617 443 672 423 645 b 394 524 400 588 394 558 l 394 508 b 414 417 394 477 401 446 b 475 331 427 387 447 358 b 600 264 503 303 545 281 b 6976 239 655 247 6902 239 b 7366 409 7197 239 7327 296 b 7368 413 7367 411 7368 412 "},"":{"ha":3747,"x_min":0,"x_max":0,"o":"m 3691 629 b 3705 518 3700 594 3705 557 l 3705 478 b 3687 347 3705 431 3699 387 b 3619 219 3676 306 3653 263 b 3486 107 3585 175 3540 138 b 3267 30 3433 76 3359 51 b 2947 0 3174 10 3068 0 l 83 0 l 83 982 l 2946 982 b 3218 964 3046 982 3137 976 b 3420 910 3299 951 3366 934 b 3559 832 3474 887 3520 861 b 3647 735 3597 804 3627 771 b 3691 629 3667 699 3682 664 m 3352 498 b 2920 750 3352 666 3208 750 l 420 750 l 420 236 l 2920 236 b 3352 490 3208 236 3352 321 "},"":{"ha":5817,"x_min":0,"x_max":0,"o":"m 5761 629 b 5775 518 5770 594 5775 557 l 5775 478 b 5758 347 5775 431 5769 387 b 5689 219 5746 306 5723 263 b 5557 107 5655 175 5611 138 b 5337 30 5503 76 5429 51 b 5017 0 5244 10 5138 0 l 83 0 l 83 982 l 5016 982 b 5288 964 5116 982 5207 976 b 5490 910 5369 951 5436 934 b 5629 832 5544 887 5590 861 b 5717 735 5667 804 5697 771 b 5761 629 5737 699 5752 664 m 5422 498 b 4990 750 5422 666 5278 750 l 420 750 l 420 236 l 4990 236 b 5422 490 5278 236 5422 321 "},"":{"ha":7808,"x_min":0,"x_max":0,"o":"m 7752 629 b 7766 518 7761 594 7766 557 l 7766 478 b 7749 347 7766 431 7760 387 b 7680 219 7737 306 7714 263 b 7548 107 7646 175 7602 138 b 7328 30 7494 76 7420 51 b 7008 0 7235 10 7129 0 l 83 0 l 83 982 l 7007 982 b 7279 964 7107 982 7198 976 b 7481 910 7360 951 7427 934 b 7620 832 7535 887 7581 861 b 7708 735 7658 804 7688 771 b 7752 629 7728 699 7743 664 m 7413 498 b 6981 750 7413 666 7269 750 l 420 750 l 420 236 l 6981 236 b 7413 490 7269 236 7413 321 "},"":{"ha":3786,"x_min":0,"x_max":0,"o":"m 3721 228 l 3721 0 l 83 0 l 83 982 l 3707 982 l 3707 759 l 416 759 l 416 614 l 3688 614 l 3688 389 l 416 389 l 416 228 "},"":{"ha":5856,"x_min":0,"x_max":0,"o":"m 5791 228 l 5791 0 l 83 0 l 83 982 l 5777 982 l 5777 759 l 416 759 l 416 614 l 5758 614 l 5758 389 l 416 389 l 416 228 "},"":{"ha":7847,"x_min":0,"x_max":0,"o":"m 7783 228 l 7783 0 l 83 0 l 83 982 l 7768 982 l 7768 759 l 416 759 l 416 614 l 7749 614 l 7749 389 l 416 389 l 416 228 "},"":{"ha":3790,"x_min":0,"x_max":0,"o":"m 417 756 l 417 611 l 3688 611 l 3688 388 l 417 388 l 417 0 l 83 0 l 83 978 l 3707 978 l 3707 756 "},"":{"ha":7851,"x_min":0,"x_max":0,"o":"m 417 756 l 417 611 l 7749 611 l 7749 388 l 417 388 l 417 0 l 83 0 l 83 978 l 7768 978 l 7768 756 "},"":{"ha":3733,"x_min":0,"x_max":0,"o":"m 2911 565 l 3665 565 l 3665 17 l 3424 17 b 3421 170 3424 17 3422 105 b 2906 0 3313 57 3142 0 l 754 0 b 458 33 643 0 544 11 b 251 116 371 55 302 83 b 125 235 200 150 158 189 b 58 365 93 280 70 323 b 40 491 46 406 40 449 l 40 528 b 55 652 40 571 45 613 b 119 780 65 692 87 735 b 243 897 151 825 192 864 b 454 979 294 930 364 957 b 726 1011 534 998 624 1009 b 765 1012 739 1012 752 1012 l 2949 1012 b 3251 986 3063 1012 3164 1003 b 3456 921 3338 968 3407 946 b 3578 829 3505 895 3546 864 b 3641 731 3609 793 3630 761 b 3658 641 3651 702 3657 672 l 3658 640 l 3301 640 b 2920 779 3266 733 3139 779 b 744 778 2901 779 762 779 b 391 515 509 767 391 679 l 391 501 b 491 315 391 429 425 367 b 752 239 551 269 638 244 b 2917 238 766 238 2902 238 b 3081 250 2977 238 3031 242 b 3201 279 3131 258 3171 267 b 3276 316 3230 290 3255 302 b 3319 352 3297 330 3311 342 b 3331 377 3327 363 3331 371 l 3331 380 l 2911 380 "},"":{"ha":5803,"x_min":0,"x_max":0,"o":"m 5735 565 l 5735 17 l 5494 17 b 5491 170 5494 17 5492 105 b 4976 0 5383 57 5212 0 l 754 0 b 458 33 643 0 544 11 b 251 116 371 55 302 83 b 125 235 200 150 158 189 b 58 365 93 280 70 323 b 40 491 46 406 40 449 l 40 528 b 55 652 40 571 45 613 b 119 780 65 692 87 735 b 243 897 151 825 192 864 b 454 979 294 930 364 957 b 726 1011 534 998 624 1009 b 765 1012 739 1012 752 1012 l 5019 1012 b 5321 986 5133 1012 5234 1003 b 5526 921 5408 968 5477 946 b 5648 829 5575 895 5616 864 b 5711 731 5679 793 5700 761 b 5728 641 5721 702 5727 672 l 5728 640 l 5371 640 b 4990 779 5336 733 5209 779 b 744 778 4971 779 762 779 b 391 515 509 767 391 679 l 391 501 b 491 315 391 429 425 367 b 752 239 551 269 638 244 b 4987 238 766 238 4972 238 b 5151 250 5047 238 5101 242 b 5271 279 5201 258 5241 267 b 5346 316 5300 290 5326 302 b 5389 352 5367 330 5381 342 b 5402 377 5398 363 5402 371 l 5402 380 l 4981 380 l 4981 565 "},"":{"ha":7794,"x_min":0,"x_max":0,"o":"m 7726 565 l 7726 17 l 7485 17 b 7482 170 7485 17 7483 105 b 6967 0 7374 57 7203 0 l 754 0 b 458 33 643 0 544 11 b 251 116 371 55 302 83 b 125 235 200 150 158 189 b 58 365 93 280 70 323 b 40 491 46 406 40 449 l 40 528 b 55 652 40 571 45 613 b 119 780 65 692 87 735 b 243 897 151 825 192 864 b 454 979 294 930 364 957 b 726 1011 534 998 624 1009 b 765 1012 739 1012 752 1012 l 7010 1012 b 7312 986 7124 1012 7225 1003 b 7517 921 7399 968 7468 946 b 7639 829 7566 895 7607 864 b 7702 731 7670 793 7691 761 b 7719 641 7712 702 7718 672 l 7719 640 l 7362 640 b 6981 779 7327 733 7200 779 b 744 778 6962 779 762 779 b 391 515 509 767 391 679 l 391 501 b 491 315 391 429 425 367 b 752 239 551 269 638 244 b 6978 238 766 238 6963 238 b 7142 250 7038 238 7092 242 b 7262 279 7192 258 7232 267 b 7337 316 7291 290 7317 302 b 7380 352 7358 330 7372 342 b 7393 377 7389 363 7393 371 l 7393 380 l 6972 380 l 6972 565 "},"":{"ha":3789,"x_min":0,"x_max":0,"o":"m 3706 978 l 3706 0 l 3370 0 l 3370 385 l 417 385 l 417 0 l 82 0 l 82 978 l 417 978 l 417 622 l 3370 622 l 3370 978 "},"":{"ha":5860,"x_min":0,"x_max":0,"o":"m 5776 978 l 5776 0 l 5440 0 l 5440 385 l 417 385 l 417 0 l 82 0 l 82 978 l 417 978 l 417 622 l 5440 622 l 5440 978 "},"":{"ha":7850,"x_min":0,"x_max":0,"o":"m 7767 978 l 7767 0 l 7431 0 l 7431 385 l 417 385 l 417 0 l 82 0 l 82 978 l 417 978 l 417 622 l 7431 622 l 7431 978 "},"":{"ha":3697,"x_min":0,"x_max":0,"o":"m 3631 975 l 3631 469 b 3619 344 3631 426 3627 384 b 3571 218 3611 303 3595 261 b 3481 107 3548 175 3518 138 b 3334 30 3445 76 3396 51 b 3123 0 3272 10 3202 0 l 531 0 b 323 26 454 0 385 9 b 175 94 262 43 213 66 b 82 191 137 122 106 154 b 31 302 57 228 41 265 b 17 416 21 339 17 377 l 17 424 l 324 424 b 329 387 325 411 327 399 b 348 341 332 376 338 361 b 386 291 358 321 371 304 b 454 254 401 277 424 265 b 559 239 484 244 519 239 l 3093 239 b 3268 302 3171 239 3230 260 b 3326 477 3307 343 3326 402 l 3326 975 "},"":{"ha":5767,"x_min":0,"x_max":0,"o":"m 5701 975 l 5701 469 b 5689 344 5701 426 5697 384 b 5641 218 5681 303 5665 261 b 5551 107 5618 175 5588 138 b 5404 30 5515 76 5466 51 b 5193 0 5343 10 5272 0 l 531 0 b 323 26 454 0 385 9 b 175 94 262 43 213 66 b 82 191 137 122 106 154 b 31 302 57 228 41 265 b 17 416 21 339 17 377 l 17 424 l 324 424 b 329 387 325 411 327 399 b 348 341 332 376 338 361 b 386 291 358 321 371 304 b 454 254 401 277 424 265 b 559 239 484 244 519 239 l 5163 239 b 5338 302 5241 239 5300 260 b 5396 477 5377 343 5396 402 l 5396 975 "},"":{"ha":7758,"x_min":0,"x_max":0,"o":"m 7692 975 l 7692 469 b 7680 344 7692 426 7688 384 b 7632 218 7672 303 7656 261 b 7542 107 7609 175 7579 138 b 7395 30 7506 76 7457 51 b 7184 0 7334 10 7263 0 l 531 0 b 323 26 454 0 385 9 b 175 94 262 43 213 66 b 82 191 137 122 106 154 b 31 302 57 228 41 265 b 17 416 21 339 17 377 l 17 424 l 324 424 b 329 387 325 411 327 399 b 348 341 332 376 338 361 b 386 291 358 321 371 304 b 454 254 401 277 424 265 b 559 239 484 244 519 239 l 7154 239 b 7329 302 7232 239 7291 260 b 7387 477 7368 343 7387 402 l 7387 975 "},"":{"ha":3765,"x_min":0,"x_max":0,"o":"m 2940 372 l 393 372 l 393 0 l 83 0 l 83 984 l 393 984 l 393 668 l 2954 668 l 3343 984 l 3736 984 l 3167 534 l 3762 0 l 3359 0 "},"":{"ha":5767,"x_min":0,"x_max":0,"o":"m 4941 372 l 393 372 l 393 0 l 83 0 l 83 984 l 393 984 l 393 668 l 4954 668 l 5344 984 l 5737 984 l 5168 534 l 5763 0 l 5359 0 "},"":{"ha":7765,"x_min":0,"x_max":0,"o":"m 6939 372 l 393 372 l 393 0 l 83 0 l 83 984 l 393 984 l 393 668 l 6953 668 l 7342 984 l 7735 984 l 7167 534 l 7762 0 l 7358 0 "},"":{"ha":3731,"x_min":0,"x_max":0,"o":"m 3712 246 l 3712 0 l 83 0 l 83 990 l 395 990 l 395 246 "},"":{"ha":5790,"x_min":0,"x_max":0,"o":"m 5772 246 l 5772 0 l 83 0 l 83 990 l 395 990 l 395 246 "},"":{"ha":7781,"x_min":0,"x_max":0,"o":"m 7762 246 l 7762 0 l 83 0 l 83 990 l 395 990 l 395 246 "},"":{"ha":3788,"x_min":0,"x_max":0,"o":"m 3704 980 l 3704 0 l 3372 0 l 3372 678 l 2949 0 l 829 0 l 406 678 l 406 0 l 83 0 l 83 980 l 561 980 l 930 373 l 2873 373 l 3244 980 "},"":{"ha":5857,"x_min":0,"x_max":0,"o":"m 5774 980 l 5774 0 l 5442 0 l 5442 678 l 5020 0 l 829 0 l 406 678 l 406 0 l 83 0 l 83 980 l 561 980 l 930 373 l 4943 373 l 5314 980 "},"":{"ha":7849,"x_min":0,"x_max":0,"o":"m 7765 980 l 7765 0 l 7433 0 l 7433 678 l 7011 0 l 829 0 l 406 678 l 406 0 l 83 0 l 83 980 l 561 980 l 930 373 l 6934 373 l 7305 980 "},"":{"ha":3790,"x_min":0,"x_max":0,"o":"m 3707 980 l 3707 0 l 3375 0 l 415 649 l 415 0 l 83 0 l 83 980 l 458 980 l 3375 364 l 3375 980 "},"":{"ha":5860,"x_min":0,"x_max":0,"o":"m 5777 980 l 5777 0 l 5445 0 l 415 649 l 415 0 l 83 0 l 83 980 l 458 980 l 5445 364 l 5445 980 "},"":{"ha":7851,"x_min":0,"x_max":0,"o":"m 7768 980 l 7768 0 l 7436 0 l 415 649 l 415 0 l 83 0 l 83 980 l 458 980 l 7436 364 l 7436 980 "},"":{"ha":3749,"x_min":0,"x_max":0,"o":"m 3701 592 b 3706 512 3704 566 3706 540 l 3706 473 b 3701 395 3706 446 3704 420 b 3678 307 3698 369 3690 340 b 3632 217 3666 275 3651 245 b 3552 134 3613 189 3587 162 b 3433 64 3518 107 3478 83 b 3263 18 3388 45 3331 30 b 3038 0 3196 6 3120 0 l 711 0 b 485 18 629 0 553 6 b 315 64 417 30 360 45 b 196 134 270 83 230 107 b 115 217 161 162 134 189 b 69 307 96 245 81 275 b 47 395 58 340 50 369 b 42 473 43 420 42 446 l 42 512 b 47 591 42 540 43 566 b 69 678 50 616 58 645 b 115 767 81 710 96 740 b 195 849 134 795 161 822 b 315 918 229 876 269 899 b 485 963 360 936 417 951 b 711 980 553 974 629 980 l 3038 980 b 3263 963 3120 980 3195 974 b 3432 918 3330 951 3386 936 b 3552 849 3478 899 3517 876 b 3631 767 3586 822 3612 795 b 3678 678 3651 740 3666 711 b 3701 592 3690 646 3698 617 m 3394 503 b 3385 570 3394 526 3391 549 b 3351 636 3379 591 3368 613 b 3284 695 3334 659 3312 679 b 3173 735 3257 711 3220 724 b 3027 751 3131 745 3082 750 b 738 751 3021 751 744 751 b 354 503 482 751 354 668 l 354 487 b 370 401 354 457 359 428 b 424 319 380 374 398 347 b 543 255 449 292 489 271 b 738 230 596 238 662 230 b 3027 230 744 230 3021 230 b 3203 254 3095 232 3154 239 b 3323 318 3257 270 3296 291 b 3378 398 3349 344 3368 371 b 3394 485 3389 425 3394 454 "},"":{"ha":5788,"x_min":0,"x_max":0,"o":"m 5740 592 b 5745 512 5743 566 5745 540 l 5745 473 b 5740 395 5745 446 5743 420 b 5717 307 5736 369 5729 340 b 5671 217 5705 275 5689 245 b 5591 134 5652 189 5625 162 b 5471 64 5556 107 5516 83 b 5302 18 5426 45 5370 30 b 5076 0 5234 6 5159 0 l 711 0 b 485 18 629 0 553 6 b 315 64 417 30 360 45 b 196 134 270 83 230 107 b 115 217 161 162 134 189 b 69 307 96 245 81 275 b 47 395 58 340 50 369 b 42 473 43 420 42 446 l 42 512 b 47 591 42 540 43 566 b 69 678 50 616 58 645 b 115 767 81 710 96 740 b 195 849 134 795 161 822 b 315 918 229 876 269 899 b 485 963 360 936 417 951 b 711 980 553 974 629 980 l 5076 980 b 5301 963 5159 980 5234 974 b 5471 918 5369 951 5425 936 b 5590 849 5516 899 5556 876 b 5670 767 5624 822 5651 795 b 5717 678 5689 740 5705 711 b 5740 592 5729 646 5736 617 m 5433 485 l 5433 503 b 5424 570 5433 526 5430 549 b 5390 636 5418 591 5407 613 b 5323 695 5372 659 5350 679 b 5212 735 5296 711 5259 724 b 5066 751 5169 745 5121 750 b 738 751 5060 751 744 751 b 354 503 482 751 354 668 l 354 487 b 369 401 354 457 359 428 b 424 319 380 374 398 347 b 543 255 449 292 489 271 b 738 230 596 238 662 230 b 5066 230 744 230 5060 230 b 5242 254 5134 232 5193 239 b 5361 318 5295 270 5335 291 b 5417 398 5388 344 5406 371 b 5433 485 5428 425 5433 454 "},"":{"ha":7785,"x_min":0,"x_max":0,"o":"m 7738 592 b 7743 512 7741 566 7743 540 l 7743 473 b 7738 395 7743 446 7741 420 b 7715 307 7734 369 7727 340 b 7669 217 7703 275 7688 245 b 7589 134 7650 189 7623 162 b 7469 64 7554 107 7515 83 b 7300 18 7424 45 7368 30 b 7075 0 7232 6 7157 0 l 711 0 b 485 18 629 0 553 6 b 315 64 417 30 360 45 b 196 134 270 83 230 107 b 115 217 161 162 134 189 b 69 307 96 245 81 275 b 47 395 58 340 50 369 b 42 473 43 420 42 446 l 42 512 b 47 591 42 540 43 566 b 69 678 50 616 58 645 b 115 767 81 710 96 740 b 195 849 134 795 161 822 b 315 918 229 876 269 899 b 485 963 360 936 417 951 b 711 980 553 974 629 980 l 7075 980 b 7299 963 7157 980 7232 974 b 7469 918 7367 951 7423 936 b 7588 849 7514 899 7554 876 b 7668 767 7622 822 7649 795 b 7715 678 7687 740 7703 711 b 7738 592 7727 646 7734 617 m 7431 485 l 7431 503 b 7422 570 7431 526 7428 549 b 7388 636 7416 591 7405 613 b 7321 695 7371 659 7348 679 b 7210 735 7294 711 7257 724 b 7064 751 7168 745 7119 750 b 738 751 7058 751 744 751 b 354 503 482 751 354 668 l 354 487 b 370 401 354 457 359 428 b 424 319 380 374 398 347 b 543 255 449 292 489 271 b 738 230 596 238 662 230 b 7064 230 744 230 7058 230 b 7240 254 7132 232 7191 239 b 7360 318 7293 270 7333 291 b 7415 398 7386 344 7404 371 b 7431 485 7426 425 7431 454 "},"":{"ha":3728,"x_min":0,"x_max":0,"o":"m 3198 980 b 3699 661 3532 980 3699 874 l 3699 648 b 3198 327 3699 434 3532 327 l 419 327 l 419 0 l 83 0 l 83 980 l 3198 980 m 3348 649 l 3348 653 b 3192 757 3348 723 3296 757 l 419 757 l 419 547 l 3192 547 b 3348 649 3296 547 3348 581 "},"":{"ha":5799,"x_min":0,"x_max":0,"o":"m 5268 980 b 5769 661 5602 980 5769 874 l 5769 648 b 5268 327 5769 434 5602 327 l 419 327 l 419 0 l 83 0 l 83 980 l 5268 980 m 5418 653 b 5262 757 5418 723 5366 757 l 419 757 l 419 547 l 5262 547 b 5418 649 5366 547 5418 581 "},"":{"ha":7789,"x_min":0,"x_max":0,"o":"m 7259 980 b 7760 661 7593 980 7760 874 l 7760 648 b 7259 327 7760 434 7593 327 l 419 327 l 419 0 l 83 0 l 83 980 l 7259 980 m 7409 653 b 7253 757 7409 723 7357 757 l 419 757 l 419 547 l 7253 547 b 7409 649 7357 547 7409 581 "},"":{"ha":3706,"x_min":0,"x_max":0,"o":"m 3658 586 b 3663 506 3661 560 3663 534 l 3663 468 b 3658 389 3663 441 3661 415 b 3635 302 3654 364 3647 335 b 3589 212 3623 270 3608 240 b 3527 145 3574 190 3553 167 l 3610 63 l 3424 -124 l 3275 25 b 3222 14 3258 21 3240 17 b 2997 -4 3154 2 3079 -4 l 709 -4 b 484 14 627 -4 551 2 b 314 60 416 26 359 41 b 195 130 269 79 230 102 b 115 212 161 157 134 185 b 69 302 96 240 80 270 b 47 389 58 335 50 364 b 42 468 43 415 42 441 l 42 506 b 47 585 42 534 43 560 b 69 671 50 610 58 639 b 115 761 81 704 96 734 b 194 842 134 788 161 815 b 314 910 228 869 268 892 b 484 955 359 929 416 944 b 709 973 551 967 627 973 l 2997 973 b 3221 955 3079 973 3154 967 b 3390 910 3288 944 3344 929 b 3509 842 3435 892 3475 869 b 3588 761 3543 815 3569 788 b 3635 672 3608 734 3623 704 b 3658 586 3647 640 3654 611 m 3316 356 b 3336 393 3325 368 3331 381 b 3352 479 3347 420 3352 449 l 3352 497 b 3343 564 3352 521 3349 543 b 3309 630 3337 585 3326 607 b 3243 689 3292 653 3270 672 b 3132 728 3215 705 3179 718 b 2969 744 3085 739 3031 744 b 706 744 2959 744 716 744 b 352 497 470 738 352 655 l 352 482 b 368 396 352 451 358 423 b 422 314 379 369 397 341 b 541 250 448 287 487 266 b 713 226 589 235 646 227 b 2969 226 720 226 2961 226 b 3069 231 3005 226 3038 228 l 2997 303 l 3183 489 "},"":{"ha":5753,"x_min":0,"x_max":0,"o":"m 5705 586 b 5710 506 5709 560 5710 534 l 5710 468 b 5705 389 5710 441 5709 415 b 5682 302 5702 364 5694 335 b 5636 212 5670 270 5655 240 b 5574 145 5621 190 5600 167 l 5657 63 l 5471 -124 l 5323 25 b 5269 14 5305 21 5288 17 b 5044 -4 5201 2 5127 -4 l 709 -4 b 484 14 627 -4 551 2 b 314 60 416 26 359 41 b 195 130 269 79 230 102 b 115 212 161 157 134 185 b 69 302 96 240 80 270 b 47 389 58 335 50 364 b 42 468 43 415 42 441 l 42 506 b 47 585 42 534 43 560 b 69 671 50 610 58 639 b 115 761 81 704 96 734 b 194 842 134 788 161 815 b 314 910 228 869 268 892 b 484 955 359 929 416 944 b 709 973 551 967 627 973 l 5044 973 b 5268 955 5127 973 5201 967 b 5437 910 5335 944 5392 929 b 5556 842 5482 892 5522 869 b 5636 761 5590 815 5617 788 b 5682 672 5655 734 5670 704 b 5705 586 5694 640 5702 611 m 5364 356 b 5384 393 5372 368 5379 381 b 5399 479 5394 420 5399 449 l 5399 497 b 5391 564 5399 521 5397 543 b 5356 630 5385 585 5373 607 b 5290 689 5339 653 5317 672 b 5179 728 5263 705 5226 718 b 5016 744 5132 739 5078 744 b 706 744 5006 744 716 744 b 352 497 470 738 352 655 l 352 482 b 368 396 352 451 358 423 b 422 314 379 369 397 341 b 541 250 448 287 487 266 b 713 226 589 235 646 227 b 5016 226 720 226 5008 226 b 5116 231 5052 226 5085 228 l 5045 303 l 5231 489 "},"":{"ha":7729,"x_min":0,"x_max":0,"o":"m 7682 586 b 7687 506 7685 560 7687 534 l 7687 468 b 7682 389 7687 441 7685 415 b 7659 302 7679 364 7671 335 b 7613 212 7647 270 7632 240 b 7551 145 7598 190 7577 167 l 7634 63 l 7448 -124 l 7299 25 b 7246 14 7282 21 7265 17 b 7021 -4 7178 2 7103 -4 l 709 -4 b 484 14 627 -4 551 2 b 314 60 416 26 359 41 b 195 130 269 79 230 102 b 115 212 161 157 134 185 b 69 302 96 240 80 270 b 47 389 58 335 50 364 b 42 468 43 415 42 441 l 42 506 b 47 585 42 534 43 560 b 69 671 50 610 58 639 b 115 761 81 704 96 734 b 194 842 134 788 161 815 b 314 910 228 869 268 892 b 484 955 359 929 416 944 b 709 973 551 967 627 973 l 7021 973 b 7245 955 7103 973 7178 967 b 7414 910 7312 944 7368 929 b 7533 842 7459 892 7499 869 b 7613 761 7567 815 7593 788 b 7659 672 7632 734 7647 704 b 7682 586 7671 640 7679 611 m 7341 356 b 7360 393 7349 368 7356 381 b 7376 479 7371 420 7376 449 l 7376 497 b 7367 564 7376 521 7373 543 b 7333 630 7361 585 7350 607 b 7267 689 7316 653 7294 672 b 7156 728 7240 705 7203 718 b 6993 744 7109 739 7055 744 b 706 744 6983 744 716 744 b 352 497 470 738 352 655 l 352 482 b 368 396 352 451 358 423 b 422 314 379 369 397 341 b 541 250 448 287 487 266 b 713 226 589 235 646 227 b 6993 226 720 226 6985 226 b 7093 231 7029 226 7062 228 l 7021 303 l 7208 489 "},"":{"ha":3740,"x_min":0,"x_max":0,"o":"m 3622 416 b 3674 270 3657 378 3674 330 l 3674 0 l 3364 0 l 3364 175 b 3318 307 3364 236 3349 280 b 3159 348 3287 334 3234 348 l 392 348 l 392 0 l 83 0 l 83 980 l 3243 980 b 3670 726 3527 980 3670 895 l 3670 710 b 3487 495 3670 606 3609 535 b 3622 416 3543 479 3588 453 m 3348 663 b 3318 731 3348 691 3338 713 b 3224 757 3298 749 3266 757 l 392 757 l 392 565 l 3224 565 b 3318 591 3266 565 3298 574 b 3348 661 3338 609 3348 632 "},"":{"ha":5819,"x_min":0,"x_max":0,"o":"m 5702 416 b 5753 270 5736 378 5753 330 l 5753 0 l 5444 0 l 5444 175 b 5397 307 5444 236 5428 280 b 5239 348 5367 334 5314 348 l 392 348 l 392 0 l 83 0 l 83 980 l 5322 980 b 5749 726 5607 980 5749 895 l 5749 710 b 5567 495 5749 606 5688 535 b 5702 416 5622 479 5667 453 m 5428 663 b 5397 731 5428 691 5418 713 b 5304 757 5377 749 5346 757 l 392 757 l 392 565 l 5304 565 b 5397 591 5346 565 5377 574 b 5428 661 5418 609 5428 632 "},"":{"ha":7828,"x_min":0,"x_max":0,"o":"m 7711 416 b 7762 270 7745 378 7762 330 l 7762 0 l 7453 0 l 7453 175 b 7407 307 7453 236 7437 280 b 7248 348 7376 334 7323 348 l 392 348 l 392 0 l 83 0 l 83 980 l 7331 980 b 7758 726 7616 980 7758 895 l 7758 710 b 7576 495 7758 606 7698 535 b 7711 416 7631 479 7676 453 m 7437 663 b 7407 731 7437 691 7427 713 b 7313 757 7386 749 7355 757 l 392 757 l 392 565 l 7313 565 b 7407 591 7355 565 7386 574 b 7437 661 7427 609 7437 632 "},"":{"ha":3718,"x_min":0,"x_max":0,"o":"m 3538 563 b 3671 346 3627 517 3671 445 l 3671 328 b 3658 231 3671 292 3667 260 b 3605 144 3650 203 3632 173 b 3497 69 3578 114 3542 89 b 3314 19 3453 48 3392 32 b 3042 0 3237 6 3146 0 l 675 0 l 675 0 b 395 25 568 0 475 8 b 210 86 315 42 253 62 b 107 172 167 109 133 138 b 58 263 82 206 65 236 b 47 350 51 291 47 320 l 47 365 l 398 365 b 686 209 405 261 481 209 l 3032 209 b 3172 218 3099 209 3128 212 b 3269 242 3216 224 3249 232 b 3309 275 3289 253 3302 264 b 3319 314 3316 286 3319 299 b 3302 364 3319 335 3314 351 b 3221 396 3290 376 3264 387 b 3038 412 3179 405 3118 411 l 664 415 l 585 416 b 62 703 236 425 62 521 l 62 715 b 75 803 62 747 66 776 b 127 883 83 830 101 856 b 228 951 152 910 186 933 b 398 996 270 969 327 985 b 646 1014 469 1008 551 1014 l 3014 1014 b 3273 996 3112 1014 3198 1008 b 3453 948 3348 983 3408 968 b 3562 877 3497 929 3534 905 b 3621 794 3591 849 3610 821 b 3637 705 3631 766 3637 736 l 3637 691 l 3288 691 b 3280 718 3286 702 3283 711 b 3256 748 3276 726 3268 736 b 3207 778 3243 760 3227 771 b 3117 799 3187 786 3157 793 b 2993 809 3077 806 3046 809 l 675 809 b 500 795 594 809 543 804 b 421 766 457 786 431 776 b 408 724 412 756 408 742 b 423 684 408 708 413 694 b 495 655 433 673 457 663 b 656 640 533 646 587 641 l 3003 639 l 3104 637 b 3538 563 3304 634 3449 609 "},"":{"ha":5788,"x_min":0,"x_max":0,"o":"m 5608 563 b 5741 346 5697 517 5741 445 l 5741 328 b 5728 231 5741 292 5737 260 b 5675 144 5720 203 5702 173 b 5568 69 5648 114 5612 89 b 5384 19 5523 48 5462 32 b 5113 0 5307 6 5216 0 l 675 0 l 675 0 b 395 25 568 0 475 8 b 210 86 315 42 253 62 b 107 172 167 109 133 138 b 58 263 82 206 65 236 b 47 350 51 291 47 320 l 47 365 l 398 365 b 686 209 405 261 481 209 l 5102 209 b 5242 218 5170 209 5198 212 b 5339 242 5287 224 5319 232 b 5379 275 5359 253 5373 264 b 5389 314 5386 286 5389 299 b 5372 364 5389 335 5384 351 b 5291 396 5361 376 5334 387 b 5108 412 5249 405 5188 411 l 664 415 l 585 416 b 62 703 236 425 62 521 l 62 715 b 75 803 62 747 66 776 b 127 883 83 830 101 856 b 228 951 152 910 186 933 b 398 996 270 969 327 985 b 646 1014 469 1008 551 1014 l 5084 1014 b 5343 996 5182 1014 5268 1008 b 5523 948 5418 983 5478 968 b 5632 877 5568 929 5604 905 b 5691 794 5661 849 5680 821 b 5707 705 5701 766 5707 736 l 5707 691 l 5358 691 b 5350 718 5356 702 5353 711 b 5326 748 5346 726 5338 736 b 5277 778 5313 760 5297 771 b 5187 799 5257 786 5227 793 b 5064 809 5147 806 5116 809 l 675 809 b 500 795 594 809 543 804 b 421 766 457 786 431 776 b 408 724 412 756 408 742 b 423 684 408 708 413 694 b 495 655 433 673 457 663 b 656 640 533 646 587 641 l 5073 639 l 5175 637 b 5608 563 5375 634 5519 609 "},"":{"ha":7779,"x_min":0,"x_max":0,"o":"m 7599 563 b 7732 346 7688 517 7732 445 l 7732 328 b 7719 231 7732 292 7728 260 b 7666 144 7711 203 7693 173 b 7559 69 7639 114 7603 89 b 7375 19 7514 48 7453 32 b 7104 0 7298 6 7207 0 l 675 0 l 675 0 b 395 25 568 0 475 8 b 210 86 315 42 253 62 b 107 172 167 109 133 138 b 58 263 82 206 65 236 b 47 350 51 291 47 320 l 47 365 l 398 365 b 686 209 405 261 481 209 l 7093 209 b 7233 218 7161 209 7189 212 b 7330 242 7278 224 7310 232 b 7370 275 7350 253 7364 264 b 7380 314 7377 286 7380 299 b 7363 364 7380 335 7375 351 b 7282 396 7352 376 7325 387 b 7099 412 7240 405 7179 411 l 664 415 l 585 416 b 62 703 236 425 62 521 l 62 715 b 75 803 62 747 66 776 b 127 883 83 830 101 856 b 228 951 153 910 186 933 b 398 996 270 969 327 985 b 646 1014 469 1008 552 1014 l 7075 1014 b 7334 996 7173 1014 7259 1008 b 7514 948 7409 983 7469 968 b 7623 877 7559 929 7595 905 b 7682 794 7652 849 7671 821 b 7698 705 7692 766 7698 736 l 7698 691 l 7349 691 b 7341 718 7347 702 7344 711 b 7317 748 7337 726 7329 736 b 7268 778 7304 760 7288 771 b 7178 799 7248 786 7218 793 b 7055 809 7138 806 7107 809 l 675 809 b 500 795 594 809 543 804 b 421 766 457 786 431 776 b 408 724 412 756 408 742 b 423 684 408 708 413 694 b 495 655 433 673 457 663 b 656 640 533 646 587 641 l 7064 639 l 7166 637 b 7599 563 7366 634 7510 609 "},"":{"ha":3654,"x_min":0,"x_max":0,"o":"m 3638 1020 l 3638 779 l 1927 779 l 1927 0 l 1604 0 l 1604 779 l 14 779 l 14 1020 "},"":{"ha":5708,"x_min":0,"x_max":0,"o":"m 5692 1020 l 5692 779 l 2979 779 l 2979 0 l 2656 0 l 2656 779 l 14 779 l 14 1020 "},"":{"ha":7775,"x_min":0,"x_max":0,"o":"m 7690 1020 l 7690 779 l 3511 779 l 3511 0 l 3188 0 l 3188 779 l 14 779 l 14 1020 "},"":{"ha":3790,"x_min":0,"x_max":0,"o":"m 3707 982 l 3707 512 b 3692 389 3707 472 3702 430 b 3633 254 3682 347 3662 302 b 3520 127 3603 206 3566 164 b 3332 36 3475 91 3412 61 b 3056 0 3252 12 3160 0 l 744 0 b 528 19 665 0 593 6 b 364 69 463 31 408 48 b 246 144 319 90 280 115 b 164 234 211 174 184 204 b 115 332 145 264 128 297 b 90 426 103 366 94 398 b 83 512 85 455 83 484 l 83 982 l 416 982 l 416 530 b 431 434 416 496 421 464 b 482 345 441 404 458 374 b 591 276 506 316 542 293 b 739 251 633 262 682 253 b 3028 251 748 251 3018 251 b 3201 276 3095 251 3153 259 b 3309 345 3249 293 3285 316 b 3360 434 3333 374 3350 404 b 3375 530 3370 464 3375 496 l 3375 982 "},"":{"ha":5860,"x_min":0,"x_max":0,"o":"m 5777 982 l 5777 512 b 5762 389 5777 472 5772 430 b 5703 254 5752 347 5732 302 b 5591 127 5674 206 5636 164 b 5402 36 5545 91 5482 61 b 5126 0 5322 12 5230 0 l 744 0 b 528 19 665 0 593 6 b 364 69 463 31 408 48 b 246 144 319 90 280 115 b 164 234 211 174 184 204 b 115 332 145 264 128 297 b 90 426 103 366 94 398 b 83 512 85 455 83 484 l 83 982 l 416 982 l 416 530 b 431 434 416 496 421 464 b 482 345 441 404 458 374 b 591 276 506 316 542 293 b 739 251 633 262 682 253 b 5098 251 748 251 5088 251 b 5271 276 5165 251 5223 259 b 5379 345 5319 293 5355 316 b 5430 434 5403 374 5420 404 b 5445 530 5440 464 5445 496 l 5445 982 "},"":{"ha":7851,"x_min":0,"x_max":0,"o":"m 7768 982 l 7768 512 b 7753 389 7768 472 7763 430 b 7694 254 7743 347 7723 302 b 7582 127 7665 206 7627 164 b 7393 36 7536 91 7473 61 b 7117 0 7313 12 7221 0 l 744 0 b 528 19 665 0 593 6 b 364 69 463 31 408 48 b 246 144 319 90 280 115 b 164 234 211 174 184 204 b 115 332 145 264 128 297 b 90 426 103 366 94 398 b 83 512 85 455 83 484 l 83 982 l 416 982 l 416 530 b 431 434 416 496 421 464 b 482 345 441 404 458 374 b 591 276 506 316 542 293 b 739 251 633 262 682 253 b 7089 251 748 251 7079 251 b 7262 276 7156 251 7214 259 b 7370 345 7310 293 7346 316 b 7421 434 7394 374 7411 404 b 7436 530 7431 464 7436 496 l 7436 982 "},"":{"ha":5717,"x_min":0,"x_max":0,"o":"m 5697 967 l 5269 0 l 4934 0 l 4709 574 l 1033 574 l 820 0 l 454 0 l 18 967 l 380 967 l 653 302 l 845 806 l 4893 806 l 5104 321 l 5371 967 "},"":{"ha":7707,"x_min":0,"x_max":0,"o":"m 7688 967 l 7260 0 l 6925 0 l 6700 574 l 1033 574 l 820 0 l 454 0 l 18 967 l 380 967 l 653 302 l 845 806 l 6884 806 l 7095 321 l 7362 967 "},"":{"ha":3718,"x_min":0,"x_max":0,"o":"m 3675 229 l 3675 0 l 40 0 l 40 178 l 2335 744 l 52 744 l 52 967 l 3665 967 l 3665 791 l 1363 229 "},"":{"ha":5788,"x_min":0,"x_max":0,"o":"m 5745 229 l 5745 0 l 40 0 l 40 178 l 3703 744 l 52 744 l 52 967 l 5735 967 l 5735 791 l 2289 229 "},"":{"ha":7779,"x_min":0,"x_max":0,"o":"m 7736 229 l 7736 0 l 40 0 l 40 178 l 4911 744 l 52 744 l 52 967 l 7726 967 l 7726 791 l 2631 229 "},"":{"ha":2801,"x_min":0,"x_max":0,"o":"m 2773 205 l 2773 13 l 2534 13 b 2422 110 2470 13 2432 46 b 2310 35 2400 83 2362 58 b 389 0 2257 12 480 0 l 372 0 b 123 66 260 0 177 22 b 42 231 69 110 42 165 l 42 241 b 111 388 42 305 65 354 b 340 452 157 421 234 443 l 2369 482 b 2414 519 2399 486 2414 498 b 2405 547 2414 531 2411 540 b 2353 567 2400 554 2386 564 b 525 577 2298 573 579 577 l 42 576 l 42 740 l 555 740 b 2463 726 634 740 2406 735 b 2592 690 2519 716 2562 704 b 2662 636 2622 676 2645 658 b 2693 576 2679 613 2689 593 b 2698 511 2696 558 2698 537 l 2698 241 b 2735 205 2698 217 2710 205 m 2414 350 l 428 306 b 345 283 389 300 361 292 b 322 241 329 274 322 260 l 322 239 b 352 183 322 217 332 198 b 451 159 372 167 405 159 b 2341 210 527 159 2293 176 b 2414 327 2390 245 2414 284 "},"":{"ha":4842,"x_min":0,"x_max":0,"o":"m 4813 214 l 4813 22 l 4574 22 b 4462 120 4510 22 4472 55 b 4350 44 4440 93 4402 67 b 389 9 4297 21 480 9 l 372 9 b 123 75 260 9 177 31 b 42 241 69 119 42 174 l 42 250 b 111 397 42 315 65 364 b 340 461 157 430 233 452 l 4409 492 b 4454 528 4439 495 4454 507 b 4445 556 4454 540 4451 549 b 4393 576 4440 563 4426 573 b 525 586 4338 582 578 586 l 42 585 l 42 749 l 555 749 b 4503 735 634 749 4446 744 b 4632 699 4559 725 4602 713 b 4702 645 4662 685 4685 667 b 4732 585 4719 622 4729 602 b 4738 521 4736 567 4738 546 l 4738 250 b 4775 214 4738 226 4750 214 m 4454 337 l 4454 359 l 428 316 b 345 293 389 309 361 302 b 321 250 329 283 321 269 l 321 248 b 352 192 321 227 332 208 b 451 168 372 176 405 168 b 4381 220 527 168 4333 185 b 4454 337 4430 254 4454 293 "},"":{"ha":6257,"x_min":0,"x_max":0,"o":"m 6229 214 l 6229 22 l 5990 22 b 5878 120 5926 22 5888 55 b 5765 44 5856 93 5818 67 b 389 9 5713 21 480 9 l 372 9 b 123 75 260 9 177 31 b 42 241 69 119 42 174 l 42 250 b 111 397 42 315 65 364 b 340 461 157 430 234 452 l 5825 492 b 5870 528 5855 495 5870 507 b 5861 556 5870 540 5867 549 b 5809 576 5855 563 5842 573 b 525 586 5754 582 578 586 l 42 585 l 42 749 l 555 749 b 5918 735 634 749 5862 744 b 6048 699 5975 725 6018 713 b 6118 645 6078 685 6101 667 b 6148 585 6135 622 6145 602 b 6153 521 6152 567 6153 546 l 6153 250 b 6190 214 6153 226 6166 214 m 5870 359 l 428 316 b 345 293 389 309 361 302 b 321 250 329 283 321 269 l 321 248 b 352 192 321 227 332 208 b 451 168 372 176 405 168 b 5797 220 526 168 5749 185 b 5870 337 5845 254 5870 293 "},"":{"ha":2864,"x_min":0,"x_max":0,"o":"m 366 991 l 366 626 b 640 733 435 686 526 722 b 2337 737 666 736 2308 737 l 2358 737 b 2687 639 2507 737 2617 704 b 2793 385 2758 573 2793 488 l 2793 360 b 2681 98 2793 253 2756 166 b 2346 -4 2607 30 2495 -4 l 2329 -4 b 624 1 2298 -4 653 -2 b 567 11 605 4 586 7 b 459 48 523 21 487 34 b 396 89 432 63 411 77 b 363 121 381 100 370 111 l 363 13 l 71 13 l 71 991 m 366 365 b 437 237 366 316 390 273 b 632 183 484 201 549 183 l 639 183 b 2337 190 669 183 2312 185 b 2433 237 2377 199 2409 215 b 2492 365 2473 273 2492 316 l 2492 370 b 2438 501 2492 423 2474 466 b 2338 545 2415 523 2382 538 b 641 552 2314 550 672 552 l 635 552 b 438 498 552 552 487 534 b 366 370 390 462 366 420 l 366 365 "},"":{"ha":4904,"x_min":0,"x_max":0,"o":"m 366 997 l 366 632 b 639 739 435 692 526 728 b 4377 743 666 742 4348 743 l 4398 743 b 4727 645 4547 743 4657 710 b 4833 391 4797 579 4833 495 l 4833 366 b 4721 104 4833 259 4795 172 b 4386 2 4647 36 4535 2 l 4369 2 b 624 7 4338 2 652 4 b 567 17 604 10 586 13 b 459 55 523 27 487 40 b 396 95 432 70 411 83 b 363 127 381 107 370 117 l 363 19 l 71 19 l 71 997 m 366 371 b 437 243 366 322 390 280 b 632 189 484 207 549 189 l 638 189 b 4377 197 669 189 4352 191 b 4473 243 4417 205 4449 221 b 4532 371 4513 280 4532 322 l 4532 377 b 4478 507 4532 429 4514 473 b 4378 552 4455 529 4422 544 b 641 558 4354 556 671 558 l 634 558 b 438 504 552 558 487 540 b 366 377 390 468 366 426 "},"":{"ha":6319,"x_min":0,"x_max":0,"o":"m 366 997 l 366 632 b 639 739 435 692 526 728 b 5793 743 666 742 5764 743 l 5814 743 b 6143 645 5963 743 6073 710 b 6248 391 6213 579 6248 495 l 6248 366 b 6137 104 6248 259 6211 172 b 5802 2 6063 36 5951 2 l 5785 2 b 624 7 5753 2 652 4 b 567 17 604 10 586 13 b 459 55 523 27 487 40 b 396 95 432 70 411 83 b 363 127 381 107 370 117 l 363 19 l 71 19 l 71 997 m 366 371 b 437 243 366 322 390 280 b 632 189 484 207 549 189 l 638 189 b 5792 197 669 189 5768 191 b 5889 243 5832 205 5864 221 b 5948 371 5928 280 5948 322 l 5948 377 b 5894 507 5948 429 5930 473 b 5794 552 5871 529 5838 544 b 641 558 5770 556 671 558 l 634 558 b 438 504 552 558 487 540 b 366 377 390 468 366 426 l 366 371 "},"":{"ha":2872,"x_min":0,"x_max":0,"o":"m 425 508 b 372 383 390 475 372 433 l 372 373 b 426 239 372 320 390 275 b 598 184 462 202 519 184 l 602 184 b 2286 184 609 184 2278 184 b 2498 314 2407 189 2478 232 l 2800 314 l 2800 312 b 2792 240 2800 287 2798 263 b 2754 158 2787 217 2774 189 b 2673 78 2734 127 2707 101 b 2526 20 2639 56 2590 37 b 2300 -4 2461 4 2386 -4 l 566 -4 b 359 19 488 -4 420 4 b 216 78 299 34 251 54 b 129 164 181 102 152 131 b 83 262 106 198 91 230 b 71 360 75 293 71 326 l 71 386 b 83 484 71 421 75 453 b 128 580 91 515 106 547 b 215 663 151 612 180 640 b 359 720 251 686 299 705 b 565 743 418 735 487 743 l 2301 743 b 2523 719 2386 743 2460 735 b 2669 662 2586 703 2635 684 b 2751 583 2703 640 2730 613 b 2792 503 2773 553 2786 526 b 2800 434 2797 480 2800 457 l 2800 430 l 2498 430 b 2282 557 2479 511 2407 553 b 602 557 2276 557 608 557 l 598 557 b 425 508 518 557 461 541 "},"":{"ha":4911,"x_min":0,"x_max":0,"o":"m 425 514 b 372 388 390 481 372 439 l 372 379 b 426 244 372 326 390 281 b 597 190 462 208 519 190 l 601 190 b 4326 190 609 190 4319 190 b 4538 320 4447 195 4518 238 l 4840 320 l 4840 317 b 4832 246 4840 293 4838 269 b 4794 164 4827 223 4814 195 b 4713 84 4774 133 4747 106 b 4566 26 4679 62 4630 42 b 4340 2 4501 10 4426 2 l 566 2 b 359 25 488 2 420 10 b 216 84 299 40 251 60 b 129 170 181 108 152 137 b 83 267 106 203 91 236 b 71 366 75 299 71 332 l 71 392 b 83 490 71 427 75 459 b 128 586 91 521 106 553 b 215 669 151 618 180 646 b 359 726 251 692 299 711 b 564 748 418 741 487 748 l 4341 748 b 4563 725 4426 748 4500 741 b 4709 668 4626 709 4675 690 b 4791 589 4743 645 4770 619 b 4832 509 4812 559 4826 532 b 4840 440 4837 485 4840 462 l 4840 436 l 4538 436 b 4322 563 4519 517 4447 559 b 601 563 4316 563 608 563 l 597 563 b 425 514 518 563 461 547 "},"":{"ha":6328,"x_min":0,"x_max":0,"o":"m 425 514 b 372 388 390 481 372 439 l 372 379 b 426 244 372 326 390 281 b 597 190 462 208 519 190 l 601 190 b 5742 190 609 190 5734 190 b 5954 320 5863 195 5934 238 l 6256 320 l 6256 317 b 6248 246 6256 293 6253 269 b 6210 164 6243 223 6230 195 b 6129 84 6189 133 6162 106 b 5981 26 6095 62 6046 42 b 5756 2 5917 10 5842 2 l 566 2 b 359 25 488 2 420 10 b 216 84 299 40 251 60 b 129 170 181 108 152 137 b 83 267 106 203 91 236 b 71 366 75 299 71 332 l 71 392 b 83 490 71 427 75 459 b 128 586 91 521 106 553 b 215 669 151 618 180 646 b 359 726 251 692 299 711 b 564 748 418 741 487 748 l 5757 748 b 5979 725 5841 748 5915 741 b 6125 668 6042 709 6091 690 b 6207 589 6158 645 6186 619 b 6247 509 6228 559 6242 532 b 6256 440 6253 485 6256 462 l 6256 436 l 5954 436 b 5738 563 5934 517 5862 559 b 601 563 5731 563 608 563 l 597 563 b 425 514 518 563 461 547 "},"":{"ha":2871,"x_min":0,"x_max":0,"o":"m 2799 991 l 2799 13 l 2506 13 l 2506 121 b 2473 89 2498 111 2487 101 b 2409 49 2458 77 2436 64 b 2301 11 2382 34 2346 21 b 2244 2 2283 7 2264 4 b 536 -4 2216 -2 567 -4 l 518 -4 b 182 98 369 -4 257 30 b 71 360 108 166 71 253 l 71 385 b 176 639 71 489 106 573 b 507 738 247 705 357 738 l 528 738 b 2229 734 556 738 2202 736 b 2503 626 2342 722 2434 686 l 2503 991 m 2503 366 l 2503 371 b 2430 498 2503 420 2479 462 b 2234 552 2382 534 2316 552 l 2227 552 b 526 546 2197 552 550 550 b 426 501 483 538 449 523 b 372 371 390 467 372 423 l 372 366 b 431 237 372 317 392 274 b 528 191 456 215 488 199 b 2230 183 552 186 2199 183 l 2236 183 b 2432 237 2319 183 2384 201 b 2503 366 2479 274 2503 317 "},"":{"ha":4910,"x_min":0,"x_max":0,"o":"m 4839 997 l 4839 19 l 4546 19 l 4546 127 b 4513 95 4538 117 4527 106 b 4449 54 4498 83 4476 69 b 4341 17 4422 40 4386 27 b 4284 7 4323 13 4304 10 b 535 2 4256 4 567 2 l 518 2 b 182 104 369 2 257 36 b 71 366 108 172 71 259 l 71 391 b 176 645 71 494 106 579 b 506 743 247 710 357 743 l 528 743 b 4269 739 556 743 4242 742 b 4543 631 4382 728 4474 692 l 4543 997 m 4543 371 l 4543 376 b 4470 504 4543 426 4519 468 b 4274 558 4422 540 4356 558 l 4267 558 b 526 551 4237 558 550 556 b 426 507 482 543 449 529 b 372 376 390 472 372 429 l 372 371 b 431 243 372 322 392 279 b 528 197 456 221 488 205 b 4270 189 552 191 4239 189 l 4276 189 b 4472 243 4359 189 4424 207 b 4543 371 4519 279 4543 322 "},"":{"ha":6326,"x_min":0,"x_max":0,"o":"m 6254 997 l 6254 19 l 5961 19 l 5961 127 b 5928 95 5954 117 5943 106 b 5865 54 5913 83 5892 69 b 5757 17 5838 40 5802 27 b 5700 7 5738 13 5719 10 b 535 2 5671 4 567 2 l 518 2 b 182 104 369 2 257 36 b 71 366 108 172 71 259 l 71 391 b 176 645 71 494 106 579 b 506 743 247 710 357 743 l 528 743 b 5684 739 556 743 5658 742 b 5959 631 5798 728 5889 692 l 5959 997 m 5959 371 l 5959 376 b 5886 504 5959 426 5934 468 b 5689 558 5838 540 5772 558 l 5683 558 b 526 551 5652 558 550 556 b 426 507 482 543 449 529 b 372 376 390 472 372 429 l 372 371 b 431 243 372 322 392 279 b 528 197 456 221 488 205 b 5685 189 552 191 5655 189 l 5692 189 b 5887 243 5775 189 5840 207 b 5959 371 5935 279 5959 322 "},"":{"ha":2871,"x_min":0,"x_max":0,"o":"m 2800 310 l 360 310 b 611 172 379 218 463 172 l 612 172 b 2373 180 649 172 2344 174 b 2439 199 2401 185 2423 191 b 2478 224 2455 206 2468 215 b 2499 246 2488 233 2495 240 b 2505 263 2502 252 2504 257 l 2796 263 l 2796 261 b 2786 196 2796 239 2793 218 b 2745 126 2780 175 2767 151 b 2664 59 2724 100 2697 78 b 2522 12 2630 41 2583 25 b 2308 -7 2461 -1 2389 -7 l 571 -7 b 334 23 480 -7 400 3 b 178 105 267 42 215 70 b 97 219 141 140 114 178 b 71 355 79 260 71 305 l 71 383 b 95 516 71 432 79 476 b 172 629 110 557 136 594 b 325 710 207 663 259 690 b 563 740 391 730 471 740 l 2306 740 b 2800 359 2635 740 2800 613 m 2503 456 b 2287 575 2483 531 2411 571 b 603 575 2280 575 610 575 l 602 575 b 365 456 468 575 389 536 "},"":{"ha":4911,"x_min":0,"x_max":0,"o":"m 4840 358 l 4840 310 l 360 310 b 611 172 379 218 463 172 l 612 172 b 4413 180 649 172 4384 174 b 4479 199 4441 185 4463 191 b 4518 224 4495 206 4508 214 b 4539 246 4528 233 4535 240 b 4545 262 4542 252 4544 257 l 4836 262 l 4836 261 b 4826 196 4836 239 4832 217 b 4785 126 4820 174 4807 151 b 4704 59 4764 100 4737 78 b 4562 12 4670 40 4623 25 b 4349 -7 4501 -1 4429 -7 l 571 -7 b 333 22 480 -7 400 3 b 178 105 267 42 215 70 b 97 219 141 140 114 178 b 71 354 79 260 71 305 l 71 383 b 95 516 71 431 79 476 b 172 628 110 556 136 594 b 325 710 207 663 258 690 b 563 739 391 730 471 739 l 4346 739 b 4840 358 4675 739 4840 612 m 4543 456 b 4327 575 4523 531 4451 571 b 603 575 4320 575 610 575 l 601 575 b 365 456 468 575 389 535 "},"":{"ha":6326,"x_min":0,"x_max":0,"o":"m 6255 358 l 6255 310 l 360 310 b 611 172 379 218 463 172 l 612 172 b 5828 180 649 172 5800 174 b 5895 199 5857 185 5879 191 b 5934 224 5911 206 5924 214 b 5954 246 5944 233 5951 240 b 5961 262 5958 252 5960 257 l 6251 262 l 6251 261 b 6242 196 6251 239 6248 217 b 6201 126 6236 174 6222 151 b 6119 59 6180 100 6153 78 b 5977 12 6086 40 6039 25 b 5764 -7 5916 -1 5845 -7 l 571 -7 b 333 22 480 -7 400 3 b 178 105 267 42 215 70 b 97 219 141 140 114 178 b 71 354 79 260 71 305 l 71 383 b 95 516 71 431 79 476 b 172 628 110 556 136 594 b 325 710 207 663 258 690 b 563 739 391 730 471 739 l 5762 739 b 6255 358 6091 739 6255 612 m 5958 456 b 5742 575 5938 531 5866 571 b 603 575 5735 575 610 575 l 601 575 b 365 456 468 575 389 535 "},"":{"ha":5029,"x_min":0,"x_max":0,"o":"m 540 782 b 528 738 532 773 528 759 l 528 699 l 4957 699 l 4957 508 l 528 508 l 528 5 l 216 5 l 216 508 l 71 508 l 71 699 l 216 699 l 216 782 b 481 965 216 904 305 965 l 4957 965 l 4957 795 l 587 795 b 540 782 563 795 548 791 "},"":{"ha":6444,"x_min":0,"x_max":0,"o":"m 540 782 b 528 738 532 773 528 759 l 528 699 l 6373 699 l 6373 508 l 528 508 l 528 5 l 216 5 l 216 508 l 71 508 l 71 699 l 216 699 l 216 782 b 481 965 216 904 305 965 l 6373 965 l 6373 795 l 587 795 b 540 782 563 795 548 791 "},"":{"ha":1296,"x_min":0,"x_max":0,"o":"m 1224 700 l 1224 96 b 1214 3 1224 65 1220 34 b 1170 -102 1208 -28 1193 -63 b 1083 -203 1148 -141 1119 -174 b 930 -276 1047 -232 996 -256 b 701 -306 864 -296 788 -306 l -1403 -306 l -1403 -105 l 687 -105 b 915 106 839 -96 915 -25 b 553 -5 832 32 711 -5 l 536 -5 b 171 94 372 -5 250 28 b 51 347 91 159 51 244 l 51 375 b 159 620 51 473 87 555 b 498 717 231 685 344 717 l 527 717 b 914 601 701 717 830 679 l 914 700 m 908 353 l 908 358 b 836 478 908 406 884 445 b 628 525 789 510 719 525 l 619 525 b 424 479 528 525 463 510 b 365 361 384 448 365 408 l 365 354 b 426 233 365 307 385 266 b 619 183 467 200 532 183 l 628 183 b 836 233 719 183 789 200 b 908 353 884 266 908 306 "},"":{"ha":1299,"x_min":0,"x_max":0,"o":"m 1226 700 l 1226 96 b 1216 3 1226 65 1223 34 b 1173 -102 1210 -28 1195 -63 b 1085 -203 1150 -141 1121 -174 b 932 -276 1049 -232 998 -256 b 703 -306 866 -296 790 -306 l -3483 -306 l -3483 -105 l 689 -105 b 918 106 841 -96 918 -25 b 555 -5 834 32 713 -5 l 538 -5 b 173 94 374 -5 252 28 b 53 347 93 159 53 244 l 53 375 b 161 620 53 473 89 555 b 500 717 233 685 346 717 l 529 717 b 916 601 703 717 832 679 l 916 700 m 911 358 b 839 478 911 406 887 445 b 630 525 791 510 721 525 l 621 525 b 426 479 530 525 465 510 b 367 361 387 448 367 408 l 367 354 b 429 233 367 307 388 266 b 621 183 470 200 534 183 l 630 183 b 839 233 721 183 791 200 b 911 353 887 266 911 306 "},"":{"ha":1299,"x_min":0,"x_max":0,"o":"m 1226 700 l 1226 96 b 1216 3 1226 65 1222 34 b 1173 -102 1210 -28 1195 -63 b 1085 -203 1150 -141 1121 -174 b 932 -276 1049 -232 998 -256 b 703 -306 866 -296 790 -306 l -4958 -306 l -4958 -105 l 689 -105 b 918 106 841 -96 918 -25 b 555 -5 834 32 713 -5 l 538 -5 b 173 94 374 -5 252 28 b 53 347 93 159 53 244 l 53 375 b 161 620 53 473 89 555 b 500 717 233 685 346 717 l 529 717 b 916 601 703 717 832 679 l 916 700 m 911 353 l 911 358 b 839 478 911 406 887 445 b 630 525 791 510 721 525 l 621 525 b 426 479 530 525 465 510 b 367 361 387 448 367 408 l 367 354 b 429 233 367 307 388 266 b 621 183 470 200 534 183 l 630 183 b 838 233 721 183 791 200 b 911 353 887 266 911 306 "},"":{"ha":2871,"x_min":0,"x_max":0,"o":"m 2712 639 b 2799 444 2770 585 2799 520 l 2799 -3 l 2502 -3 l 2502 347 b 2454 477 2502 403 2486 446 b 2395 511 2439 492 2419 504 b 583 523 2371 519 615 523 b 425 470 517 523 464 505 b 365 331 385 435 365 389 l 365 -3 l 71 -3 l 71 975 l 365 975 l 365 586 b 638 715 438 659 529 702 b 2444 720 663 718 2417 720 l 2453 720 b 2712 639 2568 720 2654 693 "},"":{"ha":4911,"x_min":0,"x_max":0,"o":"m 4752 644 b 4839 448 4810 590 4839 525 l 4839 2 l 4542 2 l 4542 351 b 4494 481 4542 407 4526 451 b 4435 516 4479 497 4459 508 b 583 527 4411 523 615 527 b 425 475 517 527 464 510 b 365 335 385 440 365 393 l 365 2 l 71 2 l 71 979 l 365 979 l 365 590 b 638 720 438 663 529 706 b 4484 724 663 723 4457 724 l 4493 724 b 4752 644 4608 724 4694 697 "},"":{"ha":6326,"x_min":0,"x_max":0,"o":"m 6168 644 b 6255 448 6226 590 6255 525 l 6255 2 l 5958 2 l 5958 351 b 5910 481 5958 407 5942 451 b 5851 516 5894 497 5875 508 b 583 527 5827 523 615 527 b 425 475 517 527 464 510 b 365 335 385 440 365 393 l 365 2 l 71 2 l 71 979 l 365 979 l 365 590 b 638 720 438 663 529 706 b 5900 724 663 723 5873 724 l 5909 724 b 6168 644 6023 724 6109 697 "},"":{"ha":478,"x_min":0,"x_max":0,"o":"m 76 672 l 405 672 l 405 -197 b 363 -350 405 -266 391 -317 b 254 -400 336 -383 299 -400 l -2324 -400 l -2324 -170 l 29 -170 b 65 -160 46 -170 59 -167 b 76 -115 72 -152 76 -137 m 76 748 l 76 973 l 405 973 l 405 748 "},"":{"ha":478,"x_min":0,"x_max":0,"o":"m 75 672 l 404 672 l 404 -197 b 363 -350 404 -266 390 -317 b 254 -400 335 -383 299 -400 l -4364 -400 l -4364 -170 l 28 -170 b 65 -160 46 -170 58 -167 b 75 -115 72 -152 75 -137 m 75 748 l 75 973 l 404 973 l 404 748 "},"":{"ha":497,"x_min":0,"x_max":0,"o":"m 84 748 l 84 973 l 413 973 l 413 748 m 84 672 l 413 672 l 413 -197 b 372 -350 413 -266 399 -317 b 263 -400 344 -383 308 -400 l -5771 -400 l -5771 -170 l 37 -170 b 74 -160 55 -170 67 -167 b 84 -115 81 -152 84 -137 "},"":{"ha":2810,"x_min":0,"x_max":0,"o":"m 2813 -3 l 2467 -3 l 2242 234 l 365 234 l 365 -3 l 71 -3 l 71 975 l 365 975 l 365 529 l 2267 529 l 2446 705 l 2772 705 l 2437 385 "},"":{"ha":4850,"x_min":0,"x_max":0,"o":"m 4853 1 l 4507 1 l 4282 238 l 365 238 l 365 1 l 71 1 l 71 979 l 365 979 l 365 533 l 4307 533 l 4486 708 l 4812 708 l 4477 389 "},"":{"ha":6265,"x_min":0,"x_max":0,"o":"m 6269 1 l 5923 1 l 5698 238 l 365 238 l 365 1 l 71 1 l 71 979 l 365 979 l 365 533 l 5723 533 l 5902 708 l 6228 708 l 5893 389 "},"":{"ha":2872,"x_min":0,"x_max":0,"o":"m 2718 649 b 2800 454 2773 595 2800 530 l 2800 7 l 2503 7 l 2503 357 b 2409 523 2503 447 2472 502 b 1841 533 2390 530 1867 533 b 1693 479 1779 533 1729 515 b 1638 341 1656 443 1638 397 l 1638 7 l 1341 7 l 1341 357 b 1267 514 1341 436 1317 489 b 569 533 1244 527 604 533 b 420 479 506 533 457 515 b 365 341 383 443 365 397 l 365 7 l 71 7 l 71 715 l 363 715 l 363 592 b 513 695 408 638 458 672 b 1311 730 571 719 1243 730 l 1320 730 b 1604 590 1457 730 1552 684 b 1822 714 1666 651 1738 693 b 2462 730 1865 725 2413 730 l 2473 730 b 2718 649 2582 730 2664 703 "},"":{"ha":4906,"x_min":0,"x_max":0,"o":"m 4752 648 b 4834 454 4806 594 4834 529 l 4834 7 l 4537 7 l 4537 356 b 4443 522 4537 446 4506 501 b 2764 532 4424 529 2789 532 b 2615 479 2701 532 2652 514 b 2560 341 2579 443 2560 397 l 2560 7 l 2263 7 l 2263 356 b 2190 514 2263 435 2239 488 b 568 532 2166 526 604 532 b 420 479 506 532 456 514 b 365 341 383 443 365 397 l 365 7 l 71 7 l 71 714 l 363 714 l 363 592 b 513 694 408 637 458 671 b 2233 730 570 718 2165 730 l 2242 730 b 2526 589 2379 730 2474 683 b 2744 713 2588 651 2660 692 b 4496 730 2787 724 4446 730 l 4506 730 b 4752 648 4615 730 4697 702 "},"":{"ha":6353,"x_min":0,"x_max":0,"o":"m 6199 648 b 6281 454 6254 594 6281 529 l 6281 7 l 5984 7 l 5984 356 b 5890 522 5984 446 5953 501 b 3444 532 5871 529 3469 532 b 3295 479 3381 532 3332 514 b 3241 341 3259 443 3241 397 l 3241 7 l 2944 7 l 2944 356 b 2870 514 2944 435 2919 488 b 568 532 2846 526 604 532 b 420 479 506 532 456 514 b 365 341 383 443 365 397 l 365 7 l 71 7 l 71 714 l 363 714 l 363 592 b 513 694 408 637 458 671 b 2913 730 570 718 2846 730 l 2923 730 b 3206 589 3060 730 3154 683 b 3424 713 3268 651 3341 692 b 5943 730 3468 724 5893 730 l 5954 730 b 6199 648 6063 730 6144 702 "},"":{"ha":2874,"x_min":0,"x_max":0,"o":"m 2716 650 b 2802 455 2773 596 2802 531 l 2802 8 l 2505 8 l 2505 357 b 2457 487 2505 413 2489 457 b 2386 525 2439 505 2415 518 b 583 533 2365 531 610 533 b 425 481 517 533 464 516 b 365 341 385 446 365 399 l 365 8 l 71 8 l 71 715 l 363 715 l 363 594 b 579 715 423 654 496 695 b 2388 728 604 721 2362 725 b 2447 731 2407 730 2427 731 l 2456 731 b 2716 650 2571 731 2658 704 "},"":{"ha":4914,"x_min":0,"x_max":0,"o":"m 4755 649 b 4842 454 4813 595 4842 530 l 4842 7 l 4545 7 l 4545 356 b 4497 486 4545 412 4529 456 b 4426 524 4479 504 4455 517 b 583 532 4405 530 609 532 b 425 480 517 532 464 515 b 365 340 385 445 365 398 l 365 7 l 71 7 l 71 714 l 363 714 l 363 593 b 579 714 423 653 496 694 b 4428 727 604 720 4402 724 b 4487 730 4447 729 4467 730 l 4496 730 b 4755 649 4611 730 4698 703 "},"":{"ha":6329,"x_min":0,"x_max":0,"o":"m 6171 649 b 6258 454 6229 595 6258 530 l 6258 7 l 5961 7 l 5961 356 b 5913 486 5961 412 5945 456 b 5842 524 5895 504 5871 517 b 583 532 5821 530 609 532 b 425 480 517 532 464 515 b 365 340 385 445 365 398 l 365 7 l 71 7 l 71 714 l 363 714 l 363 593 b 579 714 423 653 496 694 b 5844 727 604 720 5817 724 b 5903 730 5863 729 5883 730 l 5912 730 b 6171 649 6027 730 6114 703 "},"":{"ha":2861,"x_min":0,"x_max":0,"o":"m 2327 714 b 2816 371 2653 714 2816 600 l 2816 348 b 2327 -3 2816 114 2653 -3 l 533 -3 b 330 19 456 -3 389 4 b 189 75 271 34 224 53 b 101 157 153 98 124 125 b 54 251 78 189 63 221 b 42 348 46 282 42 314 l 42 371 b 54 467 42 405 46 437 b 101 559 63 497 78 528 b 188 639 123 590 152 617 b 329 694 223 662 270 680 b 531 714 388 707 455 714 l 2327 714 m 2560 356 l 2560 361 b 2501 472 2560 405 2541 442 b 2324 516 2464 499 2405 514 b 556 516 2319 516 562 516 l 555 516 b 358 472 463 516 397 501 b 300 361 319 443 300 406 l 300 356 b 359 245 300 313 319 276 b 555 198 398 214 463 198 b 2327 198 562 198 2320 198 b 2501 245 2407 201 2465 216 b 2560 356 2541 276 2560 313 m 1380 489 l 1669 489 l 1477 225 l 1189 225 "},"":{"ha":4876,"x_min":0,"x_max":0,"o":"m 4343 714 b 4831 370 4668 714 4831 599 l 4831 348 b 4343 -3 4831 114 4668 -3 l 532 -3 b 330 19 456 -3 389 4 b 189 75 271 33 224 52 b 101 157 153 98 124 125 b 54 251 78 189 63 220 b 42 348 46 282 42 314 l 42 370 b 54 466 42 404 46 436 b 101 559 63 497 78 527 b 188 639 123 590 152 617 b 329 693 223 661 270 679 b 531 714 388 707 455 714 l 4343 714 m 4576 355 l 4576 361 b 4516 471 4576 405 4556 442 b 4340 515 4480 499 4421 513 b 556 515 4334 515 562 515 l 555 515 b 358 472 463 515 397 501 b 299 361 319 443 299 406 l 299 355 b 359 244 299 312 319 275 b 555 198 398 213 463 198 b 4342 198 562 198 4335 198 b 4516 244 4422 200 4480 216 b 4576 355 4556 275 4576 312 m 1652 488 l 1967 488 l 1749 224 l 1460 224 m 3159 488 l 3474 488 l 3256 224 l 2967 224 "},"":{"ha":6272,"x_min":0,"x_max":0,"o":"m 5739 714 b 6228 370 6065 714 6228 599 l 6228 348 b 5739 -3 6228 114 6065 -3 l 532 -3 b 330 19 456 -3 389 4 b 189 75 271 33 224 52 b 101 157 153 98 124 125 b 54 251 78 189 63 220 b 42 348 46 282 42 314 l 42 370 b 54 466 42 404 46 436 b 101 559 63 497 78 527 b 188 639 123 590 152 617 b 329 693 223 661 270 679 b 531 714 388 707 455 714 l 5739 714 m 5972 355 l 5972 361 b 5913 471 5972 405 5953 442 b 5736 515 5877 499 5818 513 b 556 515 5731 515 562 515 l 555 515 b 358 472 463 515 397 501 b 299 361 319 443 299 406 l 299 355 b 359 244 299 312 319 275 b 555 198 398 213 463 198 b 5739 198 562 198 5732 198 b 5913 244 5819 200 5877 216 b 5972 355 5953 275 5972 312 m 1513 488 l 1828 488 l 1610 224 l 1321 224 m 3073 488 l 3388 488 l 3170 224 l 2881 224 m 4585 488 l 4901 488 l 4682 224 l 4394 224 "},"":{"ha":2875,"x_min":0,"x_max":0,"o":"m 2780 526 b 2803 388 2795 485 2803 439 l 2803 363 b 2780 228 2803 314 2795 269 b 2707 114 2764 187 2740 149 b 2571 31 2674 79 2629 51 b 2365 2 2512 12 2444 2 l 719 2 b 490 43 628 2 552 15 b 365 119 428 70 386 95 l 365 -228 l 71 -228 l 71 726 l 365 726 l 365 625 b 726 743 456 704 576 743 l 2374 743 b 2577 716 2452 743 2520 734 b 2710 638 2633 697 2678 671 b 2780 526 2742 605 2766 568 m 2502 373 l 2502 378 b 2446 509 2502 430 2483 474 b 2380 545 2429 524 2407 536 b 635 561 2348 555 683 561 l 628 561 b 432 507 542 561 476 543 b 365 378 387 471 365 428 l 365 373 b 434 244 365 324 388 281 b 628 189 480 207 544 189 l 635 189 b 2382 206 683 189 2349 194 b 2445 242 2408 215 2429 227 b 2502 373 2483 278 2502 322 "},"":{"ha":4914,"x_min":0,"x_max":0,"o":"m 4820 526 b 4843 388 4835 485 4843 439 l 4843 363 b 4820 228 4843 314 4835 269 b 4747 113 4804 187 4780 148 b 4611 31 4714 78 4669 51 b 4405 2 4552 12 4484 2 l 719 2 b 490 42 628 2 552 15 b 365 119 428 70 386 95 l 365 -228 l 71 -228 l 71 726 l 365 726 l 365 625 b 726 743 456 704 576 743 l 4414 743 b 4616 715 4492 743 4560 734 b 4750 638 4673 697 4718 671 b 4820 526 4782 605 4805 567 m 4542 372 l 4542 378 b 4486 508 4542 430 4523 474 b 4421 544 4469 524 4447 536 b 634 560 4388 555 682 560 l 628 560 b 432 506 542 560 476 542 b 365 378 387 470 365 428 l 365 372 b 434 244 365 323 388 280 b 628 188 480 207 544 188 l 634 188 b 4422 206 683 188 4389 194 b 4485 242 4448 214 4469 227 b 4542 372 4523 278 4542 322 "},"":{"ha":6331,"x_min":0,"x_max":0,"o":"m 6236 526 b 6259 388 6251 485 6259 439 l 6259 363 b 6235 228 6259 314 6251 269 b 6163 113 6220 187 6196 148 b 6026 31 6130 78 6084 51 b 5820 2 5968 12 5900 2 l 719 2 b 490 42 628 2 552 15 b 365 119 428 70 386 95 l 365 -228 l 71 -228 l 71 726 l 365 726 l 365 625 b 726 743 456 704 576 743 l 5830 743 b 6032 715 5908 743 5975 734 b 6165 638 6089 697 6133 671 b 6236 526 6198 605 6221 567 m 5958 372 l 5958 378 b 5901 508 5958 430 5939 474 b 5836 544 5885 524 5863 536 b 634 560 5803 555 682 560 l 628 560 b 432 506 542 560 476 542 b 365 378 387 470 365 428 l 365 372 b 434 244 365 323 388 280 b 628 188 480 207 544 188 l 634 188 b 5838 206 683 188 5805 194 b 5901 242 5864 214 5884 227 b 5958 372 5939 278 5958 322 "},"":{"ha":2875,"x_min":0,"x_max":0,"o":"m 71 389 b 93 527 71 439 78 485 b 164 638 108 568 132 605 b 297 716 196 672 240 698 b 500 744 354 734 422 744 l 2148 744 b 2509 625 2298 744 2418 704 l 2509 726 l 2803 726 l 2803 -228 l 2509 -228 l 2509 119 b 2384 43 2487 95 2446 70 b 2155 2 2322 16 2245 2 l 509 2 b 303 32 430 2 361 12 b 167 114 245 51 200 79 b 94 228 134 149 109 187 b 71 364 79 269 71 315 l 71 389 m 372 373 b 429 243 372 322 391 279 b 491 206 445 227 466 215 b 2239 189 525 195 2190 189 l 2246 189 b 2440 244 2329 189 2394 207 b 2509 373 2486 281 2509 324 l 2509 378 b 2442 507 2509 428 2486 471 b 2246 561 2397 543 2332 561 l 2239 561 b 493 545 2191 561 526 556 b 428 509 467 536 445 524 b 372 378 391 474 372 431 l 372 373 "},"":{"ha":4914,"x_min":0,"x_max":0,"o":"m 71 388 b 93 526 71 439 78 485 b 164 638 108 567 132 604 b 297 715 196 671 240 697 b 500 743 354 734 422 743 l 4188 743 b 4549 625 4338 743 4458 703 l 4549 726 l 4843 726 l 4843 -228 l 4549 -228 l 4549 119 b 4424 42 4527 95 4486 70 b 4195 2 4362 15 4285 2 l 509 2 b 303 31 430 2 361 11 b 167 113 245 51 200 78 b 94 228 134 148 109 187 b 71 363 79 269 71 314 l 71 388 m 372 372 b 429 242 372 321 391 278 b 491 206 445 227 466 214 b 4279 188 525 194 4230 188 l 4286 188 b 4480 243 4369 188 4434 207 b 4549 372 4526 280 4549 323 l 4549 378 b 4482 506 4549 427 4526 470 b 4286 560 4437 542 4372 560 l 4279 560 b 493 544 4231 560 526 555 b 428 508 466 536 445 524 b 372 378 390 474 372 430 "},"":{"ha":6331,"x_min":0,"x_max":0,"o":"m 71 388 b 93 526 71 439 78 485 b 164 638 108 567 132 604 b 297 715 196 671 240 697 b 500 743 354 734 422 743 l 5604 743 b 5964 625 5753 743 5874 703 l 5964 726 l 6259 726 l 6259 -228 l 5964 -228 l 5964 119 b 5839 42 5943 95 5902 70 b 5610 2 5777 15 5701 2 l 509 2 b 303 31 430 2 361 11 b 167 113 245 51 200 78 b 94 228 134 148 109 187 b 71 363 79 269 71 314 l 71 388 m 372 372 b 429 242 372 321 391 278 b 491 206 445 227 466 214 b 5695 188 525 194 5646 188 l 5702 188 b 5896 243 5785 188 5850 207 b 5964 372 5941 280 5964 323 l 5964 378 b 5898 506 5964 427 5942 470 b 5702 560 5853 542 5788 560 l 5695 560 b 493 544 5647 560 526 555 b 428 508 466 536 445 524 b 372 378 390 474 372 430 l 372 372 "},"":{"ha":2829,"x_min":0,"x_max":0,"o":"m 2801 730 l 2801 544 b 520 543 2801 544 556 548 b 406 494 484 539 433 527 b 365 372 379 461 365 421 l 365 7 l 71 7 l 71 714 l 363 714 l 363 589 b 409 645 375 608 390 626 b 503 701 427 663 459 682 b 650 730 548 720 597 730 "},"":{"ha":4869,"x_min":0,"x_max":0,"o":"m 4841 730 l 4841 544 b 520 544 4841 544 555 548 b 406 495 484 540 433 527 b 365 373 379 462 365 421 l 365 8 l 71 8 l 71 715 l 363 715 l 363 590 b 409 645 375 608 390 627 b 503 702 427 663 459 682 b 650 730 548 721 597 730 "},"":{"ha":6285,"x_min":0,"x_max":0,"o":"m 6257 730 l 6257 544 b 520 544 6257 544 555 548 b 406 495 484 540 433 527 b 365 373 379 462 365 421 l 365 8 l 71 8 l 71 715 l 363 715 l 363 590 b 409 645 375 608 390 627 b 503 702 427 663 459 682 b 650 730 548 721 597 730 "},"":{"ha":2808,"x_min":0,"x_max":0,"o":"m 2739 355 b 2769 235 2759 326 2769 286 l 2769 227 b 2750 133 2769 191 2763 160 b 2683 57 2737 106 2715 81 b 2538 3 2650 34 2602 16 b 2300 -16 2474 -10 2395 -16 l 496 -16 b 39 235 191 -16 39 68 l 39 243 l 343 243 b 497 147 343 184 394 152 b 2275 147 506 147 2266 147 l 2278 147 b 2397 157 2329 147 2369 150 b 2451 181 2426 164 2444 172 b 2461 214 2458 190 2461 201 l 2461 217 b 2432 261 2461 237 2452 252 b 2306 278 2412 271 2370 277 l 501 279 l 428 281 b 239 303 354 283 291 290 b 120 356 187 316 147 334 b 63 424 93 378 74 401 b 45 502 51 448 45 474 l 45 510 b 54 575 45 534 48 556 b 91 635 60 595 72 614 b 167 685 110 655 135 671 b 298 717 199 698 242 709 b 494 731 353 726 419 731 l 2298 731 b 2743 508 2594 731 2743 656 l 2743 499 l 2443 499 b 2435 522 2441 508 2439 516 b 2414 545 2432 529 2424 536 b 2360 564 2403 553 2385 559 b 2294 571 2342 568 2319 570 b 517 571 2285 571 526 571 l 515 571 b 381 560 449 571 404 567 b 347 519 358 552 347 538 l 347 516 b 378 476 347 499 357 485 b 496 460 399 467 438 461 l 2311 458 l 2373 457 b 2621 427 2479 455 2562 445 b 2739 355 2680 408 2720 385 "},"":{"ha":4849,"x_min":0,"x_max":0,"o":"m 4779 354 b 4809 234 4799 325 4809 285 l 4809 226 b 4790 132 4809 190 4803 159 b 4723 56 4777 105 4755 80 b 4578 2 4690 33 4642 15 b 4340 -17 4514 -11 4435 -17 l 496 -17 b 39 234 191 -17 39 67 l 39 242 l 342 242 b 497 146 342 183 394 151 b 4315 146 505 146 4306 146 l 4318 146 b 4437 156 4369 146 4409 149 b 4491 180 4466 163 4484 171 b 4501 213 4498 189 4501 200 l 4501 215 b 4472 260 4501 236 4492 250 b 4346 277 4452 270 4410 275 l 501 278 l 428 280 b 239 302 354 282 291 289 b 120 355 186 315 147 333 b 63 423 93 377 74 399 b 45 501 51 447 45 473 l 45 509 b 54 574 45 533 48 555 b 91 633 60 594 72 613 b 167 683 110 654 135 670 b 298 716 199 696 242 707 b 494 729 353 725 419 729 l 4338 729 b 4783 507 4634 729 4783 655 l 4783 498 l 4483 498 b 4475 521 4481 507 4479 514 b 4454 543 4472 528 4464 535 b 4400 563 4443 552 4426 558 b 4334 570 4382 567 4359 569 b 517 570 4326 570 526 570 l 515 570 b 381 558 448 570 404 566 b 346 518 358 551 346 537 l 346 515 b 378 475 346 498 357 484 b 496 459 399 466 438 460 l 4351 457 l 4413 456 b 4661 426 4519 454 4602 444 b 4779 354 4720 407 4759 383 "},"":{"ha":6264,"x_min":0,"x_max":0,"o":"m 6195 354 b 6225 234 6215 325 6225 285 l 6225 226 b 6206 132 6225 190 6218 159 b 6138 56 6193 105 6170 80 b 5994 2 6106 33 6058 15 b 5756 -17 5929 -11 5850 -17 l 496 -17 b 39 234 191 -17 39 67 l 39 242 l 342 242 b 497 146 342 183 394 151 b 5731 146 505 146 5721 146 l 5734 146 b 5853 156 5785 146 5825 149 b 5907 180 5882 163 5900 171 b 5917 213 5914 189 5917 200 l 5917 215 b 5887 260 5917 236 5907 251 b 5761 277 5868 270 5826 275 l 501 278 l 428 280 b 239 302 354 282 291 289 b 120 355 186 315 147 333 b 63 423 93 377 74 399 b 45 501 51 447 45 473 l 45 509 b 54 574 45 533 48 555 b 91 633 60 594 72 613 b 167 683 110 654 135 670 b 298 716 199 696 242 707 b 494 729 353 725 419 729 l 5753 729 b 6198 507 6050 729 6198 655 l 6198 498 l 5899 498 b 5891 521 5897 507 5894 514 b 5870 543 5887 528 5880 535 b 5816 563 5859 552 5841 558 b 5750 570 5797 567 5775 569 b 517 570 5741 570 526 570 l 515 570 b 381 558 448 570 404 566 b 346 518 358 551 346 537 l 346 515 b 378 475 346 498 357 484 b 496 459 399 466 438 460 l 5767 457 l 5829 456 b 6077 426 5935 454 6018 444 b 6195 354 6136 407 6175 383 "},"":{"ha":2872,"x_min":0,"x_max":0,"o":"m 500 520 l 500 264 b 512 217 500 243 504 227 b 559 202 520 207 536 202 l 2801 202 l 2801 7 l 385 7 b 209 209 268 7 209 74 l 209 520 l 71 520 l 71 715 l 209 715 l 209 921 l 500 921 l 500 715 l 2801 715 l 2801 520 "},"":{"ha":4913,"x_min":0,"x_max":0,"o":"m 500 520 l 500 264 b 512 217 500 243 504 227 b 559 202 520 207 535 202 l 4841 202 l 4841 7 l 385 7 b 209 209 268 7 209 74 l 209 520 l 71 520 l 71 715 l 209 715 l 209 921 l 500 921 l 500 715 l 4841 715 l 4841 520 "},"":{"ha":6328,"x_min":0,"x_max":0,"o":"m 500 520 l 500 264 b 512 217 500 243 504 227 b 559 202 520 207 535 202 l 6257 202 l 6257 7 l 385 7 b 209 209 268 7 209 74 l 209 520 l 71 520 l 71 715 l 209 715 l 209 921 l 500 921 l 500 715 l 6257 715 l 6257 520 "},"":{"ha":2874,"x_min":0,"x_max":0,"o":"m 157 77 b 71 273 100 131 71 196 l 71 720 l 368 720 l 368 370 b 415 240 368 314 384 270 b 487 202 434 222 458 209 b 2290 194 508 196 2263 194 b 2448 246 2356 194 2409 211 b 2508 386 2488 281 2508 328 l 2508 720 l 2802 720 l 2802 12 l 2510 12 l 2510 133 b 2293 12 2449 73 2377 32 b 485 -1 2269 6 511 2 b 426 -4 466 -3 446 -4 l 417 -4 b 157 77 301 -4 215 23 "},"":{"ha":4914,"x_min":0,"x_max":0,"o":"m 157 77 b 71 272 100 131 71 196 l 71 719 l 368 719 l 368 369 b 415 239 368 313 384 270 b 487 201 434 222 458 209 b 4330 193 508 196 4303 193 b 4488 246 4396 193 4449 211 b 4548 385 4528 281 4548 327 l 4548 719 l 4842 719 l 4842 12 l 4550 12 l 4550 133 b 4333 12 4489 72 4417 32 b 485 -1 4309 6 511 1 b 426 -4 465 -3 446 -4 l 417 -4 b 157 77 301 -4 215 23 "},"":{"ha":6329,"x_min":0,"x_max":0,"o":"m 157 77 b 71 272 100 131 71 196 l 71 719 l 368 719 l 368 369 b 415 239 368 313 384 270 b 487 201 434 222 458 209 b 5746 193 508 196 5719 193 b 5904 246 5812 193 5864 211 b 5963 385 5944 281 5963 327 l 5963 719 l 6258 719 l 6258 12 l 5966 12 l 5966 133 b 5749 12 5905 72 5833 32 b 485 -1 5724 6 511 1 b 426 -4 465 -3 446 -4 l 417 -4 b 157 77 301 -4 215 23 "},"":{"ha":2768,"x_min":0,"x_max":0,"o":"m 2749 710 l 2474 2 l 2163 2 l 2021 384 l 760 384 l 617 2 l 312 2 l 18 710 l 324 710 l 487 257 l 599 575 l 2201 575 l 2317 257 l 2474 710 "},"":{"ha":4808,"x_min":0,"x_max":0,"o":"m 4789 710 l 4514 3 l 4203 3 l 4061 385 l 760 385 l 617 3 l 312 3 l 18 710 l 324 710 l 487 258 l 599 576 l 4241 576 l 4357 258 l 4514 710 "},"":{"ha":6224,"x_min":0,"x_max":0,"o":"m 6205 710 l 5930 3 l 5619 3 l 5476 385 l 760 385 l 617 3 l 312 3 l 18 710 l 324 710 l 487 258 l 599 576 l 5657 576 l 5773 258 l 5930 710 "},"":{"ha":1115,"x_min":0,"x_max":0,"o":"m 799 676 l 1109 676 l 718 -112 b 602 -272 681 -186 643 -239 b 444 -321 561 -305 509 -321 l -1632 -321 l -1632 -101 l 349 -101 b 385 -78 373 -101 385 -94 b 350 0 385 -70 373 -44 l -6 676 l 326 676 l 566 176 l 799 676 "},"":{"ha":1136,"x_min":0,"x_max":0,"o":"m 1129 676 l 739 -112 b 623 -271 702 -185 663 -238 b 465 -321 582 -304 529 -321 l -3651 -321 l -3651 -101 l 369 -101 b 405 -78 393 -101 405 -93 b 371 0 405 -69 394 -43 l 15 676 l 347 676 l 587 176 l 819 676 "},"":{"ha":1132,"x_min":0,"x_max":0,"o":"m 1126 676 l 735 -112 b 619 -271 698 -185 659 -238 b 461 -321 578 -304 526 -321 l -5071 -321 l -5071 -101 l 366 -101 b 402 -78 390 -101 402 -93 b 367 0 402 -69 390 -43 l 11 676 l 343 676 l 583 176 l 815 676 "},"":{"ha":2878,"x_min":0,"x_max":0,"o":"m 2806 199 l 2806 3 l 71 3 l 71 174 l 1697 519 l 71 519 l 71 710 l 2803 710 l 2803 546 l 1139 199 "},"":{"ha":4917,"x_min":0,"x_max":0,"o":"m 4846 199 l 4846 3 l 71 3 l 71 174 l 3075 519 l 71 519 l 71 710 l 4843 710 l 4843 546 l 1786 199 "},"":{"ha":6333,"x_min":0,"x_max":0,"o":"m 6261 199 l 6261 3 l 71 3 l 71 174 l 4094 519 l 71 519 l 71 710 l 6259 710 l 6259 546 l 2480 199 "},"ﬀ":{"ha":2989,"x_min":0,"x_max":0,"o":"m 540 781 b 528 737 532 772 528 758 l 528 698 l 2918 698 l 2918 507 l 528 507 l 528 3 l 217 3 l 217 507 l 71 507 l 71 698 l 217 698 l 217 781 b 481 964 217 903 305 964 l 2918 964 l 2918 794 l 587 794 b 540 781 563 794 548 790 "},"ﬁ":{"ha":1081,"x_min":0,"x_max":0,"o":"m 1044 754 l 1044 0 l 730 0 l 730 548 l 491 546 l 491 0 l 181 0 l 181 546 l 36 546 l 36 754 l 181 754 l 181 844 b 444 1043 181 976 269 1043 l 672 1043 l 672 858 l 550 858 b 503 844 526 858 511 853 b 491 796 495 834 491 818 l 491 754 m 730 858 l 730 1043 l 1044 1043 l 1044 858 "},"ﬂ":{"ha":1081,"x_min":0,"x_max":0,"o":"m 1044 1043 l 1044 0 l 730 0 l 730 858 l 550 858 b 503 844 526 858 511 853 b 491 796 495 834 491 818 l 491 754 l 672 754 l 672 546 l 491 546 l 491 0 l 181 0 l 181 546 l 36 546 l 36 754 l 181 754 l 181 844 b 444 1043 181 976 269 1043 "},"ﬆ":{"ha":1729,"x_min":0,"x_max":0,"o":"m 1537 609 l 1537 264 b 1550 213 1537 241 1541 224 b 1602 196 1559 202 1576 196 l 1690 196 l 1690 -17 l 1411 -17 b 1219 203 1283 -17 1219 57 l 1219 609 l 523 609 b 403 597 465 609 425 604 b 367 554 379 589 367 574 l 367 551 b 401 508 367 532 378 518 b 526 491 423 498 465 492 l 661 488 b 925 456 774 486 862 475 b 1051 379 988 436 1030 410 b 1083 251 1072 348 1083 305 l 1083 243 b 1063 142 1083 204 1076 171 b 991 62 1049 114 1025 87 b 837 4 957 37 905 17 b 583 -17 768 -10 684 -17 l 526 -17 b 39 251 201 -17 39 73 l 39 259 l 363 259 b 557 157 363 191 427 157 l 560 157 b 687 168 614 157 656 161 b 744 193 717 176 736 184 b 755 229 751 203 755 215 l 755 231 b 723 279 755 253 745 269 b 589 297 702 289 658 295 l 454 300 b 252 324 375 302 308 310 b 125 380 196 338 154 357 b 64 453 97 403 76 428 b 46 535 52 478 46 506 l 46 544 b 55 614 46 570 49 593 b 94 677 61 634 74 655 b 175 730 115 698 142 716 b 315 765 209 744 256 756 b 523 779 373 774 443 779 l 1219 779 l 1219 983 l 1537 983 l 1537 779 l 1690 779 l 1690 609 "}}}
